Asap-MediumItalic.ufo
<glyph name="exclam" format="2">
  <advance width="294.0"/>
  <unicode hex="0021"/>
  <outline>
    <contour>
      <point x="124.79245283018868" y="208.03773584905662" type="curve" smooth="yes"/>
      <point x="135.79245283018867" y="208.03773584905662" type="line" smooth="yes"/>
      <point x="162.83018867924528" y="208.03773584905662"/>
      <point x="172.22641509433961" y="216.9433962264151"/>
      <point x="175.1320754716981" y="233.0566037735849" type="curve" smooth="yes"/>
      <point x="255.8679245283019" y="676.377358490566" type="line" smooth="yes"/>
      <point x="258.77358490566036" y="693.0943396226415"/>
      <point x="245.1509433962264" y="702.0"/>
      <point x="212.83018867924528" y="702.0" type="curve" smooth="yes"/>
      <point x="185.88679245283018" y="702.0" type="line" smooth="yes"/>
      <point x="153.66037735849056" y="702.0"/>
      <point x="139.54716981132074" y="693.0943396226415"/>
      <point x="137.54716981132074" y="676.9811320754717" type="curve" smooth="yes"/>
      <point x="91.45283018867924" y="233.75471698113208" type="line" smooth="yes"/>
      <point x="89.45283018867924" y="216.64150943396226"/>
      <point x="96.45283018867924" y="208.03773584905662"/>
    </contour>
    <contour>
      <point x="98.47169811320755" y="-2.0" type="curve" smooth="yes"/>
      <point x="120.0" y="-2.0" type="line" smooth="yes"/>
      <point x="150.83018867924528" y="-2.0"/>
      <point x="166.33962264150944" y="6.90566037735849"/>
      <point x="168.33962264150944" y="23.0188679245283" type="curve" smooth="yes"/>
      <point x="176.24528301886792" y="96.86792452830188" type="line" smooth="yes"/>
      <point x="176.9433962264151" y="112.98113207547169"/>
      <point x="165.73584905660377" y="121.88679245283019"/>
      <point x="132.50943396226415" y="121.88679245283019" type="curve" smooth="yes"/>
      <point x="110.98113207547169" y="121.88679245283019" type="line" smooth="yes"/>
      <point x="77.35849056603773" y="121.88679245283019"/>
      <point x="63.943396226415096" y="112.98113207547169"/>
      <point x="62.64150943396226" y="96.86792452830188" type="curve" smooth="yes"/>
      <point x="54.735849056603776" y="23.0188679245283" type="line"/>
      <point x="54.735849056603776" y="6.90566037735849"/>
      <point x="64.54716981132076" y="-2.0"/>
    </contour>
  </outline>
</glyph>
<glyph name="numbersign" format="2">
  <advance width="534.0"/>
  <unicode hex="0023"/>
  <outline>
    <contour>
      <point x="74.58490566037736" y="-2.0" type="curve" smooth="yes"/>
      <point x="81.30188679245283" y="-2.0" type="line" smooth="yes"/>
      <point x="115.39622641509433" y="-2.0"/>
      <point x="126.62264150943396" y="6.60377358490566"/>
      <point x="131.22641509433961" y="22.71698113207547" type="curve" smooth="yes"/>
      <point x="179.71698113207546" y="192.0754716981132" type="line"/>
      <point x="290.47169811320754" y="192.0754716981132" type="line"/>
      <point x="241.9811320754717" y="20.81132075471698" type="line" smooth="yes"/>
      <point x="237.67924528301887" y="4.90566037735849"/>
      <point x="247.58490566037736" y="-2.0"/>
      <point x="271.811320754717" y="-2.0" type="curve" smooth="yes"/>
      <point x="278.52830188679246" y="-2.0" type="line" smooth="yes"/>
      <point x="311.92452830188677" y="-2.0"/>
      <point x="323.8490566037736" y="6.60377358490566"/>
      <point x="328.45283018867923" y="22.71698113207547" type="curve" smooth="yes"/>
      <point x="376.24528301886795" y="192.0754716981132" type="line"/>
      <point x="457.79245283018867" y="192.0754716981132" type="line" smooth="yes"/>
      <point x="473.9056603773585" y="192.0754716981132"/>
      <point x="483.9056603773585" y="202.58490566037736"/>
      <point x="486.50943396226415" y="230.20754716981133" type="curve" smooth="yes"/>
      <point x="487.50943396226415" y="244.39622641509433" type="line" smooth="yes"/>
      <point x="489.41509433962267" y="268.52830188679246"/>
      <point x="483.1132075471698" y="279.0377358490566"/>
      <point x="467.0" y="279.0377358490566" type="curve" smooth="yes"/>
      <point x="402.35849056603774" y="279.0377358490566" type="line"/>
      <point x="440.9433962264151" y="414.8679245283019" type="line"/>
      <point x="514.188679245283" y="414.8679245283019" type="line" smooth="yes"/>
      <point x="530.3018867924528" y="414.8679245283019"/>
      <point x="540.3018867924528" y="425.37735849056605"/>
      <point x="542.9056603773585" y="453.0" type="curve" smooth="yes"/>
      <point x="543.9056603773585" y="467.188679245283" type="line" smooth="yes"/>
      <point x="545.811320754717" y="491.3207547169811"/>
      <point x="539.5094339622641" y="501.8301886792453"/>
      <point x="523.3962264150944" y="501.8301886792453" type="curve" smooth="yes"/>
      <point x="466.35849056603774" y="501.8301886792453" type="line"/>
      <point x="512.5471698113207" y="665.5849056603773" type="line" smooth="yes"/>
      <point x="516.1509433962265" y="679.0943396226415"/>
      <point x="506.33962264150944" y="686.0"/>
      <point x="482.7169811320755" y="686.0" type="curve" smooth="yes"/>
      <point x="475.3018867924528" y="686.0" type="line" smooth="yes"/>
      <point x="439.1132075471698" y="686.0"/>
      <point x="428.9811320754717" y="677.3962264150944"/>
      <point x="424.37735849056605" y="661.2830188679245" type="curve" smooth="yes"/>
      <point x="379.188679245283" y="501.8301886792453" type="line"/>
      <point x="267.7358490566038" y="501.8301886792453" type="line"/>
      <point x="316.0188679245283" y="665.5849056603773" type="line" smooth="yes"/>
      <point x="319.62264150943395" y="679.0943396226415"/>
      <point x="309.1132075471698" y="686.0"/>
      <point x="285.49056603773585" y="686.0" type="curve" smooth="yes"/>
      <point x="278.77358490566036" y="686.0" type="line" smooth="yes"/>
      <point x="242.58490566037736" y="686.0"/>
      <point x="232.45283018867926" y="677.3962264150944"/>
      <point x="227.8490566037736" y="661.2830188679245" type="curve" smooth="yes"/>
      <point x="181.96226415094338" y="501.8301886792453" type="line"/>
      <point x="96.50943396226415" y="501.8301886792453" type="line" smooth="yes"/>
      <point x="80.39622641509433" y="501.8301886792453"/>
      <point x="70.39622641509433" y="491.3207547169811"/>
      <point x="67.79245283018868" y="463.6981132075472" type="curve" smooth="yes"/>
      <point x="66.79245283018868" y="449.50943396226415" type="line" smooth="yes"/>
      <point x="64.88679245283019" y="425.37735849056605"/>
      <point x="71.18867924528301" y="414.8679245283019"/>
      <point x="87.30188679245283" y="414.8679245283019" type="curve" smooth="yes"/>
      <point x="157.9433962264151" y="414.8679245283019" type="line"/>
      <point x="118.66037735849056" y="279.0377358490566" type="line"/>
      <point x="37.81132075471698" y="279.0377358490566" type="line" smooth="yes"/>
      <point x="21.69811320754717" y="279.0377358490566"/>
      <point x="11.69811320754717" y="268.52830188679246"/>
      <point x="9.09433962264151" y="240.9056603773585" type="curve" smooth="yes"/>
      <point x="8.09433962264151" y="226.71698113207546" type="line" smooth="yes"/>
      <point x="6.188679245283019" y="202.58490566037736"/>
      <point x="12.49056603773585" y="192.0754716981132"/>
      <point x="28.60377358490566" y="192.0754716981132" type="curve" smooth="yes"/>
      <point x="93.24528301886792" y="192.0754716981132" type="line"/>
      <point x="44.45283018867924" y="20.81132075471698" type="line" smooth="yes"/>
      <point x="40.15094339622642" y="4.60377358490566"/>
      <point x="50.35849056603774" y="-2.0"/>
    </contour>
    <contour>
      <point x="205.1320754716981" y="279.0377358490566" type="line"/>
      <point x="244.41509433962264" y="414.8679245283019" type="line"/>
      <point x="355.1698113207547" y="414.8679245283019" type="line"/>
      <point x="315.8867924528302" y="279.0377358490566" type="line"/>
    </contour>
  </outline>
</glyph>
<glyph name="dollar" format="2">
  <advance width="500.0"/>
  <unicode hex="0024"/>
  <outline>
    <contour>
      <point x="213.41509433962264" y="-70.11320754716981" type="curve"/>
      <point x="219.24528301886792" y="-70.11320754716981" type="line"/>
      <point x="231.9433962264151" y="-70.11320754716981"/>
      <point x="240.24528301886792" y="-64.11320754716981"/>
      <point x="241.24528301886792" y="-50.113207547169814" type="curve" smooth="yes"/>
      <point x="245.54716981132074" y="-4.60377358490566" type="line"/>
      <point x="364.3018867924528" y="6.39622641509434"/>
      <point x="458.54716981132077" y="81.75471698113208"/>
      <point x="458.54716981132077" y="219.73584905660377" type="curve" smooth="yes"/>
      <point x="458.54716981132077" y="333.1320754716981"/>
      <point x="367.9433962264151" y="373.8301886792453"/>
      <point x="289.1509433962264" y="408.1320754716981" type="curve"/>
      <point x="311.4339622641509" y="613.6981132075472" type="line"/>
      <point x="358.50943396226415" y="612.6981132075472"/>
      <point x="386.6981132075472" y="597.811320754717"/>
      <point x="405.79245283018867" y="588.3207547169811" type="curve" smooth="yes"/>
      <point x="415.39622641509436" y="583.622641509434"/>
      <point x="421.6981132075472" y="579.622641509434"/>
      <point x="426.6981132075472" y="579.622641509434" type="curve" smooth="yes"/>
      <point x="440.92452830188677" y="579.622641509434"/>
      <point x="472.54716981132077" y="627.2641509433962"/>
      <point x="472.54716981132077" y="644.188679245283" type="curve" smooth="yes"/>
      <point x="472.54716981132077" y="653.7924528301887"/>
      <point x="465.64150943396226" y="663.0"/>
      <point x="454.1320754716981" y="671.9056603773585" type="curve" smooth="yes"/>
      <point x="426.33962264150944" y="693.3962264150944"/>
      <point x="367.77358490566036" y="705.0"/>
      <point x="321.24528301886795" y="706.3018867924528" type="curve"/>
      <point x="322.24528301886795" y="717.2075471698113"/>
      <point x="324.54716981132077" y="735.0188679245283"/>
      <point x="324.54716981132077" y="738.0188679245283" type="curve" smooth="yes"/>
      <point x="324.54716981132077" y="751.3207547169811"/>
      <point x="320.54716981132077" y="758.0188679245283"/>
      <point x="307.9433962264151" y="758.0188679245283" type="curve"/>
      <point x="301.41509433962267" y="758.0188679245283" type="line" smooth="yes"/>
      <point x="286.0188679245283" y="758.0188679245283"/>
      <point x="281.1132075471698" y="752.0188679245283"/>
      <point x="279.41509433962267" y="738.0188679245283" type="curve" smooth="yes"/>
      <point x="275.41509433962267" y="704.6037735849056" type="line"/>
      <point x="154.73584905660377" y="692.2075471698113"/>
      <point x="64.67924528301887" y="617.6415094339623"/>
      <point x="64.67924528301887" y="493.47169811320754" type="curve" smooth="yes"/>
      <point x="64.67924528301887" y="381.1509433962264"/>
      <point x="154.60377358490567" y="346.0377358490566"/>
      <point x="234.20754716981133" y="313.4339622641509" type="curve"/>
      <point x="209.9245283018868" y="90.18867924528301" type="line"/>
      <point x="144.43396226415095" y="90.88679245283019"/>
      <point x="100.43396226415095" y="113.69811320754717"/>
      <point x="76.22641509433963" y="127.50943396226415" type="curve" smooth="yes"/>
      <point x="65.62264150943396" y="133.41509433962264"/>
      <point x="59.0188679245283" y="139.11320754716982"/>
      <point x="55.113207547169814" y="139.11320754716982" type="curve" smooth="yes"/>
      <point x="46.905660377358494" y="139.11320754716982"/>
      <point x="36.094339622641506" y="129.11320754716982"/>
      <point x="36.094339622641506" y="60.22641509433962" type="curve" smooth="yes"/>
      <point x="36.094339622641506" y="49.716981132075475"/>
      <point x="42.0" y="40.509433962264154"/>
      <point x="50.509433962264154" y="32.60377358490566" type="curve" smooth="yes"/>
      <point x="80.71698113207547" y="3.9056603773584904"/>
      <point x="156.69811320754718" y="-4.30188679245283"/>
      <point x="200.41509433962264" y="-6.30188679245283" type="curve"/>
      <point x="199.11320754716982" y="-20.90566037735849"/>
      <point x="196.11320754716982" y="-47.20754716981132"/>
      <point x="196.11320754716982" y="-50.113207547169814" type="curve" smooth="yes"/>
      <point x="196.11320754716982" y="-64.11320754716981"/>
      <point x="199.11320754716982" y="-70.11320754716981"/>
    </contour>
    <contour>
      <point x="255.35849056603774" y="91.11320754716981" type="curve"/>
      <point x="277.0377358490566" y="293.50943396226415" type="line"/>
      <point x="318.2830188679245" y="272.92452830188677"/>
      <point x="350.0377358490566" y="248.64150943396226"/>
      <point x="350.0377358490566" y="202.30188679245282" type="curve" smooth="yes"/>
      <point x="350.0377358490566" y="143.0566037735849"/>
      <point x="309.188679245283" y="102.50943396226415"/>
    </contour>
    <contour>
      <point x="246.0188679245283" y="426.75471698113205" type="line"/>
      <point x="204.0566037735849" y="446.24528301886795"/>
      <point x="172.49056603773585" y="468.0377358490566"/>
      <point x="172.49056603773585" y="508.60377358490564" type="curve" smooth="yes"/>
      <point x="172.49056603773585" y="562.6037735849056"/>
      <point x="207.41509433962264" y="598.7924528301887"/>
      <point x="265.3018867924528" y="610.0943396226415" type="curve"/>
    </contour>
  </outline>
</glyph>
<glyph name="percent" format="2">
  <advance width="765.0"/>
  <unicode hex="0025"/>
  <outline>
    <contour>
      <point x="199.0943396226415" y="378.2830188679245" type="curve" smooth="yes"/>
      <point x="299.0188679245283" y="378.2830188679245"/>
      <point x="359.0188679245283" y="452.77358490566036"/>
      <point x="359.0188679245283" y="573.6981132075472" type="curve" smooth="yes"/>
      <point x="359.0188679245283" y="682.6037735849056"/>
      <point x="292.50943396226415" y="706.6037735849056"/>
      <point x="233.39622641509433" y="706.6037735849056" type="curve" smooth="yes"/>
      <point x="165.18867924528303" y="706.6037735849056"/>
      <point x="73.16981132075472" y="672.9056603773585"/>
      <point x="73.16981132075472" y="509.39622641509436" type="curve" smooth="yes"/>
      <point x="73.16981132075472" y="401.58490566037733"/>
      <point x="139.9811320754717" y="378.2830188679245"/>
    </contour>
    <contour>
      <point x="534.2264150943396" y="-6.60377358490566" type="curve" smooth="yes"/>
      <point x="633.8490566037735" y="-6.60377358490566"/>
      <point x="694.4528301886793" y="67.58490566037736"/>
      <point x="694.4528301886793" y="188.20754716981133" type="curve" smooth="yes"/>
      <point x="694.4528301886793" y="297.41509433962267"/>
      <point x="627.6415094339623" y="321.7169811320755"/>
      <point x="568.5283018867924" y="321.7169811320755" type="curve" smooth="yes"/>
      <point x="499.7169811320755" y="321.7169811320755"/>
      <point x="408.60377358490564" y="287.7169811320755"/>
      <point x="408.60377358490564" y="124.20754716981132" type="curve" smooth="yes"/>
      <point x="408.60377358490564" y="16.69811320754717"/>
      <point x="475.1132075471698" y="-6.60377358490566"/>
    </contour>
    <contour>
      <point x="540.1320754716982" y="56.54716981132076" type="curve" smooth="yes"/>
      <point x="495.8679245283019" y="56.54716981132076"/>
      <point x="485.47169811320754" y="89.73584905660377"/>
      <point x="485.47169811320754" y="125.62264150943396" type="curve" smooth="yes"/>
      <point x="485.47169811320754" y="167.9245283018868"/>
      <point x="491.58490566037733" y="258.0566037735849"/>
      <point x="561.622641509434" y="258.0566037735849" type="curve" smooth="yes"/>
      <point x="607.9811320754717" y="258.0566037735849"/>
      <point x="618.377358490566" y="223.0754716981132"/>
      <point x="618.377358490566" y="186.18867924528303" type="curve" smooth="yes"/>
      <point x="618.377358490566" y="131.52830188679246"/>
      <point x="602.5849056603773" y="56.54716981132076"/>
    </contour>
    <contour>
      <point x="205.0" y="441.4339622641509" type="curve" smooth="yes"/>
      <point x="160.43396226415095" y="441.4339622641509"/>
      <point x="150.33962264150944" y="475.22641509433964"/>
      <point x="150.33962264150944" y="511.41509433962267" type="curve" smooth="yes"/>
      <point x="150.33962264150944" y="553.7169811320755"/>
      <point x="156.75471698113208" y="642.9433962264151"/>
      <point x="226.49056603773585" y="642.9433962264151" type="curve" smooth="yes"/>
      <point x="272.8490566037736" y="642.9433962264151"/>
      <point x="283.24528301886795" y="608.2641509433962"/>
      <point x="283.24528301886795" y="571.9811320754717" type="curve" smooth="yes"/>
      <point x="283.24528301886795" y="517.3207547169811"/>
      <point x="268.0566037735849" y="441.4339622641509"/>
    </contour>
    <component base="fraction" xOffset="227.11320754716982"/>
  </outline>
</glyph>
<glyph name="ampersand" format="2">
  <advance width="624.0"/>
  <unicode hex="0026"/>
  <outline>
    <contour>
      <point x="227.75471698113208" y="-6.60377358490566" type="curve" smooth="yes"/>
      <point x="302.2641509433962" y="-6.60377358490566"/>
      <point x="357.8490566037736" y="12.679245283018869"/>
      <point x="399.79245283018867" y="34.79245283018868" type="curve"/>
      <point x="422.79245283018867" y="1.2075471698113207"/>
      <point x="461.9811320754717" y="-6.60377358490566"/>
      <point x="497.20754716981133" y="-6.60377358490566" type="curve" smooth="yes"/>
      <point x="527.3207547169811" y="-6.60377358490566"/>
      <point x="565.6415094339623" y="3.5094339622641506"/>
      <point x="571.2452830188679" y="32.132075471698116" type="curve" smooth="yes"/>
      <point x="574.0566037735849" y="46.886792452830186"/>
      <point x="576.1509433962265" y="63.490566037735846"/>
      <point x="576.1509433962265" y="74.37735849056604" type="curve" smooth="yes"/>
      <point x="576.1509433962265" y="82.67924528301887"/>
      <point x="573.4528301886793" y="84.28301886792453"/>
      <point x="569.5471698113207" y="84.28301886792453" type="curve" smooth="yes"/>
      <point x="563.1509433962265" y="84.28301886792453"/>
      <point x="552.4528301886793" y="77.58490566037736"/>
      <point x="525.566037735849" y="77.58490566037736" type="curve" smooth="yes"/>
      <point x="497.58490566037733" y="77.58490566037736"/>
      <point x="480.0" y="90.28301886792453"/>
      <point x="484.39622641509436" y="135.1320754716981" type="curve" smooth="yes"/>
      <point x="503.8867924528302" y="327.8490566037736" type="line"/>
      <point x="570.0188679245283" y="327.8490566037736" type="line" smooth="yes"/>
      <point x="586.1320754716982" y="327.8490566037736"/>
      <point x="594.0377358490566" y="338.66037735849056"/>
      <point x="596.6415094339623" y="363.8867924528302" type="curve" smooth="yes"/>
      <point x="597.9433962264151" y="377.39622641509436" type="line" smooth="yes"/>
      <point x="600.5471698113207" y="402.62264150943395"/>
      <point x="595.3396226415094" y="413.4339622641509"/>
      <point x="577.1320754716982" y="413.4339622641509" type="curve" smooth="yes"/>
      <point x="513.0943396226415" y="413.4339622641509" type="line"/>
      <point x="521.8867924528302" y="502.5660377358491" type="line" smooth="yes"/>
      <point x="524.188679245283" y="521.5849056603773"/>
      <point x="513.8679245283018" y="531.0"/>
      <point x="483.64150943396226" y="531.0" type="curve" smooth="yes"/>
      <point x="476.1132075471698" y="531.0" type="line" smooth="yes"/>
      <point x="443.77358490566036" y="531.0"/>
      <point x="433.5660377358491" y="523.188679245283"/>
      <point x="429.66037735849056" y="503.2641509433962" type="curve" smooth="yes"/>
      <point x="411.47169811320754" y="413.4339622641509" type="line"/>
      <point x="299.7169811320755" y="413.4339622641509" type="line" smooth="yes"/>
      <point x="218.47169811320754" y="413.4339622641509"/>
      <point x="185.16981132075472" y="464.77358490566036"/>
      <point x="185.16981132075472" y="512.2641509433962" type="curve" smooth="yes"/>
      <point x="185.16981132075472" y="551.9056603773585"/>
      <point x="207.60377358490567" y="621.0188679245283"/>
      <point x="304.79245283018867" y="621.0188679245283" type="curve" smooth="yes"/>
      <point x="336.8679245283019" y="621.0188679245283"/>
      <point x="351.9811320754717" y="614.7169811320755"/>
      <point x="359.77358490566036" y="614.7169811320755" type="curve" smooth="yes"/>
      <point x="371.6792452830189" y="614.7169811320755"/>
      <point x="391.9056603773585" y="650.7169811320755"/>
      <point x="391.9056603773585" y="675.9811320754717" type="curve" smooth="yes"/>
      <point x="391.9056603773585" y="704.3018867924528"/>
      <point x="336.188679245283" y="706.6037735849056"/>
      <point x="304.75471698113205" y="706.6037735849056" type="curve" smooth="yes"/>
      <point x="181.83018867924528" y="706.6037735849056"/>
      <point x="82.84905660377359" y="640.7735849056604"/>
      <point x="82.84905660377359" y="517.5849056603773" type="curve" smooth="yes"/>
      <point x="82.84905660377359" y="455.0943396226415"/>
      <point x="119.13207547169812" y="410.0943396226415"/>
      <point x="168.52830188679246" y="389.79245283018867" type="curve"/>
      <point x="167.83018867924528" y="385.79245283018867" type="line"/>
      <point x="94.58490566037736" y="363.9622641509434"/>
      <point x="24.150943396226417" y="289.1509433962264"/>
      <point x="24.150943396226417" y="175.60377358490567" type="curve" smooth="yes"/>
      <point x="24.150943396226417" y="47.43396226415094"/>
      <point x="125.39622641509433" y="-6.60377358490566"/>
    </contour>
    <contour>
      <point x="249.49056603773585" y="78.98113207547169" type="curve" smooth="yes"/>
      <point x="193.79245283018867" y="78.98113207547169"/>
      <point x="130.8679245283019" y="105.49056603773585"/>
      <point x="130.8679245283019" y="186.71698113207546" type="curve" smooth="yes"/>
      <point x="130.8679245283019" y="291.4339622641509"/>
      <point x="194.50943396226415" y="327.8490566037736"/>
      <point x="285.0" y="327.8490566037736" type="curve" smooth="yes"/>
      <point x="401.2641509433962" y="327.8490566037736" type="line"/>
      <point x="393.47169811320754" y="253.83018867924528"/>
      <point x="380.07547169811323" y="133.8490566037736"/>
      <point x="380.07547169811323" y="112.66037735849056" type="curve"/>
      <point x="342.8490566037736" y="93.66037735849056"/>
      <point x="293.9622641509434" y="78.98113207547169"/>
    </contour>
  </outline>
</glyph>
<glyph name="quotesingle" format="2">
  <advance width="183.0"/>
  <unicode hex="0027"/>
  <outline>
    <contour>
      <point x="109.88679245283019" y="469.58490566037733" type="curve" smooth="yes"/>
      <point x="115.11320754716981" y="469.58490566037733" type="line" smooth="yes"/>
      <point x="130.52830188679246" y="469.58490566037733"/>
      <point x="140.1320754716981" y="475.0943396226415"/>
      <point x="143.03773584905662" y="487.0188679245283" type="curve" smooth="yes"/>
      <point x="185.1320754716981" y="674.0754716981132" type="line" smooth="yes"/>
      <point x="189.73584905660377" y="693.4905660377359"/>
      <point x="175.62264150943398" y="702.0"/>
      <point x="142.39622641509433" y="702.0" type="curve" smooth="yes"/>
      <point x="133.30188679245282" y="702.0" type="line" smooth="yes"/>
      <point x="101.0754716981132" y="702.0"/>
      <point x="84.9622641509434" y="693.0943396226415"/>
      <point x="84.9622641509434" y="676.0754716981132" type="curve" smooth="yes"/>
      <point x="84.9622641509434" y="487.0188679245283" type="line" smooth="yes"/>
      <point x="84.9622641509434" y="474.39622641509436"/>
      <point x="93.77358490566037" y="469.58490566037733"/>
    </contour>
  </outline>
</glyph>
<glyph name="parenleft" format="2">
  <advance width="301.0"/>
  <unicode hex="0028"/>
  <outline>
    <contour>
      <point x="302.33962264150944" y="783.0" type="curve" smooth="yes"/>
      <point x="294.4339622641509" y="783.0"/>
      <point x="285.8301886792453" y="779.3962264150944"/>
      <point x="278.22641509433964" y="771.188679245283" type="curve"/>
      <point x="140.33962264150944" y="639.6981132075472"/>
      <point x="48.79245283018868" y="425.52830188679246"/>
      <point x="48.79245283018868" y="197.20754716981133" type="curve" smooth="yes"/>
      <point x="48.79245283018868" y="37.75471698113208"/>
      <point x="95.66037735849056" y="-103.13207547169812"/>
      <point x="175.52830188679246" y="-198.28301886792454" type="curve" smooth="yes"/>
      <point x="182.52830188679246" y="-206.49056603773585"/>
      <point x="189.83018867924528" y="-210.79245283018867"/>
      <point x="197.73584905660377" y="-210.79245283018867" type="curve" smooth="yes"/>
      <point x="217.8490566037736" y="-210.79245283018867"/>
      <point x="238.0943396226415" y="-187.28301886792454"/>
      <point x="238.0943396226415" y="-173.45283018867926" type="curve" smooth="yes"/>
      <point x="238.0943396226415" y="-168.75471698113208"/>
      <point x="236.39622641509433" y="-163.0566037735849"/>
      <point x="232.30188679245282" y="-157.35849056603774" type="curve" smooth="yes"/>
      <point x="172.22641509433961" y="-59.18867924528302"/>
      <point x="140.35849056603774" y="58.35849056603774"/>
      <point x="140.35849056603774" y="191.39622641509433" type="curve" smooth="yes"/>
      <point x="140.35849056603774" y="397.62264150943395"/>
      <point x="210.39622641509433" y="589.7547169811321"/>
      <point x="327.0943396226415" y="730.2641509433962" type="curve" smooth="yes"/>
      <point x="333.188679245283" y="737.9622641509434"/>
      <point x="336.8867924528302" y="746.9622641509434"/>
      <point x="336.8867924528302" y="753.6603773584906" type="curve" smooth="yes"/>
      <point x="336.8867924528302" y="769.377358490566"/>
      <point x="315.75471698113205" y="783.0"/>
    </contour>
  </outline>
</glyph>
<glyph name="parenright" format="2">
  <advance width="301.0"/>
  <unicode hex="0029"/>
  <outline>
    <contour>
      <point x="101.05660377358491" y="783.6981132075472" type="curve" smooth="yes"/>
      <point x="80.94339622641509" y="783.6981132075472"/>
      <point x="60.39622641509434" y="760.188679245283"/>
      <point x="60.39622641509434" y="746.3584905660377" type="curve" smooth="yes"/>
      <point x="60.39622641509434" y="741.3584905660377"/>
      <point x="62.39622641509434" y="735.9622641509434"/>
      <point x="66.49056603773585" y="730.2641509433962" type="curve" smooth="yes"/>
      <point x="126.77358490566037" y="629.8867924528302"/>
      <point x="158.43396226415095" y="515.1509433962265"/>
      <point x="158.43396226415095" y="381.7169811320755" type="curve" smooth="yes"/>
      <point x="158.43396226415095" y="194.20754716981133"/>
      <point x="98.56603773584905" y="-8.169811320754718"/>
      <point x="-29.79245283018868" y="-161.8490566037736" type="curve" smooth="yes"/>
      <point x="-35.490566037735846" y="-168.45283018867926"/>
      <point x="-38.18867924528302" y="-173.35849056603774"/>
      <point x="-38.18867924528302" y="-179.35849056603774" type="curve" smooth="yes"/>
      <point x="-38.18867924528302" y="-194.37735849056602"/>
      <point x="-18.056603773584907" y="-210.0943396226415"/>
      <point x="-2.547169811320755" y="-210.0943396226415" type="curve" smooth="yes"/>
      <point x="5.3584905660377355" y="-210.0943396226415"/>
      <point x="13.264150943396226" y="-206.49056603773585"/>
      <point x="20.867924528301884" y="-198.28301886792454" type="curve"/>
      <point x="164.39622641509433" y="-58.64150943396227"/>
      <point x="250.30188679245282" y="157.24528301886792"/>
      <point x="250.30188679245282" y="376.60377358490564" type="curve" smooth="yes"/>
      <point x="250.30188679245282" y="535.4528301886793"/>
      <point x="203.1320754716981" y="675.7358490566038"/>
      <point x="123.26415094339623" y="771.188679245283" type="curve" smooth="yes"/>
      <point x="116.26415094339623" y="779.3962264150944"/>
      <point x="108.9622641509434" y="783.6981132075472"/>
    </contour>
  </outline>
</glyph>
<glyph name="asterisk" format="2">
  <advance width="373.0"/>
  <unicode hex="002A"/>
  <outline>
    <contour>
      <point x="112.81132075471699" y="413.0943396226415" type="curve" smooth="yes"/>
      <point x="118.41509433962264" y="413.0943396226415"/>
      <point x="124.32075471698113" y="416.39622641509436"/>
      <point x="131.22641509433961" y="423.9056603773585" type="curve"/>
      <point x="210.39622641509433" y="519.4716981132076" type="line"/>
      <point x="268.77358490566036" y="423.9056603773585" type="line" smooth="yes"/>
      <point x="272.6792452830189" y="416.6981132075472"/>
      <point x="278.58490566037733" y="413.0943396226415"/>
      <point x="285.188679245283" y="413.0943396226415" type="curve" smooth="yes"/>
      <point x="297.0" y="413.0943396226415"/>
      <point x="312.811320754717" y="428.20754716981133"/>
      <point x="312.811320754717" y="438.1132075471698" type="curve" smooth="yes"/>
      <point x="312.811320754717" y="441.7169811320755"/>
      <point x="310.811320754717" y="446.3207547169811"/>
      <point x="308.20754716981133" y="450.92452830188677" type="curve" smooth="yes"/>
      <point x="250.83018867924528" y="543.8867924528302" type="line"/>
      <point x="345.8867924528302" y="573.4716981132076" type="line"/>
      <point x="359.6981132075472" y="577.0754716981132"/>
      <point x="364.3018867924528" y="583.6792452830189"/>
      <point x="364.3018867924528" y="594.7924528301887" type="curve" smooth="yes"/>
      <point x="364.3018867924528" y="610.6037735849056"/>
      <point x="354.0943396226415" y="618.811320754717"/>
      <point x="345.58490566037733" y="618.811320754717" type="curve" smooth="yes"/>
      <point x="342.2830188679245" y="618.811320754717"/>
      <point x="338.9811320754717" y="618.5094339622641"/>
      <point x="335.37735849056605" y="617.5094339622641" type="curve" smooth="yes"/>
      <point x="240.62264150943398" y="587.622641509434" type="line"/>
      <point x="251.0188679245283" y="685.6792452830189" type="line"/>
      <point x="251.0188679245283" y="701.4905660377359"/>
      <point x="247.0188679245283" y="708.6981132075472"/>
      <point x="230.30188679245282" y="708.6981132075472" type="curve" smooth="yes"/>
      <point x="214.18867924528303" y="708.6981132075472"/>
      <point x="206.28301886792454" y="701.7924528301887"/>
      <point x="204.9811320754717" y="685.6792452830189" type="curve" smooth="yes"/>
      <point x="194.58490566037736" y="587.622641509434" type="line"/>
      <point x="105.22641509433963" y="617.5094339622641" type="line" smooth="yes"/>
      <point x="101.62264150943396" y="618.5094339622641"/>
      <point x="98.01886792452831" y="618.811320754717"/>
      <point x="94.71698113207547" y="618.811320754717" type="curve" smooth="yes"/>
      <point x="82.09433962264151" y="618.811320754717"/>
      <point x="71.39622641509433" y="604.8867924528302"/>
      <point x="71.39622641509433" y="589.188679245283" type="curve" smooth="yes"/>
      <point x="71.39622641509433" y="581.9811320754717"/>
      <point x="76.0" y="576.7735849056604"/>
      <point x="85.50943396226415" y="573.4716981132076" type="curve" smooth="yes"/>
      <point x="173.56603773584905" y="543.8867924528302" type="line"/>
      <point x="97.0" y="450.92452830188677" type="line" smooth="yes"/>
      <point x="91.39622641509433" y="444.62264150943395"/>
      <point x="89.49056603773585" y="438.7169811320755"/>
      <point x="89.49056603773585" y="434.1132075471698" type="curve" smooth="yes"/>
      <point x="89.49056603773585" y="424.9056603773585"/>
      <point x="103.0" y="413.0943396226415"/>
    </contour>
  </outline>
</glyph>
<glyph name="plus" format="2">
  <advance width="560.0"/>
  <unicode hex="002B"/>
  <outline>
    <contour>
      <point x="247.69811320754718" y="-1.3962264150943398" type="curve" smooth="yes"/>
      <point x="256.811320754717" y="-1.3962264150943398" type="line" smooth="yes"/>
      <point x="280.64150943396226" y="-1.3962264150943398"/>
      <point x="293.8490566037736" y="5.509433962264151"/>
      <point x="295.1509433962264" y="21.62264150943396" type="curve" smooth="yes"/>
      <point x="313.24528301886795" y="192.47169811320754" type="line"/>
      <point x="481.9056603773585" y="192.47169811320754" type="line" smooth="yes"/>
      <point x="495.3207547169811" y="192.47169811320754"/>
      <point x="507.41509433962267" y="200.28301886792454"/>
      <point x="509.0188679245283" y="225.30188679245282" type="curve" smooth="yes"/>
      <point x="510.3207547169811" y="242.11320754716982" type="line" smooth="yes"/>
      <point x="511.92452830188677" y="264.52830188679246"/>
      <point x="504.52830188679246" y="271.54716981132077"/>
      <point x="491.1132075471698" y="271.54716981132077" type="curve" smooth="yes"/>
      <point x="321.45283018867923" y="271.54716981132077" type="line"/>
      <point x="339.54716981132077" y="441.0" type="line" smooth="yes"/>
      <point x="341.54716981132077" y="459.1132075471698"/>
      <point x="331.64150943396226" y="466.0188679245283"/>
      <point x="305.811320754717" y="466.0188679245283" type="curve" smooth="yes"/>
      <point x="296.6981132075472" y="466.0188679245283" type="line" smooth="yes"/>
      <point x="269.37735849056605" y="466.0188679245283"/>
      <point x="259.66037735849056" y="459.1132075471698"/>
      <point x="258.35849056603774" y="443.0" type="curve" smooth="yes"/>
      <point x="240.26415094339623" y="271.54716981132077" type="line"/>
      <point x="71.0" y="271.54716981132077" type="line" smooth="yes"/>
      <point x="54.79245283018868" y="271.54716981132077"/>
      <point x="46.886792452830186" y="264.4339622641509"/>
      <point x="44.58490566037736" y="239.9245283018868" type="curve" smooth="yes"/>
      <point x="43.283018867924525" y="224.50943396226415" type="line" smooth="yes"/>
      <point x="40.9811320754717" y="200.88679245283018"/>
      <point x="49.075471698113205" y="192.47169811320754"/>
      <point x="63.18867924528302" y="192.47169811320754" type="curve" smooth="yes"/>
      <point x="232.0566037735849" y="192.47169811320754" type="line"/>
      <point x="214.66037735849056" y="23.62264150943396" type="line" smooth="yes"/>
      <point x="212.66037735849056" y="5.509433962264151"/>
      <point x="221.16981132075472" y="-1.3962264150943398"/>
    </contour>
  </outline>
</glyph>
<glyph name="comma" format="2">
  <advance width="198.0"/>
  <unicode hex="002C"/>
  <outline>
    <contour>
      <point x="26.58490566037736" y="-118.71698113207547" type="curve" smooth="yes"/>
      <point x="63.81132075471698" y="-118.71698113207547"/>
      <point x="153.28301886792454" y="-19.169811320754718"/>
      <point x="161.66037735849056" y="90.26415094339623" type="curve"/>
      <point x="161.66037735849056" y="109.0754716981132"/>
      <point x="149.1509433962264" y="121.88679245283019"/>
      <point x="118.9245283018868" y="121.88679245283019" type="curve" smooth="yes"/>
      <point x="106.90566037735849" y="121.88679245283019" type="line" smooth="yes"/>
      <point x="75.37735849056604" y="121.88679245283019"/>
      <point x="59.56603773584906" y="107.67924528301887"/>
      <point x="57.56603773584906" y="86.26415094339623" type="curve" smooth="yes"/>
      <point x="49.35849056603774" y="8.18867924528302"/>
      <point x="29.924528301886795" y="-37.22641509433962"/>
      <point x="2.3584905660377364" y="-82.49056603773585" type="curve" smooth="yes"/>
      <point x="-2.6415094339622636" y="-91.09433962264151"/>
      <point x="-5.641509433962264" y="-96.30188679245283"/>
      <point x="-5.641509433962264" y="-102.90566037735849" type="curve" smooth="yes"/>
      <point x="-5.641509433962264" y="-115.11320754716981"/>
      <point x="13.773584905660378" y="-118.71698113207547"/>
    </contour>
  </outline>
</glyph>
<glyph name="hyphen" format="2">
  <advance width="320.0"/>
  <unicode hex="002D"/>
  <outline>
    <contour>
      <point x="60.471698113207545" y="223.8679245283019" type="curve" smooth="yes"/>
      <point x="252.0188679245283" y="223.8679245283019" type="line" smooth="yes"/>
      <point x="266.1320754716981" y="223.8679245283019"/>
      <point x="277.52830188679246" y="231.67924528301887"/>
      <point x="279.8301886792453" y="258.0943396226415" type="curve" smooth="yes"/>
      <point x="281.1320754716981" y="274.20754716981133" type="line" smooth="yes"/>
      <point x="283.4339622641509" y="297.3207547169811"/>
      <point x="275.33962264150944" y="306.4339622641509"/>
      <point x="261.22641509433964" y="306.4339622641509" type="curve" smooth="yes"/>
      <point x="68.98113207547169" y="306.4339622641509" type="line" smooth="yes"/>
      <point x="52.075471698113205" y="306.4339622641509"/>
      <point x="43.471698113207545" y="298.62264150943395"/>
      <point x="41.16981132075472" y="273.41509433962267" type="curve" smooth="yes"/>
      <point x="39.867924528301884" y="257.3018867924528" type="line" smooth="yes"/>
      <point x="37.56603773584906" y="232.9811320754717"/>
      <point x="45.660377358490564" y="223.8679245283019"/>
    </contour>
  </outline>
</glyph>
<glyph name="period" format="2">
  <advance width="198.0"/>
  <unicode hex="002E"/>
  <outline>
    <contour>
      <point x="95.62264150943396" y="121.88679245283019" type="curve" smooth="yes"/>
      <point x="74.09433962264151" y="121.88679245283019" type="line" smooth="yes"/>
      <point x="41.471698113207545" y="121.88679245283019"/>
      <point x="26.754716981132077" y="112.98113207547169"/>
      <point x="25.452830188679243" y="96.86792452830188" type="curve" smooth="yes"/>
      <point x="17.849056603773583" y="23.0188679245283" type="line"/>
      <point x="17.849056603773583" y="6.60377358490566"/>
      <point x="27.452830188679243" y="-2.0"/>
      <point x="61.283018867924525" y="-2.0" type="curve" smooth="yes"/>
      <point x="82.81132075471699" y="-2.0" type="line" smooth="yes"/>
      <point x="114.73584905660377" y="-2.0"/>
      <point x="130.1509433962264" y="6.90566037735849"/>
      <point x="131.45283018867926" y="23.0188679245283" type="curve" smooth="yes"/>
      <point x="139.0566037735849" y="96.86792452830188" type="line"/>
      <point x="139.0566037735849" y="112.67924528301887"/>
      <point x="128.8490566037736" y="121.88679245283019"/>
    </contour>
  </outline>
</glyph>
<glyph name="slash" format="2">
  <advance width="422.0"/>
  <unicode hex="002F"/>
  <outline>
    <contour>
      <point x="14.39622641509434" y="-79.0" type="curve" smooth="yes"/>
      <point x="23.32075471698113" y="-79.0" type="line" smooth="yes"/>
      <point x="48.0377358490566" y="-79.0"/>
      <point x="59.35849056603774" y="-72.90566037735849"/>
      <point x="67.56603773584905" y="-57.490566037735846" type="curve" smooth="yes"/>
      <point x="441.24528301886795" y="670.9811320754717" type="line" smooth="yes"/>
      <point x="446.1509433962264" y="680.7924528301887"/>
      <point x="448.8490566037736" y="686.8867924528302"/>
      <point x="448.8490566037736" y="690.188679245283" type="curve" smooth="yes"/>
      <point x="448.8490566037736" y="697.3962264150944"/>
      <point x="441.1320754716981" y="702.0"/>
      <point x="415.3018867924528" y="702.0" type="curve" smooth="yes"/>
      <point x="407.188679245283" y="702.0" type="line" smooth="yes"/>
      <point x="383.1698113207547" y="702.0"/>
      <point x="373.33962264150944" y="697.3962264150944"/>
      <point x="366.1320754716981" y="683.9811320754717" type="curve" smooth="yes"/>
      <point x="-11.433962264150942" y="-53.56603773584906" type="line" smooth="yes"/>
      <point x="-14.339622641509433" y="-59.37735849056604"/>
      <point x="-16.547169811320757" y="-64.88679245283019"/>
      <point x="-16.547169811320757" y="-67.18867924528301" type="curve" smooth="yes"/>
      <point x="-16.547169811320757" y="-74.39622641509433"/>
      <point x="-10.132075471698112" y="-79.0"/>
    </contour>
  </outline>
</glyph>
<glyph name="zero" format="2">
  <advance width="535.0"/>
  <unicode hex="0030"/>
  <outline>
    <contour>
      <point x="239.30188679245282" y="-6.60377358490566" type="curve" smooth="yes"/>
      <point x="375.9622641509434" y="-6.60377358490566"/>
      <point x="512.7169811320755" y="132.96226415094338"/>
      <point x="512.7169811320755" y="426.6981132075472" type="curve" smooth="yes"/>
      <point x="512.7169811320755" y="616.1698113207547"/>
      <point x="428.24528301886795" y="706.6037735849056"/>
      <point x="314.3018867924528" y="706.6037735849056" type="curve" smooth="yes"/>
      <point x="177.03773584905662" y="706.6037735849056"/>
      <point x="42.283018867924525" y="566.0377358490566"/>
      <point x="42.283018867924525" y="269.60377358490564" type="curve" smooth="yes"/>
      <point x="42.283018867924525" y="82.83018867924528"/>
      <point x="126.05660377358491" y="-6.60377358490566"/>
    </contour>
    <contour>
      <point x="248.50943396226415" y="78.98113207547169" type="curve" smooth="yes"/>
      <point x="191.9433962264151" y="78.98113207547169"/>
      <point x="146.60377358490567" y="132.47169811320754"/>
      <point x="146.60377358490567" y="265.77358490566036" type="curve" smooth="yes"/>
      <point x="146.60377358490567" y="520.377358490566"/>
      <point x="234.32075471698113" y="621.0188679245283"/>
      <point x="305.0943396226415" y="621.0188679245283" type="curve" smooth="yes"/>
      <point x="361.66037735849056" y="621.0188679245283"/>
      <point x="408.39622641509436" y="565.8301886792453"/>
      <point x="408.39622641509436" y="429.8301886792453" type="curve" smooth="yes"/>
      <point x="408.39622641509436" y="178.32075471698113"/>
      <point x="318.2830188679245" y="78.98113207547169"/>
    </contour>
  </outline>
</glyph>
<glyph name="one" format="2">
  <advance width="535.0"/>
  <unicode hex="0031"/>
  <outline>
    <contour>
      <point x="47.132075471698116" y="0.0" type="curve" smooth="yes"/>
      <point x="447.0943396226415" y="0.0" type="line" smooth="yes"/>
      <point x="462.811320754717" y="0.0"/>
      <point x="472.1132075471698" y="10.81132075471698"/>
      <point x="474.7169811320755" y="36.0377358490566" type="curve" smooth="yes"/>
      <point x="476.0188679245283" y="50.24528301886792" type="line" smooth="yes"/>
      <point x="477.92452830188677" y="72.67924528301887"/>
      <point x="472.0188679245283" y="85.58490566037736"/>
      <point x="455.60377358490564" y="85.58490566037736" type="curve" smooth="yes"/>
      <point x="320.2830188679245" y="85.58490566037736" type="line"/>
      <point x="382.77358490566036" y="679.188679245283" type="line" smooth="yes"/>
      <point x="384.07547169811323" y="690.3018867924528"/>
      <point x="367.0566037735849" y="702.6037735849056"/>
      <point x="350.75471698113205" y="702.6037735849056" type="curve"/>
      <point x="108.9245283018868" y="653.1132075471698" type="line" smooth="yes"/>
      <point x="88.30188679245283" y="648.811320754717"/>
      <point x="85.20754716981132" y="638.4905660377359"/>
      <point x="85.20754716981132" y="616.1698113207547" type="curve" smooth="yes"/>
      <point x="85.20754716981132" y="595.1509433962265"/>
      <point x="89.20754716981132" y="568.1320754716982"/>
      <point x="108.13207547169812" y="570.7358490566038" type="curve" smooth="yes"/>
      <point x="270.9433962264151" y="597.4150943396227" type="line"/>
      <point x="216.96226415094338" y="85.58490566037736" type="line"/>
      <point x="55.64150943396226" y="85.58490566037736" type="line" smooth="yes"/>
      <point x="39.924528301886795" y="85.58490566037736"/>
      <point x="30.62264150943396" y="74.77358490566037"/>
      <point x="28.0188679245283" y="49.54716981132076" type="curve" smooth="yes"/>
      <point x="26.71698113207547" y="35.339622641509436" type="line" smooth="yes"/>
      <point x="24.81132075471698" y="12.90566037735849"/>
      <point x="30.71698113207547" y="0.0"/>
    </contour>
  </outline>
</glyph>
<glyph name="two" format="2">
  <advance width="535.0"/>
  <unicode hex="0032"/>
  <outline>
    <contour>
      <point x="48.18867924528302" y="0.0" type="curve" smooth="yes"/>
      <point x="426.7169811320755" y="0.0" type="line" smooth="yes"/>
      <point x="442.8301886792453" y="0.0"/>
      <point x="450.7358490566038" y="10.81132075471698"/>
      <point x="453.33962264150944" y="36.0377358490566" type="curve" smooth="yes"/>
      <point x="454.64150943396226" y="48.84905660377358" type="line" smooth="yes"/>
      <point x="457.24528301886795" y="74.0754716981132"/>
      <point x="451.33962264150944" y="84.88679245283019"/>
      <point x="435.22641509433964" y="84.88679245283019" type="curve" smooth="yes"/>
      <point x="162.0188679245283" y="84.88679245283019" type="line"/>
      <point x="403.1320754716981" y="349.47169811320754" type="line" smooth="yes"/>
      <point x="472.9056603773585" y="427.0566037735849"/>
      <point x="497.7169811320755" y="477.9622641509434"/>
      <point x="497.7169811320755" y="550.2641509433962" type="curve" smooth="yes"/>
      <point x="497.7169811320755" y="641.1698113207547"/>
      <point x="422.50943396226415" y="706.6037735849056"/>
      <point x="298.6981132075472" y="706.6037735849056" type="curve" smooth="yes"/>
      <point x="231.8679245283019" y="706.6037735849056"/>
      <point x="106.77358490566037" y="675.2075471698113"/>
      <point x="106.77358490566037" y="624.9622641509434" type="curve" smooth="yes"/>
      <point x="106.77358490566037" y="605.9433962264151"/>
      <point x="124.98113207547169" y="572.1320754716982"/>
      <point x="140.71698113207546" y="572.1320754716982" type="curve" smooth="yes"/>
      <point x="158.0188679245283" y="572.1320754716982"/>
      <point x="200.79245283018867" y="620.7169811320755"/>
      <point x="285.45283018867923" y="620.7169811320755" type="curve" smooth="yes"/>
      <point x="350.811320754717" y="620.7169811320755"/>
      <point x="391.39622641509436" y="589.0377358490566"/>
      <point x="391.39622641509436" y="535.4528301886793" type="curve" smooth="yes"/>
      <point x="391.39622641509436" y="496.9622641509434"/>
      <point x="370.79245283018867" y="450.77358490566036"/>
      <point x="330.1320754716981" y="406.0188679245283" type="curve" smooth="yes"/>
      <point x="28.07547169811321" y="73.67924528301887" type="line"/>
      <point x="26.07547169811321" y="71.0754716981132"/>
      <point x="25.77358490566038" y="67.16981132075472"/>
      <point x="25.77358490566038" y="61.9622641509434" type="curve" smooth="yes"/>
      <point x="25.77358490566038" y="40.0377358490566"/>
      <point x="36.679245283018865" y="0.0"/>
    </contour>
  </outline>
</glyph>
<glyph name="three" format="2">
  <advance width="535.0"/>
  <unicode hex="0033"/>
  <outline>
    <contour>
      <point x="218.41509433962264" y="-6.60377358490566" type="curve" smooth="yes"/>
      <point x="331.188679245283" y="-6.60377358490566"/>
      <point x="465.3207547169811" y="63.15094339622642"/>
      <point x="465.3207547169811" y="228.9056603773585" type="curve" smooth="yes"/>
      <point x="465.3207547169811" y="312.8679245283019"/>
      <point x="418.2641509433962" y="367.1698113207547"/>
      <point x="360.33962264150944" y="385.79245283018867" type="curve"/>
      <point x="361.0377358490566" y="389.79245283018867" type="line"/>
      <point x="425.33962264150944" y="414.39622641509436"/>
      <point x="476.62264150943395" y="470.811320754717"/>
      <point x="476.62264150943395" y="554.0" type="curve" smooth="yes"/>
      <point x="476.62264150943395" y="653.8867924528302"/>
      <point x="403.52830188679246" y="706.6037735849056"/>
      <point x="291.41509433962267" y="706.6037735849056" type="curve" smooth="yes"/>
      <point x="217.9433962264151" y="706.6037735849056"/>
      <point x="101.28301886792453" y="682.6037735849056"/>
      <point x="101.28301886792453" y="645.9622641509434" type="curve" smooth="yes"/>
      <point x="101.28301886792453" y="626.3396226415094"/>
      <point x="120.09433962264151" y="588.3207547169811"/>
      <point x="133.50943396226415" y="588.3207547169811" type="curve" smooth="yes"/>
      <point x="150.81132075471697" y="588.3207547169811"/>
      <point x="186.49056603773585" y="620.7169811320755"/>
      <point x="272.9622641509434" y="620.7169811320755" type="curve" smooth="yes"/>
      <point x="349.188679245283" y="620.7169811320755"/>
      <point x="371.0943396226415" y="579.0566037735849"/>
      <point x="371.0943396226415" y="540.1509433962265" type="curve" smooth="yes"/>
      <point x="371.0943396226415" y="491.52830188679246"/>
      <point x="333.2830188679245" y="412.7358490566038"/>
      <point x="234.35849056603774" y="412.7358490566038" type="curve" smooth="yes"/>
      <point x="209.16981132075472" y="412.7358490566038" type="line" smooth="yes"/>
      <point x="190.96226415094338" y="412.7358490566038"/>
      <point x="183.75471698113208" y="404.0188679245283"/>
      <point x="180.45283018867926" y="377.39622641509436" type="curve" smooth="yes"/>
      <point x="178.45283018867926" y="360.39622641509436" type="line" smooth="yes"/>
      <point x="175.8490566037736" y="337.2641509433962"/>
      <point x="181.45283018867926" y="327.8490566037736"/>
      <point x="199.66037735849056" y="327.8490566037736" type="curve" smooth="yes"/>
      <point x="231.35849056603774" y="327.8490566037736" type="line" smooth="yes"/>
      <point x="311.54716981132077" y="327.8490566037736"/>
      <point x="359.3018867924528" y="301.0377358490566"/>
      <point x="359.3018867924528" y="226.79245283018867" type="curve" smooth="yes"/>
      <point x="359.3018867924528" y="114.69811320754717"/>
      <point x="279.39622641509436" y="78.98113207547169"/>
      <point x="215.0943396226415" y="78.98113207547169" type="curve" smooth="yes"/>
      <point x="125.50943396226415" y="78.98113207547169"/>
      <point x="97.43396226415095" y="109.9622641509434"/>
      <point x="82.13207547169812" y="109.9622641509434" type="curve" smooth="yes"/>
      <point x="69.52830188679245" y="109.9622641509434"/>
      <point x="47.905660377358494" y="80.39622641509433"/>
      <point x="47.905660377358494" y="55.924528301886795" type="curve" smooth="yes"/>
      <point x="47.905660377358494" y="18.245283018867923"/>
      <point x="128.71698113207546" y="-6.60377358490566"/>
    </contour>
  </outline>
</glyph>
<glyph name="four" format="2">
  <advance width="535.0"/>
  <unicode hex="0034"/>
  <outline>
    <contour>
      <point x="342.8679245283019" y="-2.0" type="curve" smooth="yes"/>
      <point x="367.37735849056605" y="-2.0" type="line" smooth="yes"/>
      <point x="392.62264150943395" y="-2.0"/>
      <point x="407.4339622641509" y="6.90566037735849"/>
      <point x="408.7358490566038" y="23.0188679245283" type="curve" smooth="yes"/>
      <point x="422.8301886792453" y="159.45283018867926" type="line"/>
      <point x="483.07547169811323" y="159.45283018867926" type="line" smooth="yes"/>
      <point x="499.188679245283" y="159.45283018867926"/>
      <point x="506.39622641509436" y="168.16981132075472"/>
      <point x="509.6981132075472" y="195.49056603773585" type="curve" smooth="yes"/>
      <point x="511.6981132075472" y="212.49056603773585" type="line" smooth="yes"/>
      <point x="514.3018867924528" y="237.71698113207546"/>
      <point x="508.6981132075472" y="245.03773584905662"/>
      <point x="492.58490566037733" y="245.03773584905662" type="curve" smooth="yes"/>
      <point x="432.0377358490566" y="245.03773584905662" type="line"/>
      <point x="477.1320754716981" y="676.9811320754717" type="line" smooth="yes"/>
      <point x="478.4339622641509" y="692.3962264150944"/>
      <point x="469.41509433962267" y="702.0"/>
      <point x="440.37735849056605" y="702.0" type="curve" smooth="yes"/>
      <point x="421.0566037735849" y="702.0" type="line" smooth="yes"/>
      <point x="402.52830188679246" y="702.0"/>
      <point x="387.1132075471698" y="697.9056603773585"/>
      <point x="377.60377358490564" y="686.4905660377359" type="curve" smooth="yes"/>
      <point x="11.169811320754718" y="234.1320754716981" type="line" smooth="yes"/>
      <point x="9.169811320754718" y="232.1320754716981"/>
      <point x="8.169811320754718" y="224.52830188679246"/>
      <point x="8.169811320754718" y="216.83018867924528" type="curve" smooth="yes"/>
      <point x="8.169811320754718" y="194.81132075471697"/>
      <point x="17.07547169811321" y="159.45283018867926"/>
      <point x="28.88679245283019" y="159.45283018867926" type="curve" smooth="yes"/>
      <point x="320.20754716981133" y="159.45283018867926" type="line"/>
      <point x="306.1132075471698" y="23.0188679245283" type="line"/>
      <point x="306.1132075471698" y="6.2075471698113205"/>
      <point x="314.52830188679246" y="-2.0"/>
    </contour>
    <contour>
      <point x="124.26415094339623" y="245.03773584905662" type="line"/>
      <point x="365.3018867924528" y="550.7735849056604" type="line"/>
      <point x="369.3018867924528" y="549.0754716981132" type="line"/>
      <point x="361.79245283018867" y="517.5283018867924"/>
      <point x="352.79245283018867" y="463.64150943396226"/>
      <point x="347.0943396226415" y="413.9433962264151" type="curve" smooth="yes"/>
      <point x="329.41509433962267" y="245.03773584905662" type="line"/>
    </contour>
  </outline>
</glyph>
<glyph name="five" format="2">
  <advance width="535.0"/>
  <unicode hex="0035"/>
  <outline>
    <contour>
      <point x="196.60377358490567" y="-6.60377358490566" type="curve" smooth="yes"/>
      <point x="315.4339622641509" y="-6.60377358490566"/>
      <point x="466.0377358490566" y="47.320754716981135"/>
      <point x="466.0377358490566" y="245.22641509433961" type="curve" smooth="yes"/>
      <point x="466.0377358490566" y="384.8301886792453"/>
      <point x="354.79245283018867" y="427.4339622641509"/>
      <point x="242.32075471698113" y="427.4339622641509" type="curve" smooth="yes"/>
      <point x="198.16981132075472" y="427.4339622641509" type="line"/>
      <point x="230.1509433962264" y="614.4150943396227" type="line"/>
      <point x="444.62264150943395" y="614.4150943396227" type="line" smooth="yes"/>
      <point x="460.7358490566038" y="614.4150943396227"/>
      <point x="467.9433962264151" y="623.1320754716982"/>
      <point x="471.24528301886795" y="650.4528301886793" type="curve" smooth="yes"/>
      <point x="473.24528301886795" y="667.4528301886793" type="line" smooth="yes"/>
      <point x="475.8490566037736" y="692.6792452830189"/>
      <point x="470.24528301886795" y="700.0"/>
      <point x="454.1320754716981" y="700.0" type="curve" smooth="yes"/>
      <point x="177.37735849056602" y="700.0" type="line" smooth="yes"/>
      <point x="153.66037735849056" y="700.0"/>
      <point x="141.66037735849056" y="690.0943396226415"/>
      <point x="138.0566037735849" y="666.9811320754717" type="curve"/>
      <point x="90.84905660377359" y="375.9622641509434" type="line" smooth="yes"/>
      <point x="86.54716981132076" y="348.54716981132077"/>
      <point x="97.05660377358491" y="341.8490566037736"/>
      <point x="117.56603773584905" y="341.8490566037736" type="curve" smooth="yes"/>
      <point x="209.81132075471697" y="341.8490566037736" type="line" smooth="yes"/>
      <point x="309.9622641509434" y="341.8490566037736"/>
      <point x="360.1132075471698" y="303.2641509433962"/>
      <point x="360.1132075471698" y="232.30188679245282" type="curve" smooth="yes"/>
      <point x="360.1132075471698" y="128.47169811320754"/>
      <point x="296.2641509433962" y="78.98113207547169"/>
      <point x="205.11320754716982" y="78.98113207547169" type="curve" smooth="yes"/>
      <point x="116.49056603773585" y="78.98113207547169"/>
      <point x="77.79245283018868" y="114.79245283018868"/>
      <point x="63.094339622641506" y="114.79245283018868" type="curve" smooth="yes"/>
      <point x="51.39622641509434" y="114.79245283018868"/>
      <point x="34.905660377358494" y="83.71698113207547"/>
      <point x="34.905660377358494" y="52.905660377358494" type="curve" smooth="yes"/>
      <point x="34.905660377358494" y="18.245283018867923"/>
      <point x="112.69811320754717" y="-6.60377358490566"/>
    </contour>
  </outline>
</glyph>
<glyph name="six" format="2">
  <advance width="535.0"/>
  <unicode hex="0036"/>
  <outline>
    <contour>
      <point x="236.60377358490567" y="-5.90566037735849" type="curve" smooth="yes"/>
      <point x="361.9811320754717" y="-5.90566037735849"/>
      <point x="482.24528301886795" y="79.45283018867924"/>
      <point x="482.24528301886795" y="234.1320754716981" type="curve" smooth="yes"/>
      <point x="482.24528301886795" y="351.188679245283"/>
      <point x="398.6792452830189" y="411.9433962264151"/>
      <point x="309.4339622641509" y="411.9433962264151" type="curve" smooth="yes"/>
      <point x="258.0943396226415" y="411.9433962264151"/>
      <point x="217.41509433962264" y="400.2641509433962"/>
      <point x="182.0" y="381.35849056603774" type="curve"/>
      <point x="225.39622641509433" y="487.92452830188677"/>
      <point x="317.39622641509436" y="572.6792452830189"/>
      <point x="445.8301886792453" y="626.5283018867924" type="curve" smooth="yes"/>
      <point x="455.7358490566038" y="630.5283018867924"/>
      <point x="456.64150943396226" y="635.9245283018868"/>
      <point x="456.64150943396226" y="643.7547169811321" type="curve" smooth="yes"/>
      <point x="456.64150943396226" y="661.4716981132076"/>
      <point x="448.7358490566038" y="702.6037735849056"/>
      <point x="425.41509433962267" y="702.6037735849056" type="curve" smooth="yes"/>
      <point x="366.6792452830189" y="702.6037735849056"/>
      <point x="40.9622641509434" y="541.9433962264151"/>
      <point x="40.9622641509434" y="200.62264150943398" type="curve" smooth="yes"/>
      <point x="40.9622641509434" y="62.9622641509434"/>
      <point x="116.54716981132076" y="-5.90566037735849"/>
    </contour>
    <contour>
      <point x="249.60377358490567" y="79.67924528301887" type="curve" smooth="yes"/>
      <point x="197.1320754716981" y="79.67924528301887"/>
      <point x="144.88679245283018" y="105.67924528301887"/>
      <point x="144.88679245283018" y="204.11320754716982" type="curve" smooth="yes"/>
      <point x="144.88679245283018" y="238.58490566037736"/>
      <point x="150.28301886792454" y="267.2830188679245"/>
      <point x="155.67924528301887" y="295.37735849056605" type="curve"/>
      <point x="184.77358490566039" y="310.77358490566036"/>
      <point x="225.33962264150944" y="326.35849056603774"/>
      <point x="270.49056603773585" y="326.35849056603774" type="curve" smooth="yes"/>
      <point x="328.77358490566036" y="326.35849056603774"/>
      <point x="377.3207547169811" y="295.35849056603774"/>
      <point x="377.3207547169811" y="222.0188679245283" type="curve" smooth="yes"/>
      <point x="377.3207547169811" y="126.88679245283019"/>
      <point x="305.79245283018867" y="79.67924528301887"/>
    </contour>
  </outline>
</glyph>
<glyph name="seven" format="2">
  <advance width="535.0"/>
  <unicode hex="0037"/>
  <outline>
    <contour>
      <point x="117.47169811320755" y="-2.0" type="curve" smooth="yes"/>
      <point x="138.52830188679246" y="-2.0" type="line" smooth="yes"/>
      <point x="161.24528301886792" y="-2.0"/>
      <point x="178.35849056603774" y="3.3962264150943398"/>
      <point x="185.26415094339623" y="15.20754716981132" type="curve" smooth="yes"/>
      <point x="533.6792452830189" y="624.4150943396227" type="line" smooth="yes"/>
      <point x="535.9811320754717" y="629.0188679245283"/>
      <point x="537.2830188679245" y="636.8301886792453"/>
      <point x="537.2830188679245" y="644.433962264151" type="curve" smooth="yes"/>
      <point x="537.2830188679245" y="668.0566037735849"/>
      <point x="528.377358490566" y="700.0"/>
      <point x="513.9622641509434" y="700.0" type="curve" smooth="yes"/>
      <point x="124.26415094339623" y="700.0" type="line" smooth="yes"/>
      <point x="108.15094339622641" y="700.0"/>
      <point x="100.94339622641509" y="691.2830188679245"/>
      <point x="97.64150943396227" y="663.9622641509434" type="curve" smooth="yes"/>
      <point x="95.64150943396227" y="646.9622641509434" type="line" smooth="yes"/>
      <point x="93.0377358490566" y="621.7358490566038"/>
      <point x="98.64150943396227" y="614.4150943396227"/>
      <point x="114.75471698113208" y="614.4150943396227" type="curve" smooth="yes"/>
      <point x="415.35849056603774" y="614.4150943396227" type="line"/>
      <point x="77.54716981132076" y="30.41509433962264" type="line" smooth="yes"/>
      <point x="73.24528301886792" y="23.11320754716981"/>
      <point x="71.94339622641509" y="18.50943396226415"/>
      <point x="71.94339622641509" y="14.20754716981132" type="curve" smooth="yes"/>
      <point x="71.94339622641509" y="0.09433962264150941"/>
      <point x="91.0754716981132" y="-2.0"/>
    </contour>
  </outline>
</glyph>
<glyph name="eight" format="2">
  <advance width="535.0"/>
  <unicode hex="0038"/>
  <outline>
    <contour>
      <point x="245.20754716981133" y="-6.60377358490566" type="curve" smooth="yes"/>
      <point x="388.33962264150944" y="-6.60377358490566"/>
      <point x="485.64150943396226" y="83.81132075471697"/>
      <point x="485.64150943396226" y="224.49056603773585" type="curve" smooth="yes"/>
      <point x="485.64150943396226" y="315.188679245283"/>
      <point x="441.75471698113205" y="355.50943396226415"/>
      <point x="386.66037735849056" y="382.20754716981133" type="curve"/>
      <point x="443.8490566037736" y="407.50943396226415"/>
      <point x="497.64150943396226" y="457.0943396226415"/>
      <point x="497.64150943396226" y="549.0943396226415" type="curve" smooth="yes"/>
      <point x="497.64150943396226" y="647.8679245283018"/>
      <point x="421.35849056603774" y="706.6037735849056"/>
      <point x="313.1132075471698" y="706.6037735849056" type="curve" smooth="yes"/>
      <point x="190.0188679245283" y="706.6037735849056"/>
      <point x="99.45283018867924" y="630.1320754716982"/>
      <point x="99.45283018867924" y="510.77358490566036" type="curve" smooth="yes"/>
      <point x="99.45283018867924" y="446.9811320754717"/>
      <point x="126.94339622641509" y="404.79245283018867"/>
      <point x="165.03773584905662" y="378.49056603773585" type="curve"/>
      <point x="77.45283018867924" y="345.0943396226415"/>
      <point x="36.35849056603774" y="264.07547169811323"/>
      <point x="36.35849056603774" y="175.39622641509433" type="curve" smooth="yes"/>
      <point x="36.35849056603774" y="58.943396226415096"/>
      <point x="117.01886792452831" y="-6.60377358490566"/>
    </contour>
    <contour>
      <point x="253.81132075471697" y="78.98113207547169" type="curve" smooth="yes"/>
      <point x="189.73584905660377" y="78.98113207547169"/>
      <point x="142.67924528301887" y="117.47169811320755"/>
      <point x="142.67924528301887" y="189.62264150943398" type="curve" smooth="yes"/>
      <point x="142.67924528301887" y="264.0943396226415"/>
      <point x="179.35849056603774" y="309.37735849056605"/>
      <point x="239.30188679245282" y="342.75471698113205" type="curve"/>
      <point x="311.3018867924528" y="312.75471698113205"/>
      <point x="380.0188679245283" y="293.9433962264151"/>
      <point x="380.0188679245283" y="211.88679245283018" type="curve" smooth="yes"/>
      <point x="380.0188679245283" y="124.26415094339623"/>
      <point x="316.2641509433962" y="78.98113207547169"/>
    </contour>
    <contour>
      <point x="305.79245283018867" y="415.24528301886795" type="curve"/>
      <point x="249.83018867924528" y="436.0377358490566"/>
      <point x="202.47169811320754" y="458.0377358490566"/>
      <point x="202.47169811320754" y="520.7924528301887" type="curve" smooth="yes"/>
      <point x="202.47169811320754" y="590.0377358490566"/>
      <point x="249.64150943396226" y="621.0188679245283"/>
      <point x="302.39622641509436" y="621.0188679245283" type="curve" smooth="yes"/>
      <point x="354.0566037735849" y="621.0188679245283"/>
      <point x="394.92452830188677" y="594.9245283018868"/>
      <point x="394.92452830188677" y="537.4716981132076" type="curve" smooth="yes"/>
      <point x="394.92452830188677" y="480.92452830188677"/>
      <point x="355.8679245283019" y="442.7358490566038"/>
    </contour>
  </outline>
</glyph>
<glyph name="nine" format="2">
  <advance width="535.0"/>
  <unicode hex="0039"/>
  <outline>
    <contour>
      <point x="124.98113207547169" y="-1.9056603773584906" type="curve" smooth="yes"/>
      <point x="183.71698113207546" y="-1.9056603773584906"/>
      <point x="509.4339622641509" y="158.75471698113208"/>
      <point x="509.4339622641509" y="500.07547169811323" type="curve" smooth="yes"/>
      <point x="509.4339622641509" y="637.7358490566038"/>
      <point x="433.8490566037736" y="706.6037735849056"/>
      <point x="313.79245283018867" y="706.6037735849056" type="curve" smooth="yes"/>
      <point x="188.41509433962264" y="706.6037735849056"/>
      <point x="68.15094339622641" y="621.2452830188679"/>
      <point x="68.15094339622641" y="466.5660377358491" type="curve" smooth="yes"/>
      <point x="68.15094339622641" y="349.50943396226415"/>
      <point x="151.71698113207546" y="288.75471698113205"/>
      <point x="240.96226415094338" y="288.75471698113205" type="curve" smooth="yes"/>
      <point x="292.3018867924528" y="288.75471698113205"/>
      <point x="332.9811320754717" y="300.4339622641509"/>
      <point x="368.39622641509436" y="319.33962264150944" type="curve"/>
      <point x="325.0" y="212.77358490566039"/>
      <point x="233.0" y="128.0188679245283"/>
      <point x="104.56603773584905" y="74.16981132075472" type="curve" smooth="yes"/>
      <point x="94.66037735849056" y="70.16981132075472"/>
      <point x="93.75471698113208" y="64.77358490566037"/>
      <point x="93.75471698113208" y="56.943396226415096" type="curve" smooth="yes"/>
      <point x="93.75471698113208" y="39.22641509433962"/>
      <point x="101.66037735849056" y="-1.9056603773584906"/>
    </contour>
    <contour>
      <point x="279.9056603773585" y="374.33962264150944" type="curve" smooth="yes"/>
      <point x="221.62264150943398" y="374.33962264150944"/>
      <point x="173.0754716981132" y="405.33962264150944"/>
      <point x="173.0754716981132" y="478.6792452830189" type="curve" smooth="yes"/>
      <point x="173.0754716981132" y="573.811320754717"/>
      <point x="244.60377358490567" y="621.0188679245283"/>
      <point x="300.79245283018867" y="621.0188679245283" type="curve" smooth="yes"/>
      <point x="353.2641509433962" y="621.0188679245283"/>
      <point x="405.50943396226415" y="595.0188679245283"/>
      <point x="405.50943396226415" y="496.58490566037733" type="curve" smooth="yes"/>
      <point x="405.50943396226415" y="462.1132075471698"/>
      <point x="400.1132075471698" y="433.41509433962267"/>
      <point x="394.7169811320755" y="405.3207547169811" type="curve"/>
      <point x="365.62264150943395" y="389.92452830188677"/>
      <point x="325.0566037735849" y="374.33962264150944"/>
    </contour>
  </outline>
</glyph>
<glyph name="colon" format="2">
  <advance width="198.0"/>
  <unicode hex="003A"/>
  <outline>
    <contour>
      <point x="136.81132075471697" y="525.0" type="curve" smooth="yes"/>
      <point x="115.28301886792453" y="525.0" type="line" smooth="yes"/>
      <point x="82.35849056603773" y="525.0"/>
      <point x="68.24528301886792" y="516.0943396226415"/>
      <point x="66.94339622641509" y="499.9811320754717" type="curve" smooth="yes"/>
      <point x="59.0377358490566" y="426.1320754716981" type="line"/>
      <point x="59.0377358490566" y="410.0188679245283"/>
      <point x="69.54716981132076" y="401.1132075471698"/>
      <point x="102.77358490566037" y="401.1132075471698" type="curve" smooth="yes"/>
      <point x="124.30188679245283" y="401.1132075471698" type="line" smooth="yes"/>
      <point x="156.52830188679246" y="401.1132075471698"/>
      <point x="170.64150943396226" y="410.0188679245283"/>
      <point x="172.64150943396226" y="426.1320754716981" type="curve" smooth="yes"/>
      <point x="180.54716981132074" y="499.9811320754717" type="line"/>
      <point x="180.54716981132074" y="516.0943396226415"/>
      <point x="170.03773584905662" y="525.0"/>
    </contour>
    <contour>
      <point x="94.32075471698113" y="121.88679245283019" type="curve" smooth="yes"/>
      <point x="72.79245283018868" y="121.88679245283019" type="line" smooth="yes"/>
      <point x="39.867924528301884" y="121.88679245283019"/>
      <point x="25.754716981132077" y="112.98113207547169"/>
      <point x="24.452830188679243" y="96.86792452830188" type="curve" smooth="yes"/>
      <point x="16.849056603773583" y="23.0188679245283" type="line"/>
      <point x="16.849056603773583" y="6.90566037735849"/>
      <point x="27.056603773584907" y="-2.0"/>
      <point x="60.283018867924525" y="-2.0" type="curve" smooth="yes"/>
      <point x="81.81132075471699" y="-2.0" type="line" smooth="yes"/>
      <point x="114.0377358490566" y="-2.0"/>
      <point x="128.1509433962264" y="6.90566037735849"/>
      <point x="130.1509433962264" y="23.0188679245283" type="curve" smooth="yes"/>
      <point x="138.0566037735849" y="96.86792452830188" type="line"/>
      <point x="138.0566037735849" y="112.98113207547169"/>
      <point x="127.54716981132076" y="121.88679245283019"/>
    </contour>
  </outline>
</glyph>
<glyph name="semicolon" format="2">
  <advance width="198.0"/>
  <unicode hex="003B"/>
  <outline>
    <contour>
      <point x="142.81132075471697" y="525.0" type="curve" smooth="yes"/>
      <point x="121.28301886792453" y="525.0" type="line" smooth="yes"/>
      <point x="88.35849056603773" y="525.0"/>
      <point x="73.94339622641509" y="516.0943396226415"/>
      <point x="72.94339622641509" y="499.9811320754717" type="curve" smooth="yes"/>
      <point x="65.0377358490566" y="426.1320754716981" type="line"/>
      <point x="65.0377358490566" y="410.0188679245283"/>
      <point x="75.54716981132076" y="401.1132075471698"/>
      <point x="108.77358490566037" y="401.1132075471698" type="curve" smooth="yes"/>
      <point x="130.30188679245282" y="401.1132075471698" type="line" smooth="yes"/>
      <point x="162.52830188679246" y="401.1132075471698"/>
      <point x="176.64150943396226" y="410.0188679245283"/>
      <point x="178.64150943396226" y="426.1320754716981" type="curve" smooth="yes"/>
      <point x="186.54716981132074" y="499.9811320754717" type="line"/>
      <point x="186.54716981132074" y="516.0943396226415"/>
      <point x="176.03773584905662" y="525.0"/>
    </contour>
    <component base="comma" xOffset="-17.20754716981132"/>
  </outline>
</glyph>
<glyph name="less" format="2">
  <advance width="560.0"/>
  <unicode hex="003C"/>
  <outline>
    <contour>
      <point x="472.39622641509436" y="6.716981132075471" type="curve" smooth="yes"/>
      <point x="484.3018867924528" y="6.716981132075471"/>
      <point x="490.3018867924528" y="18.132075471698112"/>
      <point x="492.60377358490564" y="41.735849056603776" type="curve" smooth="yes"/>
      <point x="493.50943396226415" y="51.16981132075472" type="line" smooth="yes"/>
      <point x="496.811320754717" y="79.28301886792453"/>
      <point x="489.60377358490564" y="90.39622641509433"/>
      <point x="474.47169811320754" y="96.50943396226415" type="curve" smooth="yes"/>
      <point x="142.43396226415095" y="231.43396226415095" type="line"/>
      <point x="501.8867924528302" y="364.66037735849056" type="line" smooth="yes"/>
      <point x="519.9056603773585" y="371.5660377358491"/>
      <point x="529.3018867924528" y="382.8867924528302"/>
      <point x="532.3018867924528" y="410.811320754717" type="curve" smooth="yes"/>
      <point x="534.3018867924528" y="427.92452830188677" type="line" smooth="yes"/>
      <point x="536.3018867924528" y="448.64150943396226"/>
      <point x="530.3018867924528" y="458.45283018867923"/>
      <point x="520.0" y="458.45283018867923" type="curve" smooth="yes"/>
      <point x="516.3018867924528" y="458.45283018867923"/>
      <point x="512.3018867924528" y="457.45283018867923"/>
      <point x="508.3018867924528" y="455.75471698113205" type="curve" smooth="yes"/>
      <point x="69.09433962264151" y="278.24528301886795" type="line" smooth="yes"/>
      <point x="53.18867924528302" y="271.9433962264151"/>
      <point x="42.094339622641506" y="263.64150943396226"/>
      <point x="40.094339622641506" y="239.52830188679246" type="curve" smooth="yes"/>
      <point x="38.39622641509434" y="220.9433962264151" type="line" smooth="yes"/>
      <point x="37.094339622641506" y="202.32075471698113"/>
      <point x="45.39622641509434" y="194.0188679245283"/>
      <point x="63.113207547169814" y="185.81132075471697" type="curve" smooth="yes"/>
      <point x="450.9811320754717" y="12.622641509433961" type="line" smooth="yes"/>
      <point x="459.188679245283" y="9.018867924528301"/>
      <point x="466.79245283018867" y="6.716981132075471"/>
    </contour>
  </outline>
</glyph>
<glyph name="equal" format="2">
  <advance width="560.0"/>
  <unicode hex="003D"/>
  <outline>
    <contour>
      <point x="72.18867924528301" y="267.6981132075472" type="curve" smooth="yes"/>
      <point x="488.811320754717" y="267.6981132075472" type="line" smooth="yes"/>
      <point x="502.92452830188677" y="267.6981132075472"/>
      <point x="515.7169811320755" y="275.50943396226415"/>
      <point x="517.3207547169811" y="301.92452830188677" type="curve" smooth="yes"/>
      <point x="518.622641509434" y="319.4339622641509" type="line" smooth="yes"/>
      <point x="520.2264150943396" y="343.24528301886795"/>
      <point x="512.8301886792453" y="350.2641509433962"/>
      <point x="498.7169811320755" y="350.2641509433962" type="curve" smooth="yes"/>
      <point x="80.69811320754717" y="350.2641509433962" type="line" smooth="yes"/>
      <point x="63.79245283018868" y="350.2641509433962"/>
      <point x="55.18867924528302" y="342.45283018867923"/>
      <point x="52.886792452830186" y="317.24528301886795" type="curve" smooth="yes"/>
      <point x="51.58490566037736" y="301.1320754716981" type="line" smooth="yes"/>
      <point x="49.283018867924525" y="276.1132075471698"/>
      <point x="58.075471698113205" y="267.6981132075472"/>
    </contour>
    <contour>
      <point x="54.58490566037736" y="100.26415094339623" type="curve" smooth="yes"/>
      <point x="471.20754716981133" y="100.26415094339623" type="line" smooth="yes"/>
      <point x="485.3207547169811" y="100.26415094339623"/>
      <point x="498.1132075471698" y="108.0754716981132"/>
      <point x="499.7169811320755" y="134.49056603773585" type="curve" smooth="yes"/>
      <point x="501.0188679245283" y="152.0" type="line" smooth="yes"/>
      <point x="502.62264150943395" y="175.81132075471697"/>
      <point x="495.22641509433964" y="182.83018867924528"/>
      <point x="481.1132075471698" y="182.83018867924528" type="curve" smooth="yes"/>
      <point x="63.094339622641506" y="182.83018867924528" type="line" smooth="yes"/>
      <point x="46.18867924528302" y="182.83018867924528"/>
      <point x="37.58490566037736" y="175.0188679245283"/>
      <point x="35.283018867924525" y="149.81132075471697" type="curve" smooth="yes"/>
      <point x="33.9811320754717" y="133.69811320754718" type="line" smooth="yes"/>
      <point x="31.67924528301887" y="108.67924528301887"/>
      <point x="40.471698113207545" y="100.26415094339623"/>
    </contour>
  </outline>
</glyph>
<glyph name="greater" format="2">
  <advance width="560.0"/>
  <unicode hex="003E"/>
  <outline>
    <contour>
      <point x="40.094339622641506" y="7.716981132075471" type="curve" smooth="yes"/>
      <point x="45.39622641509434" y="7.716981132075471"/>
      <point x="52.698113207547166" y="9.716981132075471"/>
      <point x="59.905660377358494" y="12.320754716981131" type="curve" smooth="yes"/>
      <point x="486.188679245283" y="185.71698113207546" type="line" smooth="yes"/>
      <point x="507.188679245283" y="194.71698113207546"/>
      <point x="515.0" y="204.0188679245283"/>
      <point x="516.6981132075472" y="229.22641509433961" type="curve" smooth="yes"/>
      <point x="517.6981132075472" y="242.24528301886792" type="line" smooth="yes"/>
      <point x="519.3962264150944" y="262.24528301886795"/>
      <point x="511.0943396226415" y="270.8490566037736"/>
      <point x="495.79245283018867" y="277.8490566037736" type="curve" smooth="yes"/>
      <point x="112.39622641509433" y="448.75471698113205" type="line" smooth="yes"/>
      <point x="103.39622641509433" y="452.75471698113205"/>
      <point x="90.39622641509433" y="457.75471698113205"/>
      <point x="84.79245283018868" y="457.75471698113205" type="curve" smooth="yes"/>
      <point x="68.88679245283019" y="457.75471698113205"/>
      <point x="61.9811320754717" y="444.4339622641509"/>
      <point x="61.9811320754717" y="409.7169811320755" type="curve" smooth="yes"/>
      <point x="61.9811320754717" y="386.188679245283"/>
      <point x="65.88679245283019" y="371.35849056603774"/>
      <point x="91.18867924528301" y="361.35849056603774" type="curve" smooth="yes"/>
      <point x="407.0566037735849" y="233.73584905660377" type="line"/>
      <point x="53.39622641509434" y="100.50943396226415" type="line" smooth="yes"/>
      <point x="28.28301886792453" y="91.20754716981132"/>
      <point x="22.88679245283019" y="75.56603773584905"/>
      <point x="22.88679245283019" y="41.35849056603774" type="curve" smooth="yes"/>
      <point x="22.88679245283019" y="20.433962264150942"/>
      <point x="26.18867924528302" y="7.716981132075471"/>
    </contour>
  </outline>
</glyph>
<glyph name="question" format="2">
  <advance width="445.0"/>
  <unicode hex="003F"/>
  <outline>
    <contour>
      <point x="162.39622641509433" y="208.03773584905662" type="curve" smooth="yes"/>
      <point x="179.81132075471697" y="208.03773584905662" type="line" smooth="yes"/>
      <point x="205.83018867924528" y="208.03773584905662"/>
      <point x="216.33962264150944" y="214.73584905660377"/>
      <point x="221.1509433962264" y="230.1509433962264" type="curve" smooth="yes"/>
      <point x="233.1509433962264" y="278.1320754716981"/>
      <point x="274.64150943396226" y="315.50943396226415"/>
      <point x="319.1320754716981" y="354.0943396226415" type="curve" smooth="yes"/>
      <point x="381.22641509433964" y="407.77358490566036"/>
      <point x="448.3207547169811" y="463.9622641509434"/>
      <point x="448.3207547169811" y="554.7924528301887" type="curve" smooth="yes"/>
      <point x="448.3207547169811" y="641.3207547169811"/>
      <point x="381.3018867924528" y="706.6037735849056"/>
      <point x="257.0" y="706.6037735849056" type="curve" smooth="yes"/>
      <point x="180.69811320754718" y="706.6037735849056"/>
      <point x="73.26415094339623" y="682.9056603773585"/>
      <point x="73.26415094339623" y="640.3584905660377" type="curve" smooth="yes"/>
      <point x="73.26415094339623" y="622.2452830188679"/>
      <point x="92.88679245283019" y="582.0"/>
      <point x="108.01886792452831" y="582.0" type="curve" smooth="yes"/>
      <point x="122.71698113207547" y="582.0"/>
      <point x="170.60377358490567" y="615.0943396226415"/>
      <point x="232.0943396226415" y="615.0943396226415" type="curve" smooth="yes"/>
      <point x="300.0377358490566" y="615.0943396226415"/>
      <point x="333.60377358490564" y="589.4150943396227"/>
      <point x="333.60377358490564" y="538.4716981132076" type="curve" smooth="yes"/>
      <point x="333.60377358490564" y="485.811320754717"/>
      <point x="288.1132075471698" y="445.62264150943395"/>
      <point x="229.8490566037736" y="392.75471698113205" type="curve" smooth="yes"/>
      <point x="173.77358490566039" y="341.47169811320754"/>
      <point x="128.96226415094338" y="281.39622641509436"/>
      <point x="128.96226415094338" y="231.45283018867926" type="curve" smooth="yes"/>
      <point x="128.96226415094338" y="216.03773584905662"/>
      <point x="137.26415094339623" y="208.03773584905662"/>
    </contour>
    <contour>
      <point x="138.28301886792454" y="-2.0" type="curve" smooth="yes"/>
      <point x="159.81132075471697" y="-2.0" type="line" smooth="yes"/>
      <point x="190.33962264150944" y="-2.0"/>
      <point x="207.1509433962264" y="6.90566037735849"/>
      <point x="209.1509433962264" y="23.0188679245283" type="curve" smooth="yes"/>
      <point x="216.75471698113208" y="96.86792452830188" type="line"/>
      <point x="216.75471698113208" y="112.98113207547169"/>
      <point x="206.54716981132074" y="121.88679245283019"/>
      <point x="173.32075471698113" y="121.88679245283019" type="curve" smooth="yes"/>
      <point x="151.79245283018867" y="121.88679245283019" type="line" smooth="yes"/>
      <point x="119.56603773584905" y="121.88679245283019"/>
      <point x="104.45283018867924" y="112.98113207547169"/>
      <point x="103.15094339622641" y="96.86792452830188" type="curve" smooth="yes"/>
      <point x="95.54716981132076" y="23.0188679245283" type="line"/>
      <point x="95.54716981132076" y="6.60377358490566"/>
      <point x="104.45283018867924" y="-2.0"/>
    </contour>
  </outline>
</glyph>
<glyph name="at" format="2">
  <advance width="974.0"/>
  <unicode hex="0040"/>
  <outline>
    <contour>
      <point x="410.0" y="-125.09433962264151" type="curve" smooth="yes"/>
      <point x="466.7358490566038" y="-125.09433962264151"/>
      <point x="556.0943396226415" y="-109.32075471698113"/>
      <point x="562.6981132075472" y="-80.18867924528301" type="curve" smooth="yes"/>
      <point x="565.6981132075472" y="-68.79245283018868"/>
      <point x="566.3962264150944" y="-58.9811320754717"/>
      <point x="566.3962264150944" y="-53.490566037735846" type="curve" smooth="yes"/>
      <point x="566.3962264150944" y="-48.679245283018865"/>
      <point x="565.0943396226415" y="-45.679245283018865"/>
      <point x="561.7924528301887" y="-45.679245283018865" type="curve" smooth="yes"/>
      <point x="548.7924528301887" y="-45.679245283018865"/>
      <point x="502.41509433962267" y="-78.0754716981132"/>
      <point x="410.0" y="-78.0754716981132" type="curve" smooth="yes"/>
      <point x="249.81132075471697" y="-78.0754716981132"/>
      <point x="141.0188679245283" y="49.716981132075475"/>
      <point x="141.0188679245283" y="237.9056603773585" type="curve" smooth="yes"/>
      <point x="141.0188679245283" y="474.0943396226415"/>
      <point x="313.811320754717" y="658.8867924528302"/>
      <point x="534.0" y="658.8867924528302" type="curve" smooth="yes"/>
      <point x="699.188679245283" y="658.8867924528302"/>
      <point x="809.9811320754717" y="548.0943396226415"/>
      <point x="809.9811320754717" y="380.9056603773585" type="curve" smooth="yes"/>
      <point x="809.9811320754717" y="240.1320754716981"/>
      <point x="744.0" y="117.26415094339623"/>
      <point x="671.2075471698113" y="117.26415094339623" type="curve" smooth="yes"/>
      <point x="656.9811320754717" y="117.26415094339623"/>
      <point x="632.7169811320755" y="120.88679245283019"/>
      <point x="632.7169811320755" y="157.45283018867926" type="curve" smooth="yes"/>
      <point x="632.7169811320755" y="179.64150943396226"/>
      <point x="665.1132075471698" y="478.2830188679245"/>
      <point x="665.1132075471698" y="479.79245283018867" type="curve"/>
      <point x="665.1132075471698" y="493.6981132075472"/>
      <point x="657.0" y="502.3018867924528"/>
      <point x="635.566037735849" y="502.3018867924528" type="curve" smooth="yes"/>
      <point x="627.7547169811321" y="502.3018867924528" type="line" smooth="yes"/>
      <point x="599.1320754716982" y="502.3018867924528"/>
      <point x="597.4150943396227" y="488.20754716981133"/>
      <point x="587.622641509434" y="459.50943396226415" type="curve"/>
      <point x="569.9245283018868" y="477.20754716981133"/>
      <point x="532.2264150943396" y="505.9056603773585"/>
      <point x="479.33962264150944" y="505.9056603773585" type="curve" smooth="yes"/>
      <point x="357.07547169811323" y="505.9056603773585"/>
      <point x="276.188679245283" y="395.1132075471698"/>
      <point x="276.188679245283" y="236.9056603773585" type="curve" smooth="yes"/>
      <point x="276.188679245283" y="98.66037735849056"/>
      <point x="353.92452830188677" y="55.20754716981132"/>
      <point x="418.1698113207547" y="55.20754716981132" type="curve" smooth="yes"/>
      <point x="469.5660377358491" y="55.20754716981132"/>
      <point x="516.1509433962265" y="81.50943396226415"/>
      <point x="547.2264150943396" y="138.75471698113208" type="curve"/>
      <point x="551.8490566037735" y="92.39622641509433"/>
      <point x="584.9433962264151" y="55.20754716981132"/>
      <point x="650.0566037735849" y="55.20754716981132" type="curve" smooth="yes"/>
      <point x="776.1698113207547" y="55.20754716981132"/>
      <point x="867.0" y="199.20754716981133"/>
      <point x="867.0" y="380.9056603773585" type="curve" smooth="yes"/>
      <point x="867.0" y="576.9056603773585"/>
      <point x="735.0" y="705.9056603773585"/>
      <point x="534.0" y="705.9056603773585" type="curve" smooth="yes"/>
      <point x="281.0" y="705.9056603773585"/>
      <point x="84.0" y="500.9056603773585"/>
      <point x="84.0" y="237.9056603773585" type="curve" smooth="yes"/>
      <point x="84.0" y="21.90566037735849"/>
      <point x="216.0" y="-125.09433962264151"/>
    </contour>
    <contour>
      <point x="443.52830188679246" y="128.28301886792454" type="curve" smooth="yes"/>
      <point x="398.54716981132077" y="128.28301886792454"/>
      <point x="364.8867924528302" y="158.28301886792454"/>
      <point x="364.8867924528302" y="242.81132075471697" type="curve" smooth="yes"/>
      <point x="364.8867924528302" y="345.62264150943395"/>
      <point x="395.0943396226415" y="433.0377358490566"/>
      <point x="492.2830188679245" y="433.0377358490566" type="curve" smooth="yes"/>
      <point x="529.9433962264151" y="433.0377358490566"/>
      <point x="556.7169811320755" y="416.0566037735849"/>
      <point x="572.811320754717" y="402.35849056603774" type="curve"/>
      <point x="564.3018867924528" y="368.188679245283"/>
      <point x="557.6037735849056" y="294.92452830188677"/>
      <point x="553.2075471698113" y="241.20754716981133" type="curve"/>
      <point x="522.9433962264151" y="156.56603773584905"/>
      <point x="478.20754716981133" y="128.28301886792454"/>
    </contour>
  </outline>
</glyph>
<glyph name="A" format="2">
  <advance width="613.0"/>
  <unicode hex="0041"/>
  <anchor x="279.0" y="0.0" name="bottom"/>
  <anchor x="556.7169811320755" y="0.0" name="ogonek"/>
  <anchor x="352.0" y="700.0" name="top"/>
  <outline>
    <contour>
      <point x="29.50943396226415" y="-2.0" type="curve" smooth="yes"/>
      <point x="45.075471698113205" y="-2.0" type="line" smooth="yes"/>
      <point x="66.28301886792453" y="-2.0"/>
      <point x="82.58490566037736" y="2.6037735849056602"/>
      <point x="88.18867924528301" y="15.50943396226415" type="curve" smooth="yes"/>
      <point x="156.45283018867926" y="166.83018867924528" type="line"/>
      <point x="431.4339622641509" y="166.83018867924528" type="line"/>
      <point x="469.50943396226415" y="15.50943396226415" type="line" smooth="yes"/>
      <point x="472.811320754717" y="2.30188679245283"/>
      <point x="490.0188679245283" y="-2.0"/>
      <point x="513.0377358490566" y="-2.0" type="curve" smooth="yes"/>
      <point x="531.9056603773585" y="-2.0" type="line" smooth="yes"/>
      <point x="566.2075471698113" y="-2.0"/>
      <point x="578.9245283018868" y="7.0"/>
      <point x="578.9245283018868" y="18.90566037735849" type="curve" smooth="yes"/>
      <point x="578.9245283018868" y="21.90566037735849"/>
      <point x="578.3207547169811" y="27.32075471698113"/>
      <point x="577.3207547169811" y="31.0188679245283" type="curve" smooth="yes"/>
      <point x="414.1509433962264" y="684.4905660377359" type="line" smooth="yes"/>
      <point x="410.8490566037736" y="697.6981132075472"/>
      <point x="393.0377358490566" y="702.0"/>
      <point x="370.3207547169811" y="702.0" type="curve" smooth="yes"/>
      <point x="334.37735849056605" y="702.0" type="line" smooth="yes"/>
      <point x="310.9622641509434" y="702.0"/>
      <point x="293.54716981132077" y="697.6981132075472"/>
      <point x="287.9433962264151" y="684.4905660377359" type="curve" smooth="yes"/>
      <point x="-11.320754716981131" y="31.71698113207547" type="line" smooth="yes"/>
      <point x="-14.622641509433961" y="25.11320754716981"/>
      <point x="-16.62264150943396" y="19.81132075471698"/>
      <point x="-16.62264150943396" y="15.20754716981132" type="curve" smooth="yes"/>
      <point x="-16.62264150943396" y="3.6037735849056602"/>
      <point x="-1.8113207547169812" y="-2.0"/>
    </contour>
    <contour>
      <point x="198.49056603773585" y="259.7358490566038" type="line"/>
      <point x="317.07547169811323" y="521.5094339622641" type="line" smooth="yes"/>
      <point x="325.37735849056605" y="540.1132075471698"/>
      <point x="332.37735849056605" y="561.7169811320755"/>
      <point x="338.37735849056605" y="581.3207547169811" type="curve"/>
      <point x="340.9811320754717" y="581.3207547169811" type="line"/>
      <point x="341.2830188679245" y="561.7169811320755"/>
      <point x="342.58490566037733" y="541.1132075471698"/>
      <point x="347.58490566037733" y="521.5094339622641" type="curve" smooth="yes"/>
      <point x="409.1132075471698" y="259.7358490566038" type="line"/>
    </contour>
  </outline>
</glyph>
<glyph name="B" format="2">
  <advance width="593.0"/>
  <unicode hex="0042"/>
  <anchor x="270.0" y="0.0" name="bottom"/>
  <anchor x="343.0" y="700.0" name="top"/>
  <outline>
    <contour>
      <point x="85.69811320754717" y="0.0" type="curve" smooth="yes"/>
      <point x="273.2641509433962" y="0.0" type="line" smooth="yes"/>
      <point x="452.5660377358491" y="0.0"/>
      <point x="555.0377358490566" y="70.9245283018868"/>
      <point x="555.0377358490566" y="219.30188679245282" type="curve" smooth="yes"/>
      <point x="555.0377358490566" y="322.1132075471698"/>
      <point x="452.49056603773585" y="362.47169811320754"/>
      <point x="430.45283018867923" y="367.0" type="curve"/>
      <point x="431.1509433962264" y="371.0" type="line"/>
      <point x="500.0566037735849" y="392.3207547169811"/>
      <point x="559.6415094339623" y="458.39622641509436"/>
      <point x="559.6415094339623" y="544.6037735849056" type="curve" smooth="yes"/>
      <point x="559.6415094339623" y="637.3018867924528"/>
      <point x="491.0566037735849" y="700.0"/>
      <point x="346.92452830188677" y="700.0" type="curve" smooth="yes"/>
      <point x="158.69811320754718" y="700.0" type="line" smooth="yes"/>
      <point x="135.58490566037736" y="700.0"/>
      <point x="124.67924528301887" y="690.0943396226415"/>
      <point x="122.37735849056604" y="666.9811320754717" type="curve" smooth="yes"/>
      <point x="55.9811320754717" y="26.41509433962264" type="line" smooth="yes"/>
      <point x="53.9811320754717" y="7.30188679245283"/>
      <point x="64.28301886792453" y="0.0"/>
    </contour>
    <contour>
      <point x="170.11320754716982" y="92.60377358490567" type="line"/>
      <point x="193.39622641509433" y="312.33962264150944" type="line"/>
      <point x="311.6981132075472" y="312.33962264150944" type="line" smooth="yes"/>
      <point x="398.33962264150944" y="312.33962264150944"/>
      <point x="443.811320754717" y="278.8679245283019"/>
      <point x="443.811320754717" y="220.30188679245282" type="curve" smooth="yes"/>
      <point x="443.811320754717" y="141.35849056603774"/>
      <point x="398.1509433962264" y="92.60377358490567"/>
      <point x="305.1132075471698" y="92.60377358490567" type="curve" smooth="yes"/>
    </contour>
    <contour>
      <point x="203.20754716981133" y="404.9433962264151" type="line"/>
      <point x="224.0943396226415" y="607.6981132075472" type="line"/>
      <point x="327.20754716981133" y="607.6981132075472" type="line" smooth="yes"/>
      <point x="408.33962264150944" y="607.6981132075472"/>
      <point x="446.50943396226415" y="580.4150943396227"/>
      <point x="446.50943396226415" y="524.4528301886793" type="curve" smooth="yes"/>
      <point x="446.50943396226415" y="449.3018867924528"/>
      <point x="390.9622641509434" y="404.9433962264151"/>
      <point x="308.50943396226415" y="404.9433962264151" type="curve" smooth="yes"/>
    </contour>
  </outline>
</glyph>
<glyph name="C" format="2">
  <advance width="619.0"/>
  <unicode hex="0043"/>
  <anchor x="342.07547169811323" y="0.0" name="bottom"/>
  <anchor x="389.0377358490566" y="700.0" name="top"/>
  <outline>
    <contour>
      <point x="329.7169811320755" y="-6.60377358490566" type="curve" smooth="yes"/>
      <point x="399.49056603773585" y="-6.60377358490566"/>
      <point x="472.22641509433964" y="10.584905660377359"/>
      <point x="512.9433962264151" y="32.094339622641506" type="curve" smooth="yes"/>
      <point x="533.9433962264151" y="43.094339622641506"/>
      <point x="549.1509433962265" y="57.905660377358494"/>
      <point x="549.1509433962265" y="70.32075471698113" type="curve" smooth="yes"/>
      <point x="549.1509433962265" y="86.13207547169812"/>
      <point x="531.5471698113207" y="132.9811320754717"/>
      <point x="513.811320754717" y="132.9811320754717" type="curve" smooth="yes"/>
      <point x="500.20754716981133" y="132.9811320754717"/>
      <point x="440.1132075471698" y="86.0"/>
      <point x="339.52830188679246" y="86.0" type="curve" smooth="yes"/>
      <point x="212.30188679245282" y="86.0"/>
      <point x="151.1320754716981" y="151.58490566037736"/>
      <point x="151.1320754716981" y="289.22641509433964" type="curve" smooth="yes"/>
      <point x="151.1320754716981" y="502.8301886792453"/>
      <point x="237.0943396226415" y="613.6981132075472"/>
      <point x="398.60377358490564" y="613.6981132075472" type="curve" smooth="yes"/>
      <point x="494.3018867924528" y="613.6981132075472"/>
      <point x="535.188679245283" y="573.3207547169811"/>
      <point x="546.4905660377359" y="573.3207547169811" type="curve" smooth="yes"/>
      <point x="561.811320754717" y="573.3207547169811"/>
      <point x="597.0566037735849" y="623.566037735849"/>
      <point x="597.0566037735849" y="643.4905660377359" type="curve" smooth="yes"/>
      <point x="597.0566037735849" y="653.0943396226415"/>
      <point x="586.9622641509434" y="663.0943396226415"/>
      <point x="575.7547169811321" y="670.0" type="curve" smooth="yes"/>
      <point x="541.9433962264151" y="690.5094339622641"/>
      <point x="473.41509433962267" y="706.6037735849056"/>
      <point x="407.92452830188677" y="706.6037735849056" type="curve" smooth="yes"/>
      <point x="168.81132075471697" y="706.6037735849056"/>
      <point x="38.905660377358494" y="554.2075471698113"/>
      <point x="38.905660377358494" y="275.3018867924528" type="curve" smooth="yes"/>
      <point x="38.905660377358494" y="82.69811320754717"/>
      <point x="133.50943396226415" y="-6.60377358490566"/>
    </contour>
  </outline>
</glyph>
<glyph name="D" format="2">
  <advance width="695.0"/>
  <unicode hex="0044"/>
  <anchor x="295.52830188679246" y="0.0" name="bottom"/>
  <anchor x="352.52830188679246" y="350.0" name="center"/>
  <anchor x="352.52830188679246" y="700.0" name="top"/>
  <outline>
    <contour>
      <point x="88.20754716981132" y="0.0" type="curve" smooth="yes"/>
      <point x="305.92452830188677" y="0.0" type="line" smooth="yes"/>
      <point x="497.0" y="0.0"/>
      <point x="659.6415094339623" y="117.37735849056604"/>
      <point x="659.6415094339623" y="413.79245283018867" type="curve" smooth="yes"/>
      <point x="659.6415094339623" y="616.1509433962265"/>
      <point x="544.9811320754717" y="700.0"/>
      <point x="378.92452830188677" y="700.0" type="curve" smooth="yes"/>
      <point x="161.20754716981133" y="700.0" type="line" smooth="yes"/>
      <point x="138.0943396226415" y="700.0"/>
      <point x="127.18867924528301" y="690.0943396226415"/>
      <point x="124.88679245283019" y="666.9811320754717" type="curve" smooth="yes"/>
      <point x="58.79245283018868" y="29.735849056603772" type="line" smooth="yes"/>
      <point x="56.490566037735846" y="7.60377358490566"/>
      <point x="66.79245283018868" y="0.0"/>
    </contour>
    <contour>
      <point x="172.9245283018868" y="92.60377358490567" type="line"/>
      <point x="226.9056603773585" y="607.3962264150944" type="line"/>
      <point x="364.52830188679246" y="607.3962264150944" type="line" smooth="yes"/>
      <point x="472.49056603773585" y="607.3962264150944"/>
      <point x="548.1132075471698" y="549.4905660377359"/>
      <point x="548.1132075471698" y="399.79245283018867" type="curve" smooth="yes"/>
      <point x="548.1132075471698" y="181.71698113207546"/>
      <point x="436.0188679245283" y="92.60377358490567"/>
      <point x="310.54716981132077" y="92.60377358490567" type="curve" smooth="yes"/>
    </contour>
  </outline>
</glyph>
<glyph name="E" format="2">
  <advance width="546.0"/>
  <unicode hex="0045"/>
  <anchor x="256.41509433962267" y="0.0" name="bottom"/>
  <anchor x="452.0566037735849" y="0.0" name="ogonek"/>
  <anchor x="322.1132075471698" y="700.0" name="top"/>
  <outline>
    <contour>
      <point x="73.20754716981132" y="0.0" type="curve" smooth="yes"/>
      <point x="430.1320754716981" y="0.0" type="line" smooth="yes"/>
      <point x="446.24528301886795" y="0.0"/>
      <point x="457.45283018867923" y="10.81132075471698"/>
      <point x="460.0566037735849" y="41.15094339622642" type="curve" smooth="yes"/>
      <point x="461.0566037735849" y="54.943396226415096" type="line" smooth="yes"/>
      <point x="462.9622641509434" y="81.79245283018868"/>
      <point x="456.0566037735849" y="92.60377358490567"/>
      <point x="439.9433962264151" y="92.60377358490567" type="curve" smooth="yes"/>
      <point x="157.9245283018868" y="92.60377358490567" type="line"/>
      <point x="180.81132075471697" y="311.8490566037736" type="line"/>
      <point x="430.7358490566038" y="311.8490566037736" type="line" smooth="yes"/>
      <point x="446.8490566037736" y="311.8490566037736"/>
      <point x="458.0566037735849" y="322.66037735849056"/>
      <point x="460.66037735849056" y="353.0" type="curve" smooth="yes"/>
      <point x="461.66037735849056" y="366.79245283018867" type="line" smooth="yes"/>
      <point x="463.5660377358491" y="393.64150943396226"/>
      <point x="456.66037735849056" y="404.45283018867923"/>
      <point x="440.54716981132077" y="404.45283018867923" type="curve" smooth="yes"/>
      <point x="190.32075471698113" y="404.45283018867923" type="line"/>
      <point x="211.9056603773585" y="607.3962264150944" type="line"/>
      <point x="492.3207547169811" y="607.3962264150944" type="line" smooth="yes"/>
      <point x="508.4339622641509" y="607.3962264150944"/>
      <point x="519.6415094339623" y="618.2075471698113"/>
      <point x="522.2452830188679" y="648.5471698113207" type="curve" smooth="yes"/>
      <point x="523.2452830188679" y="662.3396226415094" type="line" smooth="yes"/>
      <point x="525.1509433962265" y="689.188679245283"/>
      <point x="518.2452830188679" y="700.0"/>
      <point x="502.1320754716981" y="700.0" type="curve" smooth="yes"/>
      <point x="146.20754716981133" y="700.0" type="line" smooth="yes"/>
      <point x="123.09433962264151" y="700.0"/>
      <point x="112.18867924528301" y="690.0943396226415"/>
      <point x="109.88679245283019" y="666.2830188679245" type="curve" smooth="yes"/>
      <point x="43.79245283018868" y="31.41509433962264" type="line" smooth="yes"/>
      <point x="41.490566037735846" y="7.30188679245283"/>
      <point x="51.79245283018868" y="0.0"/>
    </contour>
  </outline>
</glyph>
<glyph name="F" format="2">
  <advance width="503.0"/>
  <unicode hex="0046"/>
  <anchor x="98.24528301886792" y="-1.3962264150943398" name="bottom"/>
  <anchor x="298.0" y="700.0" name="top"/>
  <outline>
    <contour>
      <point x="90.62264150943396" y="-2.0" type="curve" smooth="yes"/>
      <point x="106.77358490566037" y="-2.0" type="line" smooth="yes"/>
      <point x="136.0" y="-2.0"/>
      <point x="153.81132075471697" y="6.90566037735849"/>
      <point x="155.11320754716982" y="23.0188679245283" type="curve" smooth="yes"/>
      <point x="183.20754716981133" y="291.54716981132077" type="line"/>
      <point x="421.7358490566038" y="291.54716981132077" type="line" smooth="yes"/>
      <point x="437.8490566037736" y="291.54716981132077"/>
      <point x="449.0566037735849" y="302.35849056603774"/>
      <point x="451.66037735849056" y="332.6981132075472" type="curve" smooth="yes"/>
      <point x="452.66037735849056" y="346.49056603773585" type="line" smooth="yes"/>
      <point x="454.5660377358491" y="373.33962264150944"/>
      <point x="447.66037735849056" y="384.1509433962264"/>
      <point x="431.54716981132077" y="384.1509433962264" type="curve" smooth="yes"/>
      <point x="192.71698113207546" y="384.1509433962264" type="line"/>
      <point x="216.30188679245282" y="607.3962264150944" type="line"/>
      <point x="461.8301886792453" y="607.3962264150944" type="line" smooth="yes"/>
      <point x="477.9433962264151" y="607.3962264150944"/>
      <point x="489.1509433962264" y="618.2075471698113"/>
      <point x="491.75471698113205" y="648.5471698113207" type="curve" smooth="yes"/>
      <point x="492.75471698113205" y="662.3396226415094" type="line" smooth="yes"/>
      <point x="494.66037735849056" y="689.188679245283"/>
      <point x="487.75471698113205" y="700.0"/>
      <point x="471.64150943396226" y="700.0" type="curve" smooth="yes"/>
      <point x="150.60377358490567" y="700.0" type="line" smooth="yes"/>
      <point x="127.49056603773585" y="700.0"/>
      <point x="116.58490566037736" y="690.0943396226415"/>
      <point x="114.28301886792453" y="666.9811320754717" type="curve" smooth="yes"/>
      <point x="46.886792452830186" y="23.62264150943396" type="line" smooth="yes"/>
      <point x="45.283018867924525" y="4.188679245283019"/>
      <point x="64.54716981132076" y="-2.0"/>
    </contour>
  </outline>
</glyph>
<glyph name="G" format="2">
  <advance width="672.0"/>
  <unicode hex="0047"/>
  <anchor x="336.0" y="0.0" name="bottom"/>
  <anchor x="396.3018867924528" y="700.0" name="top"/>
  <outline>
    <contour>
      <point x="330.41509433962267" y="-6.60377358490566" type="curve" smooth="yes"/>
      <point x="431.1320754716981" y="-6.60377358490566"/>
      <point x="558.1320754716982" y="7.584905660377359"/>
      <point x="564.433962264151" y="67.50943396226415" type="curve" smooth="yes"/>
      <point x="593.0377358490566" y="339.7358490566038" type="line" smooth="yes"/>
      <point x="595.3396226415094" y="361.45283018867923"/>
      <point x="584.7358490566038" y="369.45283018867923"/>
      <point x="563.3207547169811" y="369.45283018867923" type="curve" smooth="yes"/>
      <point x="380.1698113207547" y="369.45283018867923" type="line" smooth="yes"/>
      <point x="364.0566037735849" y="369.45283018867923"/>
      <point x="352.8490566037736" y="358.64150943396226"/>
      <point x="350.24528301886795" y="328.3018867924528" type="curve" smooth="yes"/>
      <point x="349.24528301886795" y="314.50943396226415" type="line" smooth="yes"/>
      <point x="347.33962264150944" y="287.66037735849056"/>
      <point x="354.24528301886795" y="276.8490566037736"/>
      <point x="370.35849056603774" y="276.8490566037736" type="curve" smooth="yes"/>
      <point x="478.3018867924528" y="276.8490566037736" type="line"/>
      <point x="458.7169811320755" y="97.18867924528301" type="line"/>
      <point x="431.7169811320755" y="90.79245283018868"/>
      <point x="389.1698113207547" y="86.0"/>
      <point x="344.41509433962267" y="86.0" type="curve" smooth="yes"/>
      <point x="207.81132075471697" y="86.0"/>
      <point x="160.9056603773585" y="170.43396226415095"/>
      <point x="160.9056603773585" y="291.0188679245283" type="curve" smooth="yes"/>
      <point x="160.9056603773585" y="495.5660377358491"/>
      <point x="240.9811320754717" y="613.6981132075472"/>
      <point x="402.49056603773585" y="613.6981132075472" type="curve" smooth="yes"/>
      <point x="502.6792452830189" y="613.6981132075472"/>
      <point x="545.2641509433962" y="573.3207547169811"/>
      <point x="556.566037735849" y="573.3207547169811" type="curve" smooth="yes"/>
      <point x="573.188679245283" y="573.3207547169811"/>
      <point x="607.1320754716982" y="624.1698113207547"/>
      <point x="607.1320754716982" y="643.4905660377359" type="curve" smooth="yes"/>
      <point x="607.1320754716982" y="674.7169811320755"/>
      <point x="511.07547169811323" y="706.6037735849056"/>
      <point x="417.39622641509436" y="706.6037735849056" type="curve" smooth="yes"/>
      <point x="189.66037735849056" y="706.6037735849056"/>
      <point x="48.679245283018865" y="569.8867924528302"/>
      <point x="48.679245283018865" y="275.3018867924528" type="curve" smooth="yes"/>
      <point x="48.679245283018865" y="83.39622641509433"/>
      <point x="145.0754716981132" y="-6.60377358490566"/>
    </contour>
  </outline>
</glyph>
<glyph name="H" format="2">
  <advance width="733.0"/>
  <unicode hex="0048"/>
  <anchor x="343.62264150943395" y="1.3962264150943398" name="bottom"/>
  <anchor x="393.6981132075472" y="522.3018867924528" name="center"/>
  <anchor x="411.39622641509436" y="700.0" name="top"/>
  <outline>
    <contour>
      <point x="110.69811320754717" y="-2.0" type="curve" smooth="yes"/>
      <point x="126.84905660377359" y="-2.0" type="line" smooth="yes"/>
      <point x="156.77358490566039" y="-2.0"/>
      <point x="173.88679245283018" y="6.90566037735849"/>
      <point x="175.18867924528303" y="23.0188679245283" type="curve" smooth="yes"/>
      <point x="204.9811320754717" y="311.9433962264151" type="line"/>
      <point x="539.2075471698113" y="311.9433962264151" type="line"/>
      <point x="509.41509433962267" y="24.22641509433962" type="line" smooth="yes"/>
      <point x="507.811320754717" y="4.188679245283019"/>
      <point x="527.0754716981132" y="-2.0"/>
      <point x="553.1509433962265" y="-2.0" type="curve" smooth="yes"/>
      <point x="569.3018867924528" y="-2.0" type="line" smooth="yes"/>
      <point x="599.2264150943396" y="-2.0"/>
      <point x="616.3396226415094" y="6.90566037735849"/>
      <point x="617.6415094339623" y="23.0188679245283" type="curve" smooth="yes"/>
      <point x="686.0377358490566" y="677.2830188679245" type="line" smooth="yes"/>
      <point x="687.6415094339623" y="695.811320754717"/>
      <point x="667.6792452830189" y="702.0"/>
      <point x="642.3018867924528" y="702.0" type="curve" smooth="yes"/>
      <point x="626.1509433962265" y="702.0" type="line" smooth="yes"/>
      <point x="594.1320754716982" y="702.0"/>
      <point x="579.1132075471698" y="693.0943396226415"/>
      <point x="577.811320754717" y="676.9811320754717" type="curve" smooth="yes"/>
      <point x="549.0188679245283" y="404.8490566037736" type="line"/>
      <point x="214.79245283018867" y="404.8490566037736" type="line"/>
      <point x="243.58490566037736" y="677.2830188679245" type="line" smooth="yes"/>
      <point x="245.18867924528303" y="695.811320754717"/>
      <point x="225.22641509433961" y="702.0"/>
      <point x="199.8490566037736" y="702.0" type="curve" smooth="yes"/>
      <point x="183.69811320754718" y="702.0" type="line" smooth="yes"/>
      <point x="152.37735849056602" y="702.0"/>
      <point x="136.66037735849056" y="693.0943396226415"/>
      <point x="135.35849056603774" y="676.9811320754717" type="curve" smooth="yes"/>
      <point x="67.26415094339623" y="24.22641509433962" type="line" smooth="yes"/>
      <point x="65.35849056603773" y="4.188679245283019"/>
      <point x="84.62264150943396" y="-2.0"/>
    </contour>
  </outline>
</glyph>
<glyph name="I" format="2">
  <advance width="283.0"/>
  <unicode hex="0049"/>
  <anchor x="104.62264150943396" y="0.0" name="bottom"/>
  <anchor x="164.33962264150944" y="0.0" name="ogonek"/>
  <anchor x="183.32075471698113" y="700.0" name="top"/>
  <outline>
    <contour>
      <point x="106.77358490566037" y="-2.0" type="curve" smooth="yes"/>
      <point x="122.9245283018868" y="-2.0" type="line" smooth="yes"/>
      <point x="152.8490566037736" y="-2.0"/>
      <point x="169.96226415094338" y="6.90566037735849"/>
      <point x="171.26415094339623" y="23.0188679245283" type="curve" smooth="yes"/>
      <point x="239.66037735849056" y="677.2830188679245" type="line"/>
      <point x="239.66037735849056" y="695.811320754717"/>
      <point x="221.30188679245282" y="702.0"/>
      <point x="195.9245283018868" y="702.0" type="curve" smooth="yes"/>
      <point x="179.77358490566039" y="702.0" type="line" smooth="yes"/>
      <point x="148.45283018867926" y="702.0"/>
      <point x="132.73584905660377" y="693.0943396226415"/>
      <point x="131.43396226415095" y="676.9811320754717" type="curve" smooth="yes"/>
      <point x="63.735849056603776" y="23.41509433962264" type="line" smooth="yes"/>
      <point x="62.339622641509436" y="4.188679245283019"/>
      <point x="80.69811320754717" y="-2.0"/>
    </contour>
  </outline>
</glyph>
<glyph name="J" format="2">
  <advance width="402.0"/>
  <unicode hex="004A"/>
  <anchor x="302.5660377358491" y="701.3962264150944" name="top"/>
  <outline>
    <contour>
      <point x="77.60377358490567" y="-6.60377358490566" type="curve" smooth="yes"/>
      <point x="225.20754716981133" y="-6.60377358490566"/>
      <point x="293.41509433962267" y="77.79245283018868"/>
      <point x="306.7169811320755" y="204.0943396226415" type="curve" smooth="yes"/>
      <point x="356.7169811320755" y="677.2830188679245" type="line"/>
      <point x="357.62264150943395" y="695.811320754717"/>
      <point x="338.35849056603774" y="702.0"/>
      <point x="312.9811320754717" y="702.0" type="curve" smooth="yes"/>
      <point x="296.8301886792453" y="702.0" type="line" smooth="yes"/>
      <point x="264.811320754717" y="702.0"/>
      <point x="249.79245283018867" y="693.0943396226415"/>
      <point x="248.49056603773585" y="676.9811320754717" type="curve" smooth="yes"/>
      <point x="198.69811320754718" y="208.8490566037736" type="line" smooth="yes"/>
      <point x="190.0" y="126.77358490566037"/>
      <point x="151.83018867924528" y="90.18867924528301"/>
      <point x="68.79245283018868" y="90.18867924528301" type="curve" smooth="yes"/>
      <point x="27.58490566037736" y="90.18867924528301"/>
      <point x="14.20754716981132" y="99.18867924528301"/>
      <point x="3.69811320754717" y="99.18867924528301" type="curve" smooth="yes"/>
      <point x="-4.69811320754717" y="99.18867924528301"/>
      <point x="-12.81132075471698" y="85.39622641509433"/>
      <point x="-12.81132075471698" y="28.71698113207547" type="curve" smooth="yes"/>
      <point x="-12.81132075471698" y="0.09433962264150941"/>
      <point x="35.509433962264154" y="-6.60377358490566"/>
    </contour>
  </outline>
</glyph>
<glyph name="K" format="2">
  <advance width="576.0"/>
  <unicode hex="004B"/>
  <anchor x="263.0188679245283" y="0.0" name="bottom"/>
  <anchor x="322.54716981132077" y="700.0" name="top"/>
  <outline>
    <contour>
      <point x="85.01886792452831" y="-2.0" type="curve" smooth="yes"/>
      <point x="101.16981132075472" y="-2.0" type="line" smooth="yes"/>
      <point x="131.30188679245282" y="-2.0"/>
      <point x="147.50943396226415" y="6.90566037735849"/>
      <point x="149.50943396226415" y="23.0188679245283" type="curve" smooth="yes"/>
      <point x="181.60377358490567" y="329.07547169811323" type="line"/>
      <point x="185.60377358490567" y="329.37735849056605" type="line"/>
      <point x="408.92452830188677" y="12.81132075471698" type="line" smooth="yes"/>
      <point x="417.3207547169811" y="0.6037735849056604"/>
      <point x="434.52830188679246" y="-2.0"/>
      <point x="464.4339622641509" y="-2.0" type="curve" smooth="yes"/>
      <point x="486.8301886792453" y="-2.0" type="line" smooth="yes"/>
      <point x="521.7547169811321" y="-2.0"/>
      <point x="534.7547169811321" y="2.2075471698113205"/>
      <point x="535.4528301886793" y="13.20754716981132" type="curve" smooth="yes"/>
      <point x="535.4528301886793" y="17.20754716981132"/>
      <point x="534.1509433962265" y="21.81132075471698"/>
      <point x="528.7547169811321" y="29.81132075471698" type="curve" smooth="yes"/>
      <point x="291.3018867924528" y="363.0188679245283" type="line"/>
      <point x="553.0" y="668.0943396226415" type="line" smooth="yes"/>
      <point x="560.6981132075472" y="676.3962264150944"/>
      <point x="564.3962264150944" y="683.6981132075472"/>
      <point x="564.3962264150944" y="689.3962264150944" type="curve" smooth="yes"/>
      <point x="564.3962264150944" y="696.0"/>
      <point x="551.5849056603773" y="702.0"/>
      <point x="524.0566037735849" y="702.0" type="curve" smooth="yes"/>
      <point x="502.8867924528302" y="702.0" type="line" smooth="yes"/>
      <point x="478.77358490566036" y="702.0"/>
      <point x="456.07547169811323" y="698.6981132075472"/>
      <point x="445.77358490566036" y="686.4905660377359" type="curve" smooth="yes"/>
      <point x="191.11320754716982" y="382.1509433962264" type="line"/>
      <point x="187.11320754716982" y="382.45283018867923" type="line"/>
      <point x="217.9056603773585" y="676.9811320754717" type="line"/>
      <point x="217.9056603773585" y="693.0943396226415"/>
      <point x="207.39622641509433" y="702.0"/>
      <point x="174.16981132075472" y="702.0" type="curve" smooth="yes"/>
      <point x="158.0188679245283" y="702.0" type="line" smooth="yes"/>
      <point x="125.79245283018868" y="702.0"/>
      <point x="110.98113207547169" y="693.0943396226415"/>
      <point x="109.67924528301887" y="676.9811320754717" type="curve" smooth="yes"/>
      <point x="41.283018867924525" y="23.0188679245283" type="line"/>
      <point x="41.283018867924525" y="6.90566037735849"/>
      <point x="51.094339622641506" y="-2.0"/>
    </contour>
  </outline>
</glyph>
<glyph name="L" format="2">
  <advance width="484.0"/>
  <unicode hex="004C"/>
  <anchor x="234.75471698113208" y="0.0" name="bottom"/>
  <anchor x="369.92452830188677" y="335.0" name="center"/>
  <anchor x="172.83018867924528" y="701.3962264150944" name="top"/>
  <anchor x="359.0188679245283" y="700.6037735849056" name="topright"/>
  <outline>
    <contour>
      <point x="75.49056603773585" y="0.0" type="curve" smooth="yes"/>
      <point x="419.77358490566036" y="0.0" type="line" smooth="yes"/>
      <point x="435.8867924528302" y="0.0"/>
      <point x="447.0943396226415" y="10.81132075471698"/>
      <point x="449.6981132075472" y="41.15094339622642" type="curve" smooth="yes"/>
      <point x="450.6981132075472" y="54.943396226415096" type="line" smooth="yes"/>
      <point x="452.60377358490564" y="81.79245283018868"/>
      <point x="445.6981132075472" y="92.60377358490567"/>
      <point x="429.58490566037733" y="92.60377358490567" type="curve" smooth="yes"/>
      <point x="160.50943396226415" y="92.60377358490567" type="line"/>
      <point x="221.69811320754718" y="677.2830188679245" type="line" smooth="yes"/>
      <point x="223.30188679245282" y="695.811320754717"/>
      <point x="203.33962264150944" y="702.0"/>
      <point x="177.96226415094338" y="702.0" type="curve" smooth="yes"/>
      <point x="161.81132075471697" y="702.0" type="line" smooth="yes"/>
      <point x="130.49056603773585" y="702.0"/>
      <point x="114.77358490566037" y="693.0943396226415"/>
      <point x="113.47169811320755" y="676.9811320754717" type="curve" smooth="yes"/>
      <point x="45.77358490566038" y="31.20754716981132" type="line" smooth="yes"/>
      <point x="43.471698113207545" y="8.69811320754717"/>
      <point x="51.9811320754717" y="0.0"/>
    </contour>
  </outline>
</glyph>
<glyph name="M" format="2">
  <advance width="843.0"/>
  <unicode hex="004D"/>
  <outline>
    <contour>
      <point x="102.69811320754717" y="-2.0" type="curve" smooth="yes"/>
      <point x="116.33962264150944" y="-2.0" type="line" smooth="yes"/>
      <point x="147.16981132075472" y="-2.0"/>
      <point x="163.37735849056602" y="6.90566037735849"/>
      <point x="164.67924528301887" y="23.0188679245283" type="curve" smooth="yes"/>
      <point x="210.66037735849056" y="465.4339622641509" type="line" smooth="yes"/>
      <point x="213.35849056603774" y="490.20754716981133"/>
      <point x="214.0566037735849" y="516.9811320754717"/>
      <point x="213.66037735849056" y="530.5849056603773" type="curve"/>
      <point x="217.66037735849056" y="532.2830188679245" type="line"/>
      <point x="224.35849056603774" y="516.188679245283"/>
      <point x="233.8490566037736" y="494.60377358490564"/>
      <point x="240.54716981132074" y="481.3018867924528" type="curve" smooth="yes"/>
      <point x="369.5660377358491" y="203.96226415094338" type="line" smooth="yes"/>
      <point x="375.47169811320754" y="191.1509433962264"/>
      <point x="383.58490566037733" y="186.54716981132074"/>
      <point x="396.3018867924528" y="186.54716981132074" type="curve" smooth="yes"/>
      <point x="432.9811320754717" y="186.54716981132074" type="line" smooth="yes"/>
      <point x="446.39622641509436" y="186.54716981132074"/>
      <point x="455.811320754717" y="191.1509433962264"/>
      <point x="462.41509433962267" y="201.35849056603774" type="curve" smooth="yes"/>
      <point x="654.0" y="485.6981132075472" type="line" smooth="yes"/>
      <point x="662.6981132075472" y="498.79245283018867"/>
      <point x="671.7924528301887" y="512.8867924528302"/>
      <point x="679.0943396226415" y="526.6792452830189" type="curve"/>
      <point x="682.3962264150944" y="525.6792452830189" type="line"/>
      <point x="680.3962264150944" y="509.6792452830189"/>
      <point x="678.0" y="491.188679245283"/>
      <point x="676.0" y="475.188679245283" type="curve" smooth="yes"/>
      <point x="629.2264150943396" y="24.528301886792452" type="line"/>
      <point x="628.3207547169811" y="6.90566037735849"/>
      <point x="638.7358490566038" y="-2.0"/>
      <point x="672.6603773584906" y="-2.0" type="curve" smooth="yes"/>
      <point x="686.3018867924528" y="-2.0" type="line" smooth="yes"/>
      <point x="717.1320754716982" y="-2.0"/>
      <point x="733.3396226415094" y="6.90566037735849"/>
      <point x="734.6415094339623" y="23.0188679245283" type="curve" smooth="yes"/>
      <point x="803.0377358490566" y="676.9811320754717" type="line"/>
      <point x="803.6415094339623" y="693.0943396226415"/>
      <point x="792.5283018867924" y="702.0"/>
      <point x="759.3018867924528" y="702.0" type="curve" smooth="yes"/>
      <point x="718.8679245283018" y="702.0" type="line" smooth="yes"/>
      <point x="693.3584905660377" y="702.0"/>
      <point x="678.0377358490566" y="695.0"/>
      <point x="669.2264150943396" y="681.2830188679245" type="curve" smooth="yes"/>
      <point x="455.49056603773585" y="363.2830188679245" type="line" smooth="yes"/>
      <point x="445.79245283018867" y="348.8867924528302"/>
      <point x="433.3018867924528" y="326.0"/>
      <point x="426.811320754717" y="310.811320754717" type="curve"/>
      <point x="423.41509433962267" y="328.49056603773585"/>
      <point x="415.3207547169811" y="353.07547169811323"/>
      <point x="408.3207547169811" y="367.77358490566036" type="curve" smooth="yes"/>
      <point x="262.1698113207547" y="681.2830188679245" type="line" smooth="yes"/>
      <point x="255.96226415094338" y="695.0"/>
      <point x="240.64150943396226" y="702.0"/>
      <point x="215.1320754716981" y="702.0" type="curve" smooth="yes"/>
      <point x="175.69811320754718" y="702.0" type="line" smooth="yes"/>
      <point x="143.47169811320754" y="702.0"/>
      <point x="128.66037735849056" y="693.0943396226415"/>
      <point x="127.35849056603773" y="676.9811320754717" type="curve" smooth="yes"/>
      <point x="59.264150943396224" y="24.528301886792452" type="line"/>
      <point x="58.35849056603774" y="6.90566037735849"/>
      <point x="68.77358490566037" y="-2.0"/>
    </contour>
  </outline>
</glyph>
<glyph name="N" format="2">
  <advance width="719.0"/>
  <unicode hex="004E"/>
  <anchor x="337.50943396226415" y="0.0" name="bottom"/>
  <anchor x="392.50943396226415" y="700.0" name="top"/>
  <outline>
    <contour>
      <point x="100.60377358490567" y="-2.0" type="curve" smooth="yes"/>
      <point x="114.24528301886792" y="-2.0" type="line" smooth="yes"/>
      <point x="145.0754716981132" y="-2.0"/>
      <point x="161.28301886792454" y="6.90566037735849"/>
      <point x="162.58490566037736" y="23.0188679245283" type="curve" smooth="yes"/>
      <point x="206.75471698113208" y="445.0566037735849" type="line" smooth="yes"/>
      <point x="210.0566037735849" y="473.07547169811323"/>
      <point x="211.45283018867926" y="504.2641509433962"/>
      <point x="210.1509433962264" y="525.9622641509434" type="curve"/>
      <point x="215.0566037735849" y="527.566037735849" type="line"/>
      <point x="219.75471698113208" y="510.58490566037733"/>
      <point x="227.24528301886792" y="492.50943396226415"/>
      <point x="252.9245283018868" y="446.64150943396226" type="curve" smooth="yes"/>
      <point x="495.9056603773585" y="15.924528301886792" type="line" smooth="yes"/>
      <point x="503.3207547169811" y="2.69811320754717"/>
      <point x="516.9433962264151" y="-2.0"/>
      <point x="538.9622641509434" y="-2.0" type="curve" smooth="yes"/>
      <point x="564.3962264150944" y="-2.0" type="line" smooth="yes"/>
      <point x="595.2264150943396" y="-2.0"/>
      <point x="611.433962264151" y="6.90566037735849"/>
      <point x="612.7358490566038" y="23.0188679245283" type="curve" smooth="yes"/>
      <point x="681.1320754716982" y="676.9811320754717" type="line"/>
      <point x="681.1320754716982" y="693.0943396226415"/>
      <point x="670.622641509434" y="702.0"/>
      <point x="637.3962264150944" y="702.0" type="curve" smooth="yes"/>
      <point x="623.7547169811321" y="702.0" type="line" smooth="yes"/>
      <point x="591.5283018867924" y="702.0"/>
      <point x="576.7169811320755" y="693.0943396226415"/>
      <point x="575.4150943396227" y="676.9811320754717" type="curve" smooth="yes"/>
      <point x="533.2452830188679" y="276.07547169811323" type="line" smooth="yes"/>
      <point x="528.9433962264151" y="232.8679245283019"/>
      <point x="527.9433962264151" y="206.43396226415095"/>
      <point x="528.2452830188679" y="182.52830188679246" type="curve"/>
      <point x="523.3396226415094" y="181.22641509433961" type="line"/>
      <point x="517.4528301886793" y="196.30188679245282"/>
      <point x="511.1509433962264" y="214.0943396226415"/>
      <point x="478.58490566037733" y="272.0377358490566" type="curve" smooth="yes"/>
      <point x="248.49056603773585" y="680.5849056603773" type="line" smooth="yes"/>
      <point x="238.9811320754717" y="697.3018867924528"/>
      <point x="225.35849056603774" y="702.0"/>
      <point x="201.24528301886792" y="702.0" type="curve" smooth="yes"/>
      <point x="173.60377358490567" y="702.0" type="line" smooth="yes"/>
      <point x="141.37735849056602" y="702.0"/>
      <point x="126.56603773584905" y="693.0943396226415"/>
      <point x="125.26415094339623" y="676.9811320754717" type="curve" smooth="yes"/>
      <point x="56.867924528301884" y="23.0188679245283" type="line"/>
      <point x="56.867924528301884" y="6.90566037735849"/>
      <point x="66.67924528301887" y="-2.0"/>
    </contour>
  </outline>
</glyph>
<glyph name="O" format="2">
  <advance width="731.0"/>
  <unicode hex="004F"/>
  <anchor x="348.50943396226415" y="0.0" name="bottom"/>
  <anchor x="507.22641509433964" y="682.0" name="horn"/>
  <anchor x="409.7358490566038" y="0.0" name="ogonek"/>
  <anchor x="397.22641509433964" y="706.0377358490566" name="top"/>
  <outline>
    <contour>
      <point x="347.1132075471698" y="-6.60377358490566" type="curve" smooth="yes"/>
      <point x="566.0377358490566" y="-6.60377358490566"/>
      <point x="690.622641509434" y="142.30188679245282"/>
      <point x="690.622641509434" y="383.58490566037733" type="curve" smooth="yes"/>
      <point x="690.622641509434" y="607.4905660377359"/>
      <point x="575.1132075471698" y="706.6037735849056"/>
      <point x="402.3018867924528" y="706.6037735849056" type="curve" smooth="yes"/>
      <point x="134.0754716981132" y="706.6037735849056"/>
      <point x="58.679245283018865" y="512.6792452830189"/>
      <point x="58.679245283018865" y="311.6981132075472" type="curve" smooth="yes"/>
      <point x="58.679245283018865" y="95.60377358490567"/>
      <point x="165.49056603773585" y="-6.60377358490566"/>
    </contour>
    <contour>
      <point x="354.7169811320755" y="86.0" type="curve" smooth="yes"/>
      <point x="240.77358490566039" y="86.0"/>
      <point x="170.20754716981133" y="158.77358490566039"/>
      <point x="170.20754716981133" y="325.50943396226415" type="curve" smooth="yes"/>
      <point x="170.20754716981133" y="504.1320754716981"/>
      <point x="245.0754716981132" y="613.6981132075472"/>
      <point x="392.49056603773585" y="613.6981132075472" type="curve" smooth="yes"/>
      <point x="508.0377358490566" y="613.6981132075472"/>
      <point x="578.6981132075472" y="541.4150943396227"/>
      <point x="578.6981132075472" y="376.2830188679245" type="curve" smooth="yes"/>
      <point x="578.6981132075472" y="196.66037735849056"/>
      <point x="495.54716981132077" y="86.0"/>
    </contour>
  </outline>
</glyph>
<glyph name="P" format="2">
  <advance width="570.0"/>
  <unicode hex="0050"/>
  <anchor x="97.43396226415095" y="-1.3962264150943398" name="bottom"/>
  <anchor x="331.0" y="700.0" name="top"/>
  <outline>
    <contour>
      <point x="88.90566037735849" y="-2.0" type="curve" smooth="yes"/>
      <point x="104.75471698113208" y="-2.0" type="line" smooth="yes"/>
      <point x="137.67924528301887" y="-2.0"/>
      <point x="151.79245283018867" y="8.30188679245283"/>
      <point x="153.0943396226415" y="23.0188679245283" type="curve" smooth="yes"/>
      <point x="180.58490566037736" y="287.1320754716981" type="line"/>
      <point x="325.92452830188677" y="287.1320754716981" type="line" smooth="yes"/>
      <point x="477.9433962264151" y="287.1320754716981"/>
      <point x="564.7358490566038" y="376.33962264150944"/>
      <point x="564.7358490566038" y="513.566037735849" type="curve" smooth="yes"/>
      <point x="564.7358490566038" y="636.8867924528302"/>
      <point x="487.9056603773585" y="700.0"/>
      <point x="336.1132075471698" y="700.0" type="curve" smooth="yes"/>
      <point x="148.88679245283018" y="700.0" type="line" smooth="yes"/>
      <point x="126.47169811320755" y="700.0"/>
      <point x="114.86792452830188" y="690.7924528301887"/>
      <point x="112.56603773584905" y="666.9811320754717" type="curve" smooth="yes"/>
      <point x="46.16981132075472" y="27.41509433962264" type="line" smooth="yes"/>
      <point x="43.867924528301884" y="6.90566037735849"/>
      <point x="54.9811320754717" y="-2.0"/>
    </contour>
    <contour>
      <point x="190.39622641509433" y="380.0377358490566" type="line"/>
      <point x="214.28301886792454" y="607.3962264150944" type="line"/>
      <point x="322.39622641509436" y="607.3962264150944" type="line" smooth="yes"/>
      <point x="410.8301886792453" y="607.3962264150944"/>
      <point x="452.50943396226415" y="571.4150943396227"/>
      <point x="452.50943396226415" y="501.35849056603774" type="curve" smooth="yes"/>
      <point x="452.50943396226415" y="429.50943396226415"/>
      <point x="409.24528301886795" y="380.0377358490566"/>
      <point x="331.3018867924528" y="380.0377358490566" type="curve" smooth="yes"/>
    </contour>
  </outline>
</glyph>
<glyph name="Q" format="2">
  <advance width="731.0"/>
  <unicode hex="0051"/>
  <outline>
    <contour>
      <point x="632.2075471698113" y="-158.50943396226415" type="curve" smooth="yes"/>
      <point x="643.2075471698113" y="-158.50943396226415"/>
      <point x="655.622641509434" y="-149.41509433962264"/>
      <point x="655.622641509434" y="-73.54716981132076" type="curve" smooth="yes"/>
      <point x="655.622641509434" y="-61.64150943396226"/>
      <point x="653.0188679245283" y="-55.43396226415094"/>
      <point x="642.1132075471698" y="-51.43396226415094" type="curve"/>
      <point x="461.0943396226415" y="7.641509433962264" type="line"/>
      <point x="461.39622641509436" y="11.641509433962263" type="line"/>
      <point x="602.566037735849" y="52.43396226415094"/>
      <point x="690.622641509434" y="178.33962264150944"/>
      <point x="690.622641509434" y="383.58490566037733" type="curve" smooth="yes"/>
      <point x="690.622641509434" y="607.4905660377359"/>
      <point x="584.1132075471698" y="706.6037735849056"/>
      <point x="402.3018867924528" y="706.6037735849056" type="curve" smooth="yes"/>
      <point x="139.50943396226415" y="706.6037735849056"/>
      <point x="58.679245283018865" y="498.7169811320755"/>
      <point x="58.679245283018865" y="311.6981132075472" type="curve" smooth="yes"/>
      <point x="58.679245283018865" y="156.71698113207546"/>
      <point x="113.47169811320755" y="64.90566037735849"/>
      <point x="223.83018867924528" y="12.584905660377359" type="curve" smooth="yes"/>
      <point x="348.0566037735849" y="-45.56603773584906"/>
      <point x="617.3207547169811" y="-158.50943396226415"/>
    </contour>
    <contour>
      <point x="354.7169811320755" y="86.0" type="curve" smooth="yes"/>
      <point x="240.47169811320754" y="86.0"/>
      <point x="170.20754716981133" y="145.50943396226415"/>
      <point x="170.20754716981133" y="318.52830188679246" type="curve" smooth="yes"/>
      <point x="170.20754716981133" y="504.1320754716981"/>
      <point x="250.66037735849056" y="613.6981132075472"/>
      <point x="392.49056603773585" y="613.6981132075472" type="curve" smooth="yes"/>
      <point x="508.0377358490566" y="613.6981132075472"/>
      <point x="578.6981132075472" y="541.4150943396227"/>
      <point x="578.6981132075472" y="376.2830188679245" type="curve" smooth="yes"/>
      <point x="578.6981132075472" y="196.66037735849056"/>
      <point x="495.54716981132077" y="86.0"/>
    </contour>
  </outline>
</glyph>
<glyph name="R" format="2">
  <advance width="610.0"/>
  <unicode hex="0052"/>
  <anchor x="300.9056603773585" y="0.0" name="bottom"/>
  <anchor x="317.37735849056605" y="700.0" name="top"/>
  <outline>
    <contour>
      <point x="105.30188679245283" y="-2.0" type="curve" smooth="yes"/>
      <point x="121.15094339622641" y="-2.0" type="line" smooth="yes"/>
      <point x="151.28301886792454" y="-2.0"/>
      <point x="168.18867924528303" y="6.90566037735849"/>
      <point x="169.49056603773585" y="23.0188679245283" type="curve" smooth="yes"/>
      <point x="198.28301886792454" y="297.7358490566038" type="line"/>
      <point x="275.9056603773585" y="297.7358490566038" type="line" smooth="yes"/>
      <point x="352.33962264150944" y="297.7358490566038"/>
      <point x="378.7169811320755" y="278.45283018867923"/>
      <point x="398.3018867924528" y="211.20754716981133" type="curve" smooth="yes"/>
      <point x="454.50943396226415" y="15.50943396226415" type="line" smooth="yes"/>
      <point x="458.1132075471698" y="2.30188679245283"/>
      <point x="475.62264150943395" y="-2.0"/>
      <point x="498.64150943396226" y="-2.0" type="curve" smooth="yes"/>
      <point x="518.0" y="-2.0" type="line" smooth="yes"/>
      <point x="553.4150943396227" y="-2.0"/>
      <point x="566.8301886792453" y="5.30188679245283"/>
      <point x="567.433962264151" y="17.30188679245283" type="curve" smooth="yes"/>
      <point x="567.433962264151" y="20.90566037735849"/>
      <point x="566.433962264151" y="25.50943396226415"/>
      <point x="565.1320754716982" y="30.71698113207547" type="curve" smooth="yes"/>
      <point x="498.0566037735849" y="250.9433962264151" type="line" smooth="yes"/>
      <point x="484.8490566037736" y="294.77358490566036"/>
      <point x="459.45283018867923" y="325.9811320754717"/>
      <point x="431.1509433962264" y="335.9811320754717" type="curve"/>
      <point x="431.1509433962264" y="339.9811320754717" type="line"/>
      <point x="510.64150943396226" y="358.2641509433962"/>
      <point x="564.1509433962265" y="424.8867924528302"/>
      <point x="564.1509433962265" y="516.5849056603773" type="curve" smooth="yes"/>
      <point x="564.1509433962265" y="636.8867924528302"/>
      <point x="488.22641509433964" y="700.0"/>
      <point x="338.24528301886795" y="700.0" type="curve" smooth="yes"/>
      <point x="165.28301886792454" y="700.0" type="line" smooth="yes"/>
      <point x="142.16981132075472" y="700.0"/>
      <point x="131.26415094339623" y="690.0943396226415"/>
      <point x="128.96226415094338" y="666.9811320754717" type="curve" smooth="yes"/>
      <point x="62.56603773584906" y="26.71698113207547" type="line" smooth="yes"/>
      <point x="60.264150943396224" y="6.90566037735849"/>
      <point x="71.37735849056604" y="-2.0"/>
    </contour>
    <contour>
      <point x="208.0943396226415" y="390.9433962264151" type="line"/>
      <point x="230.67924528301887" y="607.3962264150944" type="line"/>
      <point x="328.45283018867923" y="607.3962264150944" type="line" smooth="yes"/>
      <point x="413.0566037735849" y="607.3962264150944"/>
      <point x="453.7358490566038" y="574.2075471698113"/>
      <point x="453.7358490566038" y="501.35849056603774" type="curve" smooth="yes"/>
      <point x="453.7358490566038" y="435.811320754717"/>
      <point x="410.77358490566036" y="390.33962264150944"/>
      <point x="331.0377358490566" y="390.64150943396226" type="curve" smooth="yes"/>
    </contour>
  </outline>
</glyph>
<glyph name="S" format="2">
  <advance width="500.0"/>
  <unicode hex="0053"/>
  <anchor x="233.0" y="0.0" name="bottom"/>
  <anchor x="293.8867924528302" y="700.0" name="top"/>
  <outline>
    <contour>
      <point x="209.62264150943398" y="-6.60377358490566" type="curve" smooth="yes"/>
      <point x="342.9622641509434" y="-6.60377358490566"/>
      <point x="455.4339622641509" y="67.52830188679245"/>
      <point x="455.4339622641509" y="218.9245283018868" type="curve" smooth="yes"/>
      <point x="455.4339622641509" y="325.9811320754717"/>
      <point x="374.07547169811323" y="369.92452830188677"/>
      <point x="292.0566037735849" y="404.64150943396226" type="curve" smooth="yes"/>
      <point x="228.77358490566039" y="429.9433962264151"/>
      <point x="173.0" y="450.7358490566038"/>
      <point x="173.0" y="511.60377358490564" type="curve" smooth="yes"/>
      <point x="173.0" y="574.0943396226415"/>
      <point x="223.39622641509433" y="613.6981132075472"/>
      <point x="302.0188679245283" y="613.6981132075472" type="curve" smooth="yes"/>
      <point x="345.20754716981133" y="613.6981132075472"/>
      <point x="373.6981132075472" y="602.9056603773585"/>
      <point x="393.0943396226415" y="593.1132075471698" type="curve" smooth="yes"/>
      <point x="408.188679245283" y="586.0188679245283"/>
      <point x="416.8867924528302" y="579.622641509434"/>
      <point x="423.58490566037733" y="579.622641509434" type="curve" smooth="yes"/>
      <point x="442.0" y="579.622641509434"/>
      <point x="469.4339622641509" y="627.2641509433962"/>
      <point x="469.4339622641509" y="644.188679245283" type="curve" smooth="yes"/>
      <point x="469.4339622641509" y="653.8867924528302"/>
      <point x="462.0377358490566" y="663.8867924528302"/>
      <point x="449.64150943396226" y="672.188679245283" type="curve" smooth="yes"/>
      <point x="419.45283018867923" y="692.7924528301887"/>
      <point x="359.2641509433962" y="706.6037735849056"/>
      <point x="309.0" y="706.6037735849056" type="curve" smooth="yes"/>
      <point x="171.33962264150944" y="706.6037735849056"/>
      <point x="61.56603773584906" y="631.6603773584906"/>
      <point x="61.56603773584906" y="494.0566037735849" type="curve" smooth="yes"/>
      <point x="61.56603773584906" y="382.47169811320754"/>
      <point x="144.56603773584905" y="346.35849056603774"/>
      <point x="220.0566037735849" y="314.1509433962264" type="curve" smooth="yes"/>
      <point x="284.1320754716981" y="286.75471698113205"/>
      <point x="343.3018867924528" y="262.0566037735849"/>
      <point x="343.3018867924528" y="200.69811320754718" type="curve" smooth="yes"/>
      <point x="343.3018867924528" y="127.22641509433963"/>
      <point x="279.7169811320755" y="86.0"/>
      <point x="211.58490566037736" y="86.0" type="curve" smooth="yes"/>
      <point x="157.81132075471697" y="86.0"/>
      <point x="117.22641509433963" y="101.09433962264151"/>
      <point x="89.83018867924528" y="112.69811320754717" type="curve" smooth="yes"/>
      <point x="71.41509433962264" y="121.20754716981132"/>
      <point x="58.60377358490566" y="128.32075471698113"/>
      <point x="52.0" y="128.32075471698113" type="curve" smooth="yes"/>
      <point x="41.698113207547166" y="128.32075471698113"/>
      <point x="32.9811320754717" y="123.50943396226415"/>
      <point x="32.9811320754717" y="80.22641509433963" type="curve" smooth="yes"/>
      <point x="32.9811320754717" y="45.924528301886795"/>
      <point x="42.37735849056604" y="34.62264150943396"/>
      <point x="58.16981132075472" y="25.32075471698113" type="curve" smooth="yes"/>
      <point x="97.47169811320755" y="1.6037735849056602"/>
      <point x="172.0943396226415" y="-6.60377358490566"/>
    </contour>
  </outline>
</glyph>
<glyph name="T" format="2">
  <advance width="549.0"/>
  <unicode hex="0054"/>
  <anchor x="247.0" y="0.0" name="bottom"/>
  <anchor x="286.6981132075472" y="350.0" name="center"/>
  <anchor x="320.6981132075472" y="700.0" name="top"/>
  <outline>
    <contour>
      <point x="241.16981132075472" y="-2.0" type="curve" smooth="yes"/>
      <point x="257.3207547169811" y="-2.0" type="line" smooth="yes"/>
      <point x="286.54716981132077" y="-2.0"/>
      <point x="304.35849056603774" y="6.90566037735849"/>
      <point x="305.66037735849056" y="23.0188679245283" type="curve" smooth="yes"/>
      <point x="366.8490566037736" y="607.3962264150944" type="line"/>
      <point x="545.4905660377359" y="607.3962264150944" type="line" smooth="yes"/>
      <point x="561.6037735849056" y="607.3962264150944"/>
      <point x="572.811320754717" y="618.2075471698113"/>
      <point x="575.4150943396227" y="648.5471698113207" type="curve" smooth="yes"/>
      <point x="576.4150943396227" y="662.3396226415094" type="line" smooth="yes"/>
      <point x="578.3207547169811" y="689.188679245283"/>
      <point x="571.4150943396227" y="700.0"/>
      <point x="555.3018867924528" y="700.0" type="curve" smooth="yes"/>
      <point x="86.69811320754717" y="700.0" type="line" smooth="yes"/>
      <point x="70.58490566037736" y="700.0"/>
      <point x="59.37735849056604" y="689.188679245283"/>
      <point x="56.77358490566038" y="658.8490566037735" type="curve" smooth="yes"/>
      <point x="55.77358490566038" y="645.0566037735849" type="line" smooth="yes"/>
      <point x="53.867924528301884" y="618.2075471698113"/>
      <point x="60.77358490566038" y="607.3962264150944"/>
      <point x="76.88679245283019" y="607.3962264150944" type="curve" smooth="yes"/>
      <point x="258.62264150943395" y="607.3962264150944" type="line"/>
      <point x="198.43396226415095" y="25.92452830188679" type="line" smooth="yes"/>
      <point x="195.83018867924528" y="4.188679245283019"/>
      <point x="215.0943396226415" y="-2.0"/>
    </contour>
  </outline>
</glyph>
<glyph name="U" format="2">
  <advance width="712.0"/>
  <unicode hex="0055"/>
  <anchor x="329.6981132075472" y="0.0" name="bottom"/>
  <anchor x="382.50943396226415" y="0.0" name="ogonek"/>
  <anchor x="403.0943396226415" y="700.0" name="top"/>
  <anchor x="620.2452830188679" y="702.0" name="topright"/>
  <outline>
    <contour>
      <point x="328.6981132075472" y="-6.60377358490566" type="curve" smooth="yes"/>
      <point x="506.50943396226415" y="-6.60377358490566"/>
      <point x="616.1320754716982" y="80.0"/>
      <point x="631.433962264151" y="227.0188679245283" type="curve" smooth="yes"/>
      <point x="678.5283018867924" y="676.9811320754717" type="line" smooth="yes"/>
      <point x="679.8301886792453" y="692.7924528301887"/>
      <point x="669.0188679245283" y="702.0"/>
      <point x="635.7924528301887" y="702.0" type="curve" smooth="yes"/>
      <point x="620.2452830188679" y="702.0" type="line" smooth="yes"/>
      <point x="588.3207547169811" y="702.0"/>
      <point x="572.2075471698113" y="693.0943396226415"/>
      <point x="570.9056603773585" y="676.9811320754717" type="curve" smooth="yes"/>
      <point x="524.1132075471698" y="227.9433962264151" type="line" smooth="yes"/>
      <point x="514.7169811320755" y="137.47169811320754"/>
      <point x="447.66037735849056" y="86.0"/>
      <point x="338.50943396226415" y="86.0" type="curve" smooth="yes"/>
      <point x="222.67924528301887" y="86.0"/>
      <point x="175.0" y="137.67924528301887"/>
      <point x="182.69811320754718" y="215.96226415094338" type="curve" smooth="yes"/>
      <point x="230.18867924528303" y="676.9811320754717" type="line" smooth="yes"/>
      <point x="231.49056603773585" y="692.7924528301887"/>
      <point x="220.67924528301887" y="702.0"/>
      <point x="187.45283018867926" y="702.0" type="curve" smooth="yes"/>
      <point x="171.60377358490567" y="702.0" type="line" smooth="yes"/>
      <point x="139.67924528301887" y="702.0"/>
      <point x="123.56603773584905" y="693.0943396226415"/>
      <point x="122.26415094339623" y="676.9811320754717" type="curve" smooth="yes"/>
      <point x="75.16981132075472" y="215.41509433962264" type="line" smooth="yes"/>
      <point x="60.16981132075472" y="70.20754716981132"/>
      <point x="153.18867924528303" y="-6.60377358490566"/>
    </contour>
  </outline>
</glyph>
<glyph name="V" format="2">
  <advance width="617.0"/>
  <unicode hex="0056"/>
  <outline>
    <contour>
      <point x="262.9811320754717" y="-2.0" type="curve" smooth="yes"/>
      <point x="300.3207547169811" y="-2.0" type="line" smooth="yes"/>
      <point x="323.0377358490566" y="-2.0"/>
      <point x="340.8490566037736" y="2.30188679245283"/>
      <point x="346.45283018867923" y="15.50943396226415" type="curve" smooth="yes"/>
      <point x="639.9245283018868" y="668.2830188679245" type="line" smooth="yes"/>
      <point x="642.9245283018868" y="674.2830188679245"/>
      <point x="644.622641509434" y="679.2830188679245"/>
      <point x="644.622641509434" y="683.5849056603773" type="curve" smooth="yes"/>
      <point x="644.622641509434" y="697.5094339622641"/>
      <point x="625.2830188679245" y="702.0"/>
      <point x="598.0943396226415" y="702.0" type="curve" smooth="yes"/>
      <point x="584.8490566037735" y="702.0" type="line" smooth="yes"/>
      <point x="562.433962264151" y="702.0"/>
      <point x="543.7169811320755" y="696.7924528301887"/>
      <point x="537.5094339622641" y="682.0754716981132" type="curve" smooth="yes"/>
      <point x="328.3207547169811" y="211.0754716981132" type="line" smooth="yes"/>
      <point x="319.0188679245283" y="189.56603773584905"/>
      <point x="305.7169811320755" y="152.0566037735849"/>
      <point x="297.7169811320755" y="124.45283018867924" type="curve"/>
      <point x="294.41509433962267" y="124.45283018867924" type="line"/>
      <point x="291.3207547169811" y="153.22641509433961"/>
      <point x="285.3207547169811" y="192.73584905660377"/>
      <point x="280.1132075471698" y="216.47169811320754" type="curve" smooth="yes"/>
      <point x="171.88679245283018" y="682.0754716981132" type="line" smooth="yes"/>
      <point x="168.28301886792454" y="697.0943396226415"/>
      <point x="150.47169811320754" y="702.0"/>
      <point x="127.75471698113208" y="702.0" type="curve" smooth="yes"/>
      <point x="109.81132075471699" y="702.0" type="line" smooth="yes"/>
      <point x="72.18867924528301" y="702.0"/>
      <point x="56.075471698113205" y="692.0943396226415"/>
      <point x="59.679245283018865" y="675.6792452830189" type="curve" smooth="yes"/>
      <point x="219.45283018867926" y="16.90566037735849" type="line" smooth="yes"/>
      <point x="222.75471698113208" y="2.30188679245283"/>
      <point x="239.96226415094338" y="-2.0"/>
    </contour>
  </outline>
</glyph>
<glyph name="W" format="2">
  <advance width="882.0"/>
  <unicode hex="0057"/>
  <anchor x="484.62264150943395" y="700.0" name="top"/>
  <outline>
    <contour>
      <point x="197.26415094339623" y="-2.0" type="curve" smooth="yes"/>
      <point x="247.62264150943398" y="-2.0" type="line" smooth="yes"/>
      <point x="268.64150943396226" y="-2.0"/>
      <point x="288.1509433962264" y="2.9056603773584904"/>
      <point x="293.45283018867923" y="15.50943396226415" type="curve" smooth="yes"/>
      <point x="421.811320754717" y="366.0377358490566" type="line" smooth="yes"/>
      <point x="442.9811320754717" y="424.9622641509434"/>
      <point x="457.6792452830189" y="478.54716981132077"/>
      <point x="467.07547169811323" y="521.4150943396227" type="curve"/>
      <point x="471.07547169811323" y="521.4150943396227" type="line"/>
      <point x="469.2830188679245" y="483.2641509433962"/>
      <point x="475.07547169811323" y="403.75471698113205"/>
      <point x="485.35849056603774" y="335.52830188679246" type="curve" smooth="yes"/>
      <point x="534.6415094339623" y="15.50943396226415" type="line" smooth="yes"/>
      <point x="536.6415094339623" y="2.9056603773584904"/>
      <point x="555.1509433962265" y="-2.0"/>
      <point x="577.8679245283018" y="-2.0" type="curve" smooth="yes"/>
      <point x="628.5283018867924" y="-2.0" type="line" smooth="yes"/>
      <point x="650.6415094339623" y="-2.0"/>
      <point x="670.0566037735849" y="2.9056603773584904"/>
      <point x="674.3584905660377" y="15.50943396226415" type="curve" smooth="yes"/>
      <point x="914.7358490566038" y="676.2830188679245" type="line" smooth="yes"/>
      <point x="921.0377358490566" y="693.7924528301887"/>
      <point x="902.9245283018868" y="702.0"/>
      <point x="870.0" y="702.0" type="curve" smooth="yes"/>
      <point x="862.4905660377359" y="702.0" type="line" smooth="yes"/>
      <point x="836.7547169811321" y="702.0"/>
      <point x="817.6415094339623" y="696.188679245283"/>
      <point x="812.7358490566038" y="681.4716981132076" type="curve" smooth="yes"/>
      <point x="658.8490566037735" y="245.67924528301887" type="line" smooth="yes"/>
      <point x="648.433962264151" y="214.22641509433961"/>
      <point x="632.622641509434" y="162.16981132075472"/>
      <point x="622.7169811320755" y="124.24528301886792" type="curve"/>
      <point x="618.7169811320755" y="124.24528301886792" type="line"/>
      <point x="617.811320754717" y="157.37735849056602"/>
      <point x="613.6037735849056" y="206.64150943396226"/>
      <point x="604.1132075471698" y="275.0" type="curve" smooth="yes"/>
      <point x="545.4528301886793" y="683.7924528301887" type="line" smooth="yes"/>
      <point x="543.4528301886793" y="697.6981132075472"/>
      <point x="526.5471698113207" y="702.0"/>
      <point x="502.92452830188677" y="702.0" type="curve" smooth="yes"/>
      <point x="480.2830188679245" y="702.0" type="line" smooth="yes"/>
      <point x="453.1698113207547" y="702.0"/>
      <point x="440.45283018867923" y="697.6981132075472"/>
      <point x="435.1509433962264" y="683.7924528301887" type="curve" smooth="yes"/>
      <point x="279.75471698113205" y="244.2830188679245" type="line" smooth="yes"/>
      <point x="267.64150943396226" y="208.22641509433961"/>
      <point x="252.22641509433961" y="156.8679245283019"/>
      <point x="243.9245283018868" y="124.24528301886792" type="curve"/>
      <point x="239.9245283018868" y="124.24528301886792" type="line"/>
      <point x="238.62264150943398" y="155.54716981132074"/>
      <point x="234.71698113207546" y="205.81132075471697"/>
      <point x="225.22641509433961" y="275.6981132075472" type="curve" smooth="yes"/>
      <point x="164.67924528301887" y="681.4716981132076" type="line" smooth="yes"/>
      <point x="162.37735849056602" y="696.188679245283"/>
      <point x="143.8679245283019" y="702.0"/>
      <point x="118.13207547169812" y="702.0" type="curve" smooth="yes"/>
      <point x="104.0" y="702.0" type="line" smooth="yes"/>
      <point x="74.05660377358491" y="702.0"/>
      <point x="49.9622641509434" y="696.9811320754717"/>
      <point x="52.9622641509434" y="677.4716981132076" type="curve" smooth="yes"/>
      <point x="154.03773584905662" y="16.11320754716981" type="line" smooth="yes"/>
      <point x="156.03773584905662" y="2.9056603773584904"/>
      <point x="173.64150943396226" y="-2.0"/>
    </contour>
  </outline>
</glyph>
<glyph name="X" format="2">
  <advance width="611.0"/>
  <unicode hex="0058"/>
  <outline>
    <contour>
      <point x="36.320754716981135" y="-2.0" type="curve" smooth="yes"/>
      <point x="58.075471698113205" y="-2.0" type="line" smooth="yes"/>
      <point x="79.39622641509433" y="-2.0"/>
      <point x="98.30188679245283" y="0.39622641509433965"/>
      <point x="114.79245283018868" y="21.88679245283019" type="curve" smooth="yes"/>
      <point x="308.49056603773585" y="278.39622641509436" type="line"/>
      <point x="449.7358490566038" y="14.20754716981132" type="line" smooth="yes"/>
      <point x="457.0377358490566" y="1.3018867924528301"/>
      <point x="471.33962264150944" y="-2.0"/>
      <point x="496.5660377358491" y="-2.0" type="curve" smooth="yes"/>
      <point x="513.0" y="-2.0" type="line" smooth="yes"/>
      <point x="546.8867924528302" y="-2.0"/>
      <point x="561.3396226415094" y="3.4905660377358494"/>
      <point x="561.3396226415094" y="18.81132075471698" type="curve" smooth="yes"/>
      <point x="561.3396226415094" y="23.11320754716981"/>
      <point x="558.9433962264151" y="29.41509433962264"/>
      <point x="555.6415094339623" y="35.716981132075475" type="curve"/>
      <point x="376.8679245283019" y="365.58490566037733" type="line"/>
      <point x="608.2452830188679" y="664.2830188679245" type="line"/>
      <point x="613.8490566037735" y="672.188679245283"/>
      <point x="618.2452830188679" y="679.4905660377359"/>
      <point x="618.2452830188679" y="684.7924528301887" type="curve" smooth="yes"/>
      <point x="618.2452830188679" y="698.5094339622641"/>
      <point x="598.6037735849056" y="702.0"/>
      <point x="569.0188679245283" y="702.0" type="curve" smooth="yes"/>
      <point x="551.5471698113207" y="702.0" type="line" smooth="yes"/>
      <point x="530.2264150943396" y="702.0"/>
      <point x="511.0188679245283" y="699.3018867924528"/>
      <point x="501.811320754717" y="686.4905660377359" type="curve" smooth="yes"/>
      <point x="325.811320754717" y="453.79245283018867" type="line"/>
      <point x="202.77358490566039" y="685.7924528301887" type="line" smooth="yes"/>
      <point x="195.47169811320754" y="698.6981132075472"/>
      <point x="179.35849056603774" y="702.0"/>
      <point x="155.9433962264151" y="702.0" type="curve" smooth="yes"/>
      <point x="140.30188679245282" y="702.0" type="line" smooth="yes"/>
      <point x="105.50943396226415" y="702.0"/>
      <point x="91.66037735849056" y="696.811320754717"/>
      <point x="91.66037735849056" y="681.4905660377359" type="curve" smooth="yes"/>
      <point x="91.66037735849056" y="676.4905660377359"/>
      <point x="94.35849056603773" y="670.8867924528302"/>
      <point x="97.66037735849056" y="664.2830188679245" type="curve" smooth="yes"/>
      <point x="258.24528301886795" y="368.0" type="line"/>
      <point x="1.5849056603773586" y="35.716981132075475" type="line"/>
      <point x="-5.018867924528301" y="27.81132075471698"/>
      <point x="-8.716981132075471" y="20.50943396226415"/>
      <point x="-8.716981132075471" y="15.20754716981132" type="curve" smooth="yes"/>
      <point x="-8.716981132075471" y="1.4905660377358492"/>
      <point x="7.132075471698113" y="-2.0"/>
    </contour>
  </outline>
</glyph>
<glyph name="Y" format="2">
  <advance width="559.0"/>
  <unicode hex="0059"/>
  <anchor x="253.0" y="0.0" name="bottom"/>
  <anchor x="327.0" y="700.0" name="top"/>
  <outline>
    <contour>
      <point x="244.0754716981132" y="-2.0" type="curve" smooth="yes"/>
      <point x="259.92452830188677" y="-2.0" type="line" smooth="yes"/>
      <point x="290.75471698113205" y="-2.0"/>
      <point x="306.9622641509434" y="6.90566037735849"/>
      <point x="308.2641509433962" y="23.0188679245283" type="curve" smooth="yes"/>
      <point x="342.35849056603774" y="349.0566037735849" type="line"/>
      <point x="582.3396226415094" y="663.9811320754717" type="line" smooth="yes"/>
      <point x="587.9433962264151" y="671.8867924528302"/>
      <point x="592.6415094339623" y="679.4905660377359"/>
      <point x="592.6415094339623" y="684.7924528301887" type="curve" smooth="yes"/>
      <point x="592.6415094339623" y="697.2075471698113"/>
      <point x="573.4905660377359" y="701.3018867924528"/>
      <point x="549.0943396226415" y="702.0" type="curve"/>
      <point x="530.5471698113207" y="702.0" type="line"/>
      <point x="507.8301886792453" y="702.0"/>
      <point x="488.3207547169811" y="698.6981132075472"/>
      <point x="479.7169811320755" y="686.4905660377359" type="curve" smooth="yes"/>
      <point x="300.50943396226415" y="449.45283018867923" type="line"/>
      <point x="173.9811320754717" y="685.7924528301887" type="line" smooth="yes"/>
      <point x="166.9811320754717" y="698.6981132075472"/>
      <point x="150.56603773584905" y="702.0"/>
      <point x="127.15094339622641" y="702.0" type="curve" smooth="yes"/>
      <point x="107.88679245283019" y="702.0" type="line" smooth="yes"/>
      <point x="73.09433962264151" y="702.0"/>
      <point x="55.75471698113208" y="696.811320754717"/>
      <point x="55.75471698113208" y="681.4905660377359" type="curve" smooth="yes"/>
      <point x="55.75471698113208" y="676.188679245283"/>
      <point x="57.75471698113208" y="670.5849056603773"/>
      <point x="61.75471698113208" y="663.9811320754717" type="curve" smooth="yes"/>
      <point x="234.43396226415095" y="352.0566037735849" type="line"/>
      <point x="200.33962264150944" y="23.0188679245283" type="line"/>
      <point x="200.33962264150944" y="6.90566037735849"/>
      <point x="210.1509433962264" y="-2.0"/>
    </contour>
  </outline>
</glyph>
<glyph name="Z" format="2">
  <advance width="616.0"/>
  <unicode hex="005A"/>
  <anchor x="297.0" y="0.0" name="bottom"/>
  <anchor x="356.9056603773585" y="700.0" name="top"/>
  <outline>
    <contour>
      <point x="44.62264150943396" y="0.0" type="curve" smooth="yes"/>
      <point x="523.6037735849056" y="0.0" type="line" smooth="yes"/>
      <point x="539.7169811320755" y="0.0"/>
      <point x="550.2264150943396" y="10.81132075471698"/>
      <point x="553.5283018867924" y="41.15094339622642" type="curve" smooth="yes"/>
      <point x="555.2264150943396" y="54.943396226415096" type="line" smooth="yes"/>
      <point x="558.5283018867924" y="81.79245283018868"/>
      <point x="549.5283018867924" y="92.60377358490567"/>
      <point x="533.4150943396227" y="92.60377358490567" type="curve" smooth="yes"/>
      <point x="169.0754716981132" y="92.60377358490567" type="line"/>
      <point x="609.9056603773585" y="622.3207547169811" type="line" smooth="yes"/>
      <point x="614.2075471698113" y="627.622641509434"/>
      <point x="615.5094339622641" y="632.9245283018868"/>
      <point x="615.5094339622641" y="640.2264150943396" type="curve" smooth="yes"/>
      <point x="615.5094339622641" y="663.3396226415094"/>
      <point x="607.3962264150944" y="700.0"/>
      <point x="589.7924528301887" y="700.0" type="curve" smooth="yes"/>
      <point x="138.79245283018867" y="700.0" type="line" smooth="yes"/>
      <point x="122.67924528301887" y="700.0"/>
      <point x="112.16981132075472" y="691.9811320754717"/>
      <point x="108.86792452830188" y="661.6415094339623" type="curve" smooth="yes"/>
      <point x="107.16981132075472" y="646.4528301886793" type="line" smooth="yes"/>
      <point x="104.56603773584905" y="619.6037735849056"/>
      <point x="112.86792452830188" y="607.3962264150944"/>
      <point x="128.9811320754717" y="607.3962264150944" type="curve" smooth="yes"/>
      <point x="463.52830188679246" y="607.3962264150944" type="line"/>
      <point x="25.09433962264151" y="80.47169811320755" type="line" smooth="yes"/>
      <point x="19.69811320754717" y="74.37735849056604"/>
      <point x="17.39622641509434" y="65.67924528301887"/>
      <point x="17.39622641509434" y="59.075471698113205" type="curve" smooth="yes"/>
      <point x="17.39622641509434" y="36.660377358490564"/>
      <point x="26.20754716981132" y="0.0"/>
    </contour>
  </outline>
</glyph>
<glyph name="bracketleft" format="2">
  <advance width="291.0"/>
  <unicode hex="005B"/>
  <outline>
    <contour>
      <point x="67.77358490566037" y="-138.0" type="curve" smooth="yes"/>
      <point x="191.69811320754718" y="-138.0" type="line" smooth="yes"/>
      <point x="205.20754716981133" y="-138.0"/>
      <point x="215.9056603773585" y="-131.18867924528303"/>
      <point x="217.9056603773585" y="-107.77358490566037" type="curve" smooth="yes"/>
      <point x="218.9056603773585" y="-93.77358490566037" type="line" smooth="yes"/>
      <point x="220.20754716981133" y="-71.75471698113208"/>
      <point x="208.9245283018868" y="-66.0377358490566"/>
      <point x="195.41509433962264" y="-66.0377358490566" type="curve" smooth="yes"/>
      <point x="128.33962264150944" y="-66.0377358490566" type="line"/>
      <point x="208.22641509433961" y="696.0377358490566" type="line"/>
      <point x="274.6981132075472" y="696.0377358490566" type="line" smooth="yes"/>
      <point x="294.39622641509436" y="696.0377358490566"/>
      <point x="303.0" y="702.5471698113207"/>
      <point x="305.0" y="725.9622641509434" type="curve" smooth="yes"/>
      <point x="306.0" y="738.1698113207547" type="line" smooth="yes"/>
      <point x="308.0" y="762.2830188679245"/>
      <point x="300.20754716981133" y="768.0"/>
      <point x="282.9056603773585" y="768.0" type="curve" smooth="yes"/>
      <point x="162.77358490566039" y="768.0" type="line" smooth="yes"/>
      <point x="139.66037735849056" y="768.0"/>
      <point x="128.75471698113208" y="758.0943396226415"/>
      <point x="126.45283018867924" y="734.9811320754717" type="curve" smooth="yes"/>
      <point x="38.056603773584904" y="-106.0" type="line" smooth="yes"/>
      <point x="36.056603773584904" y="-129.30188679245282"/>
      <point x="44.264150943396224" y="-138.0"/>
    </contour>
  </outline>
</glyph>
<glyph name="backslash" format="2">
  <advance width="422.0"/>
  <unicode hex="005C"/>
  <outline>
    <contour>
      <point x="327.37735849056605" y="-79.0" type="curve" smooth="yes"/>
      <point x="336.3018867924528" y="-79.0" type="line" smooth="yes"/>
      <point x="360.8301886792453" y="-79.0"/>
      <point x="369.1509433962264" y="-74.39622641509433"/>
      <point x="369.1509433962264" y="-67.18867924528301" type="curve" smooth="yes"/>
      <point x="369.1509433962264" y="-64.88679245283019"/>
      <point x="367.54716981132077" y="-59.37735849056604"/>
      <point x="365.9433962264151" y="-53.56603773584906" type="curve" smooth="yes"/>
      <point x="144.56603773584905" y="683.9811320754717" type="line" smooth="yes"/>
      <point x="140.66037735849056" y="697.3962264150944"/>
      <point x="130.73584905660377" y="702.0"/>
      <point x="106.71698113207547" y="702.0" type="curve" smooth="yes"/>
      <point x="98.60377358490567" y="702.0" type="line" smooth="yes"/>
      <point x="72.77358490566037" y="702.0"/>
      <point x="63.15094339622642" y="697.3962264150944"/>
      <point x="63.15094339622642" y="690.188679245283" type="curve" smooth="yes"/>
      <point x="63.15094339622642" y="686.8867924528302"/>
      <point x="65.54716981132076" y="680.7924528301887"/>
      <point x="68.15094339622641" y="670.9811320754717" type="curve" smooth="yes"/>
      <point x="286.33962264150944" y="-57.490566037735846" type="line" smooth="yes"/>
      <point x="290.9433962264151" y="-72.90566037735849"/>
      <point x="302.66037735849056" y="-79.0"/>
    </contour>
  </outline>
</glyph>
<glyph name="bracketright" format="2">
  <advance width="291.0"/>
  <unicode hex="005D"/>
  <outline>
    <contour>
      <point x="14.943396226415093" y="-138.0" type="curve" smooth="yes"/>
      <point x="135.0754716981132" y="-138.0" type="line" smooth="yes"/>
      <point x="158.18867924528303" y="-138.0"/>
      <point x="169.0943396226415" y="-128.0943396226415"/>
      <point x="171.39622641509433" y="-104.98113207547169" type="curve" smooth="yes"/>
      <point x="259.79245283018867" y="736.0" type="line" smooth="yes"/>
      <point x="261.79245283018867" y="759.3018867924528"/>
      <point x="253.58490566037736" y="768.0"/>
      <point x="230.0754716981132" y="768.0" type="curve" smooth="yes"/>
      <point x="106.15094339622641" y="768.0" type="line" smooth="yes"/>
      <point x="92.64150943396227" y="768.0"/>
      <point x="81.94339622641509" y="761.188679245283"/>
      <point x="79.94339622641509" y="737.7735849056604" type="curve" smooth="yes"/>
      <point x="78.94339622641509" y="723.7735849056604" type="line" smooth="yes"/>
      <point x="77.64150943396227" y="701.7547169811321"/>
      <point x="88.9245283018868" y="696.0377358490566"/>
      <point x="102.43396226415095" y="696.0377358490566" type="curve" smooth="yes"/>
      <point x="169.50943396226415" y="696.0377358490566" type="line"/>
      <point x="89.62264150943396" y="-66.0377358490566" type="line"/>
      <point x="23.150943396226417" y="-66.0377358490566" type="line" smooth="yes"/>
      <point x="3.452830188679245" y="-66.0377358490566"/>
      <point x="-5.150943396226415" y="-72.54716981132076"/>
      <point x="-7.150943396226415" y="-95.9622641509434" type="curve" smooth="yes"/>
      <point x="-8.150943396226415" y="-108.16981132075472" type="line" smooth="yes"/>
      <point x="-10.150943396226415" y="-132.28301886792454"/>
      <point x="-2.3584905660377364" y="-138.0"/>
    </contour>
  </outline>
</glyph>
<glyph name="asciicircum" format="2">
  <advance width="450.0"/>
  <unicode hex="005E"/>
  <outline>
    <contour>
      <point x="83.39622641509433" y="319.39622641509436" type="curve" smooth="yes"/>
      <point x="91.60377358490567" y="319.39622641509436" type="line" smooth="yes"/>
      <point x="113.41509433962264" y="319.39622641509436"/>
      <point x="122.62264150943396" y="324.20754716981133"/>
      <point x="130.1320754716981" y="338.92452830188677" type="curve" smooth="yes"/>
      <point x="280.3018867924528" y="631.0566037735849" type="line"/>
      <point x="249.75471698113208" y="631.3584905660377" type="line"/>
      <point x="334.9433962264151" y="340.41509433962267" type="line" smooth="yes"/>
      <point x="339.54716981132077" y="323.60377358490564"/>
      <point x="348.2641509433962" y="319.39622641509436"/>
      <point x="372.77358490566036" y="319.39622641509436" type="curve" smooth="yes"/>
      <point x="377.6792452830189" y="319.39622641509436" type="line" smooth="yes"/>
      <point x="404.0943396226415" y="319.39622641509436"/>
      <point x="412.41509433962267" y="324.39622641509436"/>
      <point x="412.41509433962267" y="332.3018867924528" type="curve" smooth="yes"/>
      <point x="412.41509433962267" y="337.0"/>
      <point x="411.0188679245283" y="343.39622641509436"/>
      <point x="407.41509433962267" y="354.9056603773585" type="curve" smooth="yes"/>
      <point x="316.20754716981133" y="661.5849056603773" type="line"/>
      <point x="310.20754716981133" y="678.7924528301887"/>
      <point x="299.6981132075472" y="684.6037735849056"/>
      <point x="282.0943396226415" y="684.6037735849056" type="curve" smooth="yes"/>
      <point x="258.77358490566036" y="684.6037735849056" type="line" smooth="yes"/>
      <point x="239.8679245283019" y="684.6037735849056"/>
      <point x="228.66037735849056" y="678.0943396226415"/>
      <point x="220.0566037735849" y="661.5849056603773" type="curve" smooth="yes"/>
      <point x="62.056603773584904" y="355.3018867924528" type="line" smooth="yes"/>
      <point x="56.15094339622642" y="343.79245283018867"/>
      <point x="53.75471698113208" y="336.6981132075472"/>
      <point x="53.75471698113208" y="332.0" type="curve" smooth="yes"/>
      <point x="53.75471698113208" y="323.6981132075472"/>
      <point x="60.264150943396224" y="319.39622641509436"/>
    </contour>
  </outline>
</glyph>
<glyph name="underscore" format="2">
  <advance width="534.0"/>
  <unicode hex="005F"/>
  <outline>
    <contour>
      <point x="-39.886792452830186" y="-139.50943396226415" type="curve" smooth="yes"/>
      <point x="489.8867924528302" y="-139.50943396226415" type="line" smooth="yes"/>
      <point x="503.39622641509436" y="-139.50943396226415"/>
      <point x="513.0" y="-133.0943396226415"/>
      <point x="514.9056603773585" y="-112.15094339622641" type="curve" smooth="yes"/>
      <point x="515.9056603773585" y="-100.35849056603773" type="line" smooth="yes"/>
      <point x="517.811320754717" y="-79.41509433962264"/>
      <point x="511.60377358490564" y="-73.69811320754717"/>
      <point x="496.6981132075472" y="-73.69811320754717" type="curve" smooth="yes"/>
      <point x="-34.471698113207545" y="-73.69811320754717" type="line" smooth="yes"/>
      <point x="-47.283018867924525" y="-73.69811320754717"/>
      <point x="-56.490566037735846" y="-80.11320754716981"/>
      <point x="-58.094339622641506" y="-98.75471698113208" type="curve" smooth="yes"/>
      <point x="-59.094339622641506" y="-110.75471698113208" type="line" smooth="yes"/>
      <point x="-60.698113207547166" y="-131.69811320754718"/>
      <point x="-54.79245283018868" y="-139.50943396226415"/>
    </contour>
  </outline>
</glyph>
<glyph name="grave" format="2">
  <advance width="170.0566037735849"/>
  <unicode hex="0060"/>
  <outline>
    <contour>
      <point x="175.32075471698113" y="574.7924528301887" type="curve" smooth="yes"/>
      <point x="195.0566037735849" y="574.7924528301887"/>
      <point x="204.0566037735849" y="579.4905660377359"/>
      <point x="204.0566037735849" y="589.0943396226415" type="curve" smooth="yes"/>
      <point x="204.0566037735849" y="595.3962264150944"/>
      <point x="200.75471698113208" y="603.0943396226415"/>
      <point x="195.45283018867926" y="615.6981132075472" type="curve" smooth="yes"/>
      <point x="164.66037735849056" y="688.0754716981132" type="line" smooth="yes"/>
      <point x="155.24528301886792" y="709.6037735849056"/>
      <point x="144.8490566037736" y="718.0"/>
      <point x="97.50943396226415" y="718.0" type="curve" smooth="yes"/>
      <point x="60.79245283018868" y="718.0"/>
      <point x="46.0" y="713.0"/>
      <point x="46.0" y="699.3962264150944" type="curve" smooth="yes"/>
      <point x="46.0" y="690.3962264150944"/>
      <point x="52.39622641509434" y="679.7924528301887"/>
      <point x="72.62264150943396" y="654.2641509433962" type="curve" smooth="yes"/>
      <point x="114.79245283018868" y="600.6037735849056" type="line" smooth="yes"/>
      <point x="132.0943396226415" y="579.3018867924528"/>
      <point x="146.41509433962264" y="574.7924528301887"/>
    </contour>
  </outline>
</glyph>
<glyph name="a" format="2">
  <advance width="545.0"/>
  <unicode hex="0061"/>
  <anchor x="231.0" y="0.0" name="bottom"/>
  <anchor x="499.79245283018867" y="0.0" name="ogonek"/>
  <anchor x="298.60377358490564" y="523.0" name="top"/>
  <outline>
    <contour>
      <point x="200.66037735849056" y="-6.90566037735849" type="curve" smooth="yes"/>
      <point x="258.66037735849056" y="-6.90566037735849"/>
      <point x="313.54716981132077" y="24.0"/>
      <point x="350.62264150943395" y="91.73584905660377" type="curve"/>
      <point x="353.45283018867923" y="26.566037735849058"/>
      <point x="383.6792452830189" y="-6.60377358490566"/>
      <point x="448.1698113207547" y="-6.60377358490566" type="curve" smooth="yes"/>
      <point x="471.3018867924528" y="-6.60377358490566"/>
      <point x="511.0188679245283" y="3.5094339622641506"/>
      <point x="516.622641509434" y="32.132075471698116" type="curve" smooth="yes"/>
      <point x="521.5283018867924" y="58.056603773584904"/>
      <point x="521.5283018867924" y="72.56603773584905"/>
      <point x="521.5283018867924" y="75.0754716981132" type="curve" smooth="yes"/>
      <point x="521.5283018867924" y="81.98113207547169"/>
      <point x="518.8301886792453" y="84.28301886792453"/>
      <point x="514.9245283018868" y="84.28301886792453" type="curve" smooth="yes"/>
      <point x="509.52830188679246" y="84.28301886792453"/>
      <point x="497.8301886792453" y="77.58490566037736"/>
      <point x="480.33962264150944" y="77.58490566037736" type="curve" smooth="yes"/>
      <point x="460.0377358490566" y="77.58490566037736"/>
      <point x="450.4339622641509" y="91.0754716981132"/>
      <point x="453.4339622641509" y="119.0754716981132" type="curve" smooth="yes"/>
      <point x="491.22641509433964" y="494.0" type="line" smooth="yes"/>
      <point x="493.22641509433964" y="516.3962264150944"/>
      <point x="483.3018867924528" y="524.6981132075472"/>
      <point x="457.2641509433962" y="524.6981132075472" type="curve" smooth="yes"/>
      <point x="449.45283018867923" y="524.6981132075472" type="line" smooth="yes"/>
      <point x="414.50943396226415" y="524.3962264150944"/>
      <point x="408.7169811320755" y="506.7169811320755"/>
      <point x="398.41509433962267" y="475.60377358490564" type="curve"/>
      <point x="376.7169811320755" y="496.3018867924528"/>
      <point x="333.7169811320755" y="529.3018867924528"/>
      <point x="273.22641509433964" y="529.3018867924528" type="curve" smooth="yes"/>
      <point x="129.66037735849056" y="529.3018867924528"/>
      <point x="35.16981132075472" y="397.20754716981133"/>
      <point x="35.16981132075472" y="209.39622641509433" type="curve" smooth="yes"/>
      <point x="35.16981132075472" y="45.35849056603774"/>
      <point x="126.0" y="-6.90566037735849"/>
    </contour>
    <contour>
      <point x="230.83018867924528" y="80.58490566037736" type="curve" smooth="yes"/>
      <point x="179.24528301886792" y="80.58490566037736"/>
      <point x="141.18867924528303" y="115.88679245283019"/>
      <point x="141.18867924528303" y="216.30188679245282" type="curve" smooth="yes"/>
      <point x="141.18867924528303" y="338.7169811320755"/>
      <point x="187.8679245283019" y="443.0188679245283"/>
      <point x="280.6981132075472" y="443.0188679245283" type="curve" smooth="yes"/>
      <point x="331.0377358490566" y="443.0188679245283"/>
      <point x="363.20754716981133" y="422.64150943396226"/>
      <point x="381.60377358490564" y="407.64150943396226" type="curve"/>
      <point x="377.6981132075472" y="389.8301886792453"/>
      <point x="375.6981132075472" y="373.22641509433964"/>
      <point x="373.0943396226415" y="348.2830188679245" type="curve" smooth="yes"/>
      <point x="358.39622641509436" y="216.0754716981132" type="line"/>
      <point x="323.7358490566038" y="114.56603773584905"/>
      <point x="271.20754716981133" y="80.58490566037736"/>
    </contour>
  </outline>
</glyph>
<glyph name="b" format="2">
  <advance width="569.0"/>
  <unicode hex="0062"/>
  <outline>
    <contour>
      <point x="256.8679245283019" y="-6.60377358490566" type="curve" smooth="yes"/>
      <point x="412.4339622641509" y="-6.60377358490566"/>
      <point x="514.9245283018868" y="127.58490566037736"/>
      <point x="514.9245283018868" y="315.39622641509436" type="curve" smooth="yes"/>
      <point x="514.9245283018868" y="479.4339622641509"/>
      <point x="413.3018867924528" y="529.6037735849056"/>
      <point x="329.4339622641509" y="529.6037735849056" type="curve" smooth="yes"/>
      <point x="273.1509433962264" y="529.6037735849056"/>
      <point x="219.9811320754717" y="501.7169811320755"/>
      <point x="181.9056603773585" y="439.79245283018867" type="curve"/>
      <point x="212.39622641509433" y="727.8867924528302" type="line"/>
      <point x="212.39622641509433" y="743.188679245283"/>
      <point x="200.28301886792454" y="752.6037735849056"/>
      <point x="168.66037735849056" y="752.6037735849056" type="curve" smooth="yes"/>
      <point x="157.41509433962264" y="752.6037735849056" type="line" smooth="yes"/>
      <point x="127.49056603773585" y="752.6037735849056"/>
      <point x="111.0754716981132" y="745.0943396226415"/>
      <point x="109.0754716981132" y="727.5849056603773" type="curve" smooth="yes"/>
      <point x="34.37735849056604" y="21.81132075471698" type="line" smooth="yes"/>
      <point x="33.075471698113205" y="6.30188679245283"/>
      <point x="43.301886792452834" y="-2.0"/>
      <point x="69.33962264150944" y="-2.0" type="curve" smooth="yes"/>
      <point x="78.54716981132076" y="-2.0" type="line" smooth="yes"/>
      <point x="109.0" y="-1.6981132075471699"/>
      <point x="119.28301886792453" y="18.77358490566038"/>
      <point x="127.49056603773585" y="46.79245283018868" type="curve"/>
      <point x="150.18867924528303" y="25.09433962264151"/>
      <point x="194.9811320754717" y="-6.60377358490566"/>
    </contour>
    <contour>
      <point x="241.0188679245283" y="79.67924528301887" type="curve" smooth="yes"/>
      <point x="195.56603773584905" y="79.67924528301887"/>
      <point x="163.39622641509433" y="99.35849056603773"/>
      <point x="145.30188679245282" y="114.75471698113208" type="curve"/>
      <point x="148.60377358490567" y="133.9811320754717"/>
      <point x="152.20754716981133" y="154.9056603773585"/>
      <point x="154.50943396226415" y="176.22641509433961" type="curve" smooth="yes"/>
      <point x="168.50943396226415" y="309.3207547169811" type="line"/>
      <point x="203.8679245283019" y="409.1320754716981"/>
      <point x="258.188679245283" y="442.1132075471698"/>
      <point x="299.2641509433962" y="442.1132075471698" type="curve" smooth="yes"/>
      <point x="363.75471698113205" y="442.1132075471698"/>
      <point x="408.9056603773585" y="409.811320754717"/>
      <point x="408.9056603773585" y="308.49056603773585" type="curve" smooth="yes"/>
      <point x="408.9056603773585" y="186.0754716981132"/>
      <point x="368.8867924528302" y="79.67924528301887"/>
    </contour>
  </outline>
</glyph>
<glyph name="c" format="2">
  <advance width="485.0"/>
  <unicode hex="0063"/>
  <anchor x="266.0" y="0.0" name="bottom"/>
  <anchor x="307.2830188679245" y="523.0" name="top"/>
  <outline>
    <contour>
      <point x="265.58490566037733" y="-6.60377358490566" type="curve" smooth="yes"/>
      <point x="328.0" y="-6.60377358490566"/>
      <point x="423.62264150943395" y="17.471698113207548"/>
      <point x="423.62264150943395" y="52.43396226415094" type="curve" smooth="yes"/>
      <point x="423.62264150943395" y="69.54716981132076"/>
      <point x="406.20754716981133" y="108.67924528301887"/>
      <point x="390.79245283018867" y="108.67924528301887" type="curve" smooth="yes"/>
      <point x="388.8867924528302" y="108.67924528301887"/>
      <point x="383.58490566037733" y="106.37735849056604"/>
      <point x="376.9811320754717" y="104.0754716981132" type="curve"/>
      <point x="356.47169811320754" y="95.0754716981132"/>
      <point x="320.0" y="78.98113207547169"/>
      <point x="275.50943396226415" y="78.98113207547169" type="curve" smooth="yes"/>
      <point x="188.16981132075472" y="78.98113207547169"/>
      <point x="151.79245283018867" y="121.56603773584905"/>
      <point x="151.79245283018867" y="214.71698113207546" type="curve" smooth="yes"/>
      <point x="151.79245283018867" y="363.75471698113205"/>
      <point x="207.26415094339623" y="444.0188679245283"/>
      <point x="309.3207547169811" y="444.0188679245283" type="curve" smooth="yes"/>
      <point x="356.0943396226415" y="444.0188679245283"/>
      <point x="386.1698113207547" y="428.92452830188677"/>
      <point x="401.8679245283019" y="420.92452830188677" type="curve" smooth="yes"/>
      <point x="409.188679245283" y="417.1132075471698"/>
      <point x="413.2830188679245" y="415.7169811320755"/>
      <point x="415.2830188679245" y="415.7169811320755" type="curve" smooth="yes"/>
      <point x="428.0943396226415" y="415.7169811320755"/>
      <point x="459.8301886792453" y="460.75471698113205"/>
      <point x="459.8301886792453" y="478.2641509433962" type="curve" smooth="yes"/>
      <point x="459.8301886792453" y="508.3018867924528"/>
      <point x="384.49056603773585" y="529.6037735849056"/>
      <point x="317.1132075471698" y="529.6037735849056" type="curve" smooth="yes"/>
      <point x="142.37735849056602" y="529.6037735849056"/>
      <point x="42.77358490566038" y="412.1132075471698"/>
      <point x="42.77358490566038" y="205.69811320754718" type="curve" smooth="yes"/>
      <point x="42.77358490566038" y="57.81132075471698"/>
      <point x="118.16981132075472" y="-6.60377358490566"/>
    </contour>
  </outline>
</glyph>
<glyph name="d" format="2">
  <advance width="565.0"/>
  <unicode hex="0064"/>
  <anchor x="257.9811320754717" y="0.0" name="bottom"/>
  <anchor x="458.8679245283019" y="630.0" name="center"/>
  <anchor x="582.2452830188679" y="752.0" name="topright"/>
  <outline>
    <contour>
      <point x="219.64150943396226" y="-6.60377358490566" type="curve" smooth="yes"/>
      <point x="279.33962264150944" y="-6.60377358490566"/>
      <point x="335.3207547169811" y="24.0"/>
      <point x="373.0943396226415" y="92.0377358490566" type="curve"/>
      <point x="377.3207547169811" y="25.471698113207548"/>
      <point x="405.8490566037736" y="-6.60377358490566"/>
      <point x="470.64150943396226" y="-6.60377358490566" type="curve" smooth="yes"/>
      <point x="493.77358490566036" y="-6.60377358490566"/>
      <point x="533.4905660377359" y="3.5094339622641506"/>
      <point x="539.0943396226415" y="32.132075471698116" type="curve" smooth="yes"/>
      <point x="544.0" y="58.056603773584904"/>
      <point x="544.0" y="72.56603773584905"/>
      <point x="544.0" y="75.0754716981132" type="curve" smooth="yes"/>
      <point x="544.0" y="81.98113207547169"/>
      <point x="541.3018867924528" y="84.28301886792453"/>
      <point x="537.3962264150944" y="84.28301886792453" type="curve" smooth="yes"/>
      <point x="532.0" y="84.28301886792453"/>
      <point x="520.3018867924528" y="77.58490566037736"/>
      <point x="502.811320754717" y="77.58490566037736" type="curve" smooth="yes"/>
      <point x="482.50943396226415" y="77.58490566037736"/>
      <point x="472.9056603773585" y="91.0754716981132"/>
      <point x="475.9056603773585" y="119.0754716981132" type="curve" smooth="yes"/>
      <point x="538.6981132075472" y="724.188679245283" type="line" smooth="yes"/>
      <point x="540.6981132075472" y="743.188679245283"/>
      <point x="527.9811320754717" y="752.6037735849056"/>
      <point x="494.9622641509434" y="752.6037735849056" type="curve" smooth="yes"/>
      <point x="483.7169811320755" y="752.6037735849056" type="line" smooth="yes"/>
      <point x="453.79245283018867" y="752.6037735849056"/>
      <point x="437.37735849056605" y="745.0943396226415"/>
      <point x="435.37735849056605" y="727.5849056603773" type="curve" smooth="yes"/>
      <point x="408.9811320754717" y="485.811320754717" type="line"/>
      <point x="384.58490566037733" y="506.20754716981133"/>
      <point x="344.79245283018867" y="529.6037735849056"/>
      <point x="281.7358490566038" y="529.6037735849056" type="curve" smooth="yes"/>
      <point x="134.26415094339623" y="529.6037735849056"/>
      <point x="36.471698113207545" y="397.50943396226415"/>
      <point x="36.471698113207545" y="209.69811320754718" type="curve" smooth="yes"/>
      <point x="36.471698113207545" y="45.660377358490564"/>
      <point x="137.58490566037736" y="-6.60377358490566"/>
    </contour>
    <contour>
      <point x="249.81132075471697" y="80.88679245283019" type="curve" smooth="yes"/>
      <point x="181.75471698113208" y="80.88679245283019"/>
      <point x="143.18867924528303" y="116.18867924528301"/>
      <point x="143.18867924528303" y="216.60377358490567" type="curve" smooth="yes"/>
      <point x="143.18867924528303" y="339.0188679245283"/>
      <point x="182.0" y="443.3207547169811"/>
      <point x="300.37735849056605" y="443.3207547169811" type="curve" smooth="yes"/>
      <point x="350.811320754717" y="443.3207547169811"/>
      <point x="382.2830188679245" y="424.64150943396226"/>
      <point x="401.07547169811323" y="409.54716981132077" type="curve"/>
      <point x="381.1698113207547" y="215.28301886792454" type="line"/>
      <point x="345.811320754717" y="114.16981132075472"/>
      <point x="291.188679245283" y="80.88679245283019"/>
    </contour>
  </outline>
</glyph>
<glyph name="e" format="2">
  <advance width="539.0"/>
  <unicode hex="0065"/>
  <anchor x="270.0" y="0.0" name="bottom"/>
  <anchor x="371.7169811320755" y="0.0" name="ogonek"/>
  <anchor x="308.188679245283" y="523.0" name="top"/>
  <outline>
    <contour>
      <point x="312.8867924528302" y="529.6037735849056" type="curve" smooth="yes"/>
      <point x="135.56603773584905" y="529.6037735849056"/>
      <point x="42.075471698113205" y="399.0188679245283"/>
      <point x="42.075471698113205" y="204.32075471698113" type="curve" smooth="yes"/>
      <point x="42.075471698113205" y="38.60377358490566"/>
      <point x="152.77358490566039" y="-6.60377358490566"/>
      <point x="271.0943396226415" y="-6.60377358490566" type="curve" smooth="yes"/>
      <point x="317.7169811320755" y="-6.60377358490566"/>
      <point x="427.0" y="9.79245283018868"/>
      <point x="438.1132075471698" y="59.20754716981132" type="curve" smooth="yes"/>
      <point x="442.41509433962267" y="78.69811320754717"/>
      <point x="444.0188679245283" y="104.52830188679245"/>
      <point x="444.0188679245283" y="113.86792452830188" type="curve" smooth="yes"/>
      <point x="444.0188679245283" y="126.16981132075472"/>
      <point x="440.7169811320755" y="126.47169811320755"/>
      <point x="436.7169811320755" y="126.47169811320755" type="curve" smooth="yes"/>
      <point x="423.62264150943395" y="126.47169811320755"/>
      <point x="368.6981132075472" y="78.98113207547169"/>
      <point x="281.7169811320755" y="78.98113207547169" type="curve" smooth="yes"/>
      <point x="201.56603773584905" y="78.98113207547169"/>
      <point x="148.0943396226415" y="108.35849056603773"/>
      <point x="148.0943396226415" y="214.52830188679246" type="curve" smooth="yes"/>
      <point x="148.0943396226415" y="261.1132075471698" type="line"/>
      <point x="125.66037735849056" y="221.58490566037736" type="line"/>
      <point x="152.49056603773585" y="215.28301886792454"/>
      <point x="187.0" y="209.9811320754717"/>
      <point x="239.52830188679246" y="209.9811320754717" type="curve" smooth="yes"/>
      <point x="364.35849056603774" y="209.9811320754717"/>
      <point x="492.92452830188677" y="255.79245283018867"/>
      <point x="492.92452830188677" y="392.9811320754717" type="curve" smooth="yes"/>
      <point x="492.92452830188677" y="444.2830188679245"/>
      <point x="454.24528301886795" y="529.6037735849056"/>
    </contour>
    <contour>
      <point x="307.77358490566036" y="444.0188679245283" type="curve" smooth="yes"/>
      <point x="356.0377358490566" y="444.0188679245283"/>
      <point x="388.7169811320755" y="420.24528301886795"/>
      <point x="388.7169811320755" y="381.66037735849056" type="curve" smooth="yes"/>
      <point x="388.7169811320755" y="301.0"/>
      <point x="266.37735849056605" y="290.1320754716981"/>
      <point x="217.75471698113208" y="290.1320754716981" type="curve" smooth="yes"/>
      <point x="153.69811320754718" y="290.1320754716981" type="line"/>
      <point x="168.39622641509433" y="384.24528301886795"/>
      <point x="222.73584905660377" y="444.0188679245283"/>
    </contour>
  </outline>
</glyph>
<glyph name="g" format="2">
  <advance width="546.0"/>
  <unicode hex="0067"/>
  <anchor x="306.9433962264151" y="523.0" name="top"/>
  <outline>
    <contour>
      <point x="216.0188679245283" y="-212.0" type="curve" smooth="yes"/>
      <point x="362.9433962264151" y="-212.0"/>
      <point x="439.54716981132077" y="-130.9433962264151"/>
      <point x="463.33962264150944" y="97.18867924528301" type="curve" smooth="yes"/>
      <point x="505.7358490566038" y="502.79245283018867" type="line"/>
      <point x="505.7358490566038" y="516.6981132075472"/>
      <point x="496.811320754717" y="525.0"/>
      <point x="470.77358490566036" y="525.0" type="curve" smooth="yes"/>
      <point x="462.9622641509434" y="525.0" type="line" smooth="yes"/>
      <point x="428.3207547169811" y="524.6981132075472"/>
      <point x="422.22641509433964" y="507.0188679245283"/>
      <point x="411.92452830188677" y="476.20754716981133" type="curve"/>
      <point x="389.52830188679246" y="496.9056603773585"/>
      <point x="345.1320754716981" y="529.6037735849056"/>
      <point x="283.54716981132077" y="529.6037735849056" type="curve" smooth="yes"/>
      <point x="136.0754716981132" y="529.6037735849056"/>
      <point x="38.9811320754717" y="398.1132075471698"/>
      <point x="38.9811320754717" y="210.9056603773585" type="curve" smooth="yes"/>
      <point x="38.9811320754717" y="51.867924528301884"/>
      <point x="133.11320754716982" y="1.2075471698113207"/>
      <point x="210.9811320754717" y="1.2075471698113207" type="curve" smooth="yes"/>
      <point x="278.37735849056605" y="1.2075471698113207"/>
      <point x="340.75471698113205" y="41.0188679245283"/>
      <point x="377.62264150943395" y="127.32075471698113" type="curve"/>
      <point x="364.41509433962267" y="145.35849056603774" type="line"/>
      <point x="360.0" y="93.73584905660377" type="line"/>
      <point x="348.50943396226415" y="-62.264150943396224"/>
      <point x="299.3207547169811" y="-126.41509433962264"/>
      <point x="206.96226415094338" y="-126.41509433962264" type="curve" smooth="yes"/>
      <point x="110.81132075471699" y="-126.41509433962264"/>
      <point x="67.90566037735849" y="-76.33962264150944"/>
      <point x="55.905660377358494" y="-76.33962264150944" type="curve" smooth="yes"/>
      <point x="49.39622641509434" y="-76.33962264150944"/>
      <point x="40.094339622641506" y="-86.26415094339623"/>
      <point x="40.094339622641506" y="-141.0" type="curve" smooth="yes"/>
      <point x="40.094339622641506" y="-174.62264150943398"/>
      <point x="113.71698113207547" y="-212.0"/>
    </contour>
    <contour>
      <point x="241.1509433962264" y="88.69811320754717" type="curve" smooth="yes"/>
      <point x="185.66037735849056" y="88.69811320754717"/>
      <point x="145.0" y="122.39622641509433"/>
      <point x="145.0" y="217.81132075471697" type="curve" smooth="yes"/>
      <point x="145.0" y="339.3207547169811"/>
      <point x="181.71698113207546" y="443.3207547169811"/>
      <point x="299.39622641509436" y="443.3207547169811" type="curve" smooth="yes"/>
      <point x="343.8490566037736" y="443.3207547169811"/>
      <point x="376.0188679245283" y="422.9433962264151"/>
      <point x="395.1132075471698" y="408.24528301886795" type="curve"/>
      <point x="391.20754716981133" y="389.22641509433964"/>
      <point x="388.50943396226415" y="369.3018867924528"/>
      <point x="385.9056603773585" y="346.77358490566036" type="curve"/>
      <point x="372.9056603773585" y="225.58490566037736" type="line"/>
      <point x="337.54716981132077" y="122.67924528301887"/>
      <point x="282.22641509433964" y="88.69811320754717"/>
    </contour>
  </outline>
</glyph>
<glyph name="h" format="2">
  <advance width="565.0"/>
  <unicode hex="0068"/>
  <anchor x="267.9811320754717" y="0.0" name="bottom"/>
  <anchor x="170.73584905660377" y="630.0" name="center"/>
  <anchor x="172.0943396226415" y="728.0188679245283" name="top"/>
  <outline>
    <contour>
      <point x="457.35849056603774" y="-6.60377358490566" type="curve" smooth="yes"/>
      <point x="480.49056603773585" y="-6.60377358490566"/>
      <point x="520.2075471698113" y="3.5094339622641506"/>
      <point x="525.811320754717" y="32.132075471698116" type="curve" smooth="yes"/>
      <point x="530.7169811320755" y="58.056603773584904"/>
      <point x="530.7169811320755" y="72.56603773584905"/>
      <point x="530.7169811320755" y="75.0754716981132" type="curve" smooth="yes"/>
      <point x="530.7169811320755" y="81.98113207547169"/>
      <point x="528.0188679245283" y="84.28301886792453"/>
      <point x="524.1132075471698" y="84.28301886792453" type="curve" smooth="yes"/>
      <point x="518.7169811320755" y="84.28301886792453"/>
      <point x="507.0188679245283" y="77.58490566037736"/>
      <point x="489.52830188679246" y="77.58490566037736" type="curve" smooth="yes"/>
      <point x="469.22641509433964" y="77.58490566037736"/>
      <point x="459.62264150943395" y="91.0754716981132"/>
      <point x="462.62264150943395" y="119.0754716981132" type="curve" smooth="yes"/>
      <point x="488.1132075471698" y="380.50943396226415" type="line" smooth="yes"/>
      <point x="497.41509433962267" y="478.4339622641509"/>
      <point x="452.6981132075472" y="529.6037735849056"/>
      <point x="358.1132075471698" y="529.6037735849056" type="curve" smooth="yes"/>
      <point x="299.3207547169811" y="529.6037735849056"/>
      <point x="238.83018867924528" y="501.79245283018867"/>
      <point x="191.56603773584905" y="441.35849056603774" type="curve"/>
      <point x="222.0566037735849" y="727.8867924528302" type="line" smooth="yes"/>
      <point x="224.0566037735849" y="743.188679245283"/>
      <point x="209.9433962264151" y="752.6037735849056"/>
      <point x="178.32075471698113" y="752.6037735849056" type="curve" smooth="yes"/>
      <point x="167.0754716981132" y="752.6037735849056" type="line" smooth="yes"/>
      <point x="137.1509433962264" y="752.6037735849056"/>
      <point x="120.73584905660377" y="745.0943396226415"/>
      <point x="118.73584905660377" y="727.5849056603773" type="curve" smooth="yes"/>
      <point x="44.339622641509436" y="22.0188679245283" type="line" smooth="yes"/>
      <point x="43.0377358490566" y="8.81132075471698"/>
      <point x="57.15094339622642" y="-2.0"/>
      <point x="88.0754716981132" y="-2.0" type="curve" smooth="yes"/>
      <point x="99.32075471698113" y="-2.0" type="line" smooth="yes"/>
      <point x="127.84905660377359" y="-2.0"/>
      <point x="145.66037735849056" y="6.90566037735849"/>
      <point x="147.66037735849056" y="23.0188679245283" type="curve" smooth="yes"/>
      <point x="178.16981132075472" y="313.60377358490564" type="line"/>
      <point x="214.62264150943398" y="411.1132075471698"/>
      <point x="272.9433962264151" y="441.811320754717"/>
      <point x="322.1132075471698" y="441.811320754717" type="curve" smooth="yes"/>
      <point x="366.0" y="441.811320754717"/>
      <point x="388.8867924528302" y="418.22641509433964"/>
      <point x="383.49056603773585" y="362.9622641509434" type="curve" smooth="yes"/>
      <point x="359.6981132075472" y="117.13207547169812" type="line" smooth="yes"/>
      <point x="350.39622641509436" y="25.50943396226415"/>
      <point x="394.0188679245283" y="-6.60377358490566"/>
    </contour>
  </outline>
</glyph>
<glyph name="k" format="2">
  <advance width="521.0"/>
  <unicode hex="006B"/>
  <anchor x="238.28301886792454" y="0.0" name="bottom"/>
  <outline>
    <contour>
      <point x="88.98113207547169" y="-2.0" type="curve" smooth="yes"/>
      <point x="100.22641509433963" y="-2.0" type="line" smooth="yes"/>
      <point x="132.45283018867926" y="-2.0"/>
      <point x="146.56603773584905" y="6.90566037735849"/>
      <point x="148.56603773584905" y="23.0188679245283" type="curve" smooth="yes"/>
      <point x="172.26415094339623" y="247.39622641509433" type="line"/>
      <point x="176.26415094339623" y="247.69811320754718" type="line"/>
      <point x="347.811320754717" y="12.81132075471698" type="line" smooth="yes"/>
      <point x="356.20754716981133" y="-0.09433962264150941"/>
      <point x="378.20754716981133" y="-2.0"/>
      <point x="402.3207547169811" y="-2.0" type="curve" smooth="yes"/>
      <point x="417.79245283018867" y="-2.0" type="line" smooth="yes"/>
      <point x="454.41509433962267" y="-2.0"/>
      <point x="466.7169811320755" y="2.2075471698113205"/>
      <point x="466.7169811320755" y="14.60377358490566" type="curve" smooth="yes"/>
      <point x="466.7169811320755" y="18.20754716981132"/>
      <point x="465.0188679245283" y="22.50943396226415"/>
      <point x="460.3207547169811" y="29.81132075471698" type="curve" smooth="yes"/>
      <point x="278.9433962264151" y="278.0377358490566" type="line"/>
      <point x="479.1320754716981" y="491.39622641509436" type="line" smooth="yes"/>
      <point x="486.8301886792453" y="499.39622641509436"/>
      <point x="491.1320754716981" y="507.39622641509436"/>
      <point x="491.1320754716981" y="512.3962264150944" type="curve" smooth="yes"/>
      <point x="491.1320754716981" y="519.0"/>
      <point x="478.0188679245283" y="525.0"/>
      <point x="450.79245283018867" y="525.0" type="curve" smooth="yes"/>
      <point x="436.8301886792453" y="525.0" type="line" smooth="yes"/>
      <point x="412.7169811320755" y="525.0"/>
      <point x="391.0188679245283" y="522.3018867924528"/>
      <point x="380.1132075471698" y="509.49056603773585" type="curve" smooth="yes"/>
      <point x="181.47169811320754" y="295.6792452830189" type="line"/>
      <point x="177.47169811320754" y="295.9811320754717" type="line"/>
      <point x="222.96226415094338" y="727.5849056603773" type="line"/>
      <point x="222.96226415094338" y="743.6981132075472"/>
      <point x="212.45283018867926" y="752.6037735849056"/>
      <point x="179.22641509433961" y="752.6037735849056" type="curve" smooth="yes"/>
      <point x="167.9811320754717" y="752.6037735849056" type="line" smooth="yes"/>
      <point x="135.0566037735849" y="752.6037735849056"/>
      <point x="120.94339622641509" y="743.6981132075472"/>
      <point x="119.64150943396227" y="727.5849056603773" type="curve" smooth="yes"/>
      <point x="45.24528301886792" y="23.0188679245283" type="line"/>
      <point x="45.24528301886792" y="6.90566037735849"/>
      <point x="55.75471698113208" y="-2.0"/>
    </contour>
  </outline>
</glyph>
<glyph name="l" format="2">
  <advance width="297.0"/>
  <unicode hex="006C"/>
  <anchor x="146.28301886792454" y="0.0" name="bottom"/>
  <anchor x="294.1698113207547" y="368.0188679245283" name="center"/>
  <anchor x="181.58490566037736" y="720.0" name="top"/>
  <anchor x="292.75471698113205" y="750.6037735849056" name="topright"/>
  <outline>
    <contour>
      <point x="162.37735849056602" y="-6.60377358490566" type="curve" smooth="yes"/>
      <point x="185.50943396226415" y="-6.60377358490566"/>
      <point x="225.22641509433961" y="3.5094339622641506"/>
      <point x="230.83018867924528" y="32.132075471698116" type="curve" smooth="yes"/>
      <point x="235.73584905660377" y="58.056603773584904"/>
      <point x="235.73584905660377" y="72.56603773584905"/>
      <point x="235.73584905660377" y="75.0754716981132" type="curve" smooth="yes"/>
      <point x="235.73584905660377" y="81.98113207547169"/>
      <point x="233.03773584905662" y="84.28301886792453"/>
      <point x="229.1320754716981" y="84.28301886792453" type="curve" smooth="yes"/>
      <point x="223.73584905660377" y="84.28301886792453"/>
      <point x="212.03773584905662" y="77.58490566037736"/>
      <point x="194.54716981132074" y="77.58490566037736" type="curve" smooth="yes"/>
      <point x="174.24528301886792" y="77.58490566037736"/>
      <point x="164.64150943396226" y="91.0754716981132"/>
      <point x="167.64150943396226" y="119.0754716981132" type="curve" smooth="yes"/>
      <point x="230.43396226415095" y="729.3962264150944" type="line" smooth="yes"/>
      <point x="231.83018867924528" y="744.6981132075472"/>
      <point x="220.1320754716981" y="752.9056603773585"/>
      <point x="189.71698113207546" y="752.9056603773585" type="curve" smooth="yes"/>
      <point x="172.43396226415095" y="752.9056603773585" type="line" smooth="yes"/>
      <point x="143.11320754716982" y="752.9056603773585"/>
      <point x="129.71698113207546" y="745.6981132075472"/>
      <point x="127.41509433962264" y="728.4905660377359" type="curve" smooth="yes"/>
      <point x="65.71698113207547" y="129.22641509433961" type="line" smooth="yes"/>
      <point x="56.81132075471698" y="32.490566037735846"/>
      <point x="90.66037735849056" y="-6.60377358490566"/>
    </contour>
  </outline>
</glyph>
